SourceSerifPro-Italic_0.ufo
<glyph name="exclam" format="1">
	<unicode hex="0021"/>
	<advance width="290"/>
	<outline>
		<contour>
			<point x="134" y="160" type="line"/>
			<point x="147" y="160" type="line"/>
			<point x="243" y="556"/>
			<point x="266" y="648"/>
			<point x="267" y="676" type="curve" smooth="yes"/>
			<point x="267" y="684"/>
			<point x="262" y="690"/>
			<point x="251" y="690" type="curve" smooth="yes"/>
			<point x="240" y="690"/>
			<point x="231" y="684"/>
			<point x="228" y="667" type="curve" smooth="yes"/>
			<point x="217" y="608"/>
			<point x="202" y="536"/>
			<point x="180" y="414" type="curve" smooth="yes"/>
		</contour>
		<contour>
			<point x="81" y="22" type="curve" smooth="yes"/>
			<point x="81" y="9"/>
			<point x="91" y="-5"/>
			<point x="109" y="-5" type="curve" smooth="yes"/>
			<point x="127" y="-5"/>
			<point x="142" y="8"/>
			<point x="142" y="28" type="curve" smooth="yes"/>
			<point x="142" y="42"/>
			<point x="132" y="55"/>
			<point x="115" y="55" type="curve" smooth="yes"/>
			<point x="96" y="55"/>
			<point x="81" y="41"/>
		</contour>
	</outline>
</glyph>
<glyph name="numbersign" format="1">
	<unicode hex="0023"/>
	<advance width="505"/>
	<outline>
		<contour>
			<point x="73" y="182" type="line"/>
			<point x="505" y="182" type="line"/>
			<point x="515" y="261" type="line"/>
			<point x="83" y="261" type="line"/>
		</contour>
		<contour>
			<point x="113" y="0" type="line"/>
			<point x="177" y="0" type="line"/>
			<point x="221" y="222" type="line"/>
			<point x="326" y="650" type="line"/>
			<point x="263" y="650" type="line"/>
			<point x="219" y="431" type="line"/>
		</contour>
		<contour>
			<point x="123" y="392" type="line"/>
			<point x="555" y="392" type="line"/>
			<point x="565" y="472" type="line"/>
			<point x="133" y="472" type="line"/>
		</contour>
		<contour>
			<point x="310" y="0" type="line"/>
			<point x="373" y="0" type="line"/>
			<point x="417" y="222" type="line"/>
			<point x="523" y="650" type="line"/>
			<point x="460" y="650" type="line"/>
			<point x="416" y="431" type="line"/>
		</contour>
	</outline>
</glyph>
<glyph name="dollar" format="1">
	<unicode hex="0024"/>
	<advance width="497"/>
	<outline>
		<contour>
			<point x="237" y="-13" type="curve" smooth="yes"/>
			<point x="350" y="-13"/>
			<point x="443" y="38"/>
			<point x="443" y="156" type="curve" smooth="yes"/>
			<point x="443" y="213"/>
			<point x="418" y="270"/>
			<point x="331" y="323" type="curve" smooth="yes"/>
			<point x="285" y="351" type="line" smooth="yes"/>
			<point x="211" y="396"/>
			<point x="180" y="434"/>
			<point x="180" y="507" type="curve" smooth="yes"/>
			<point x="180" y="583"/>
			<point x="243" y="647"/>
			<point x="336" y="647" type="curve" smooth="yes"/>
			<point x="404" y="647"/>
			<point x="442" y="629"/>
			<point x="480" y="571" type="curve"/>
			<point x="449" y="624" type="line"/>
			<point x="460" y="534" type="line" smooth="yes"/>
			<point x="463" y="512"/>
			<point x="473" y="499"/>
			<point x="489" y="499" type="curve" smooth="yes"/>
			<point x="502" y="499"/>
			<point x="510" y="508"/>
			<point x="511" y="521" type="curve"/>
			<point x="499" y="618"/>
			<point x="435" y="667"/>
			<point x="339" y="667" type="curve" smooth="yes"/>
			<point x="249" y="667"/>
			<point x="153" y="610"/>
			<point x="153" y="501" type="curve" smooth="yes"/>
			<point x="153" y="434"/>
			<point x="185" y="382"/>
			<point x="267" y="332" type="curve" smooth="yes"/>
			<point x="313" y="304" type="line" smooth="yes"/>
			<point x="391" y="256"/>
			<point x="416" y="215"/>
			<point x="416" y="156" type="curve" smooth="yes"/>
			<point x="416" y="56"/>
			<point x="337" y="6"/>
			<point x="241" y="6" type="curve" smooth="yes"/>
			<point x="161" y="6"/>
			<point x="117" y="33"/>
			<point x="82" y="79" type="curve"/>
			<point x="109" y="35" type="line"/>
			<point x="100" y="136" type="line" smooth="yes"/>
			<point x="98" y="155"/>
			<point x="85" y="158"/>
			<point x="74" y="158" type="curve" smooth="yes"/>
			<point x="61" y="158"/>
			<point x="53" y="151"/>
			<point x="50" y="140" type="curve"/>
			<point x="58" y="50"/>
			<point x="116" y="-13"/>
		</contour>
		<contour>
			<point x="304" y="329" type="line"/>
			<point x="396" y="762" type="line"/>
			<point x="374" y="762" type="line"/>
			<point x="282" y="329" type="line"/>
		</contour>
		<contour>
			<point x="186" y="-115" type="line"/>
			<point x="208" y="-115" type="line"/>
			<point x="302" y="329" type="line"/>
			<point x="280" y="329" type="line"/>
		</contour>
	</outline>
</glyph>
<glyph name="ampersand" format="1">
	<unicode hex="0026"/>
	<advance width="679"/>
	<outline>
		<contour>
			<point x="62" y="194" type="curve" smooth="yes"/>
			<point x="62" y="87"/>
			<point x="133" y="-13"/>
			<point x="307" y="-13" type="curve" smooth="yes"/>
			<point x="460" y="-13"/>
			<point x="571" y="64"/>
			<point x="571" y="200" type="curve" smooth="yes"/>
			<point x="571" y="267"/>
			<point x="547" y="310"/>
			<point x="512" y="339" type="curve"/>
			<point x="501" y="332" type="line"/>
			<point x="532" y="294"/>
			<point x="551" y="256"/>
			<point x="551" y="200" type="curve" smooth="yes"/>
			<point x="551" y="81"/>
			<point x="448" y="13"/>
			<point x="314" y="13" type="curve" smooth="yes"/>
			<point x="166" y="13"/>
			<point x="90" y="84"/>
			<point x="90" y="202" type="curve" smooth="yes"/>
			<point x="90" y="305"/>
			<point x="131" y="379"/>
			<point x="222" y="431" type="curve"/>
			<point x="208" y="441" type="line"/>
			<point x="125" y="397"/>
			<point x="62" y="323"/>
		</contour>
		<contour>
			<point x="210" y="442" type="curve"/>
			<point x="230" y="434" type="line"/>
			<point x="209" y="459"/>
			<point x="194" y="501"/>
			<point x="194" y="546" type="curve" smooth="yes"/>
			<point x="194" y="626"/>
			<point x="249" y="730"/>
			<point x="390" y="730" type="curve" smooth="yes"/>
			<point x="415" y="730"/>
			<point x="427" y="727"/>
			<point x="445" y="722" type="curve"/>
			<point x="430" y="739" type="line"/>
			<point x="458" y="680" type="line" smooth="yes"/>
			<point x="468" y="659"/>
			<point x="474" y="655"/>
			<point x="485" y="655" type="curve" smooth="yes"/>
			<point x="495" y="655"/>
			<point x="500" y="660"/>
			<point x="502" y="667" type="curve"/>
			<point x="502" y="708"/>
			<point x="466" y="750"/>
			<point x="383" y="750" type="curve" smooth="yes"/>
			<point x="239" y="750"/>
			<point x="170" y="646"/>
			<point x="170" y="548" type="curve" smooth="yes"/>
			<point x="170" y="476"/>
			<point x="207" y="411"/>
			<point x="267" y="411" type="curve" smooth="yes"/>
			<point x="290" y="411"/>
			<point x="305" y="418"/>
			<point x="309" y="431" type="curve"/>
			<point x="308" y="445"/>
			<point x="288" y="453"/>
			<point x="266" y="453" type="curve" smooth="yes"/>
			<point x="246" y="453"/>
			<point x="230" y="451"/>
		</contour>
		<contour>
			<point x="341" y="167" type="curve"/>
			<point x="349" y="167"/>
			<point x="361" y="176"/>
			<point x="361" y="197" type="curve" smooth="yes"/>
			<point x="361" y="216"/>
			<point x="359" y="227"/>
			<point x="349" y="250" type="curve" smooth="yes"/>
			<point x="342" y="265" type="line"/>
			<point x="337" y="250" type="line"/>
			<point x="382" y="290"/>
			<point x="440" y="305"/>
			<point x="516" y="325" type="curve" smooth="yes"/>
			<point x="561" y="337"/>
			<point x="638" y="362"/>
			<point x="665" y="376" type="curve" smooth="yes"/>
			<point x="705" y="397"/>
			<point x="718" y="426"/>
			<point x="718" y="455" type="curve" smooth="yes"/>
			<point x="718" y="476"/>
			<point x="710" y="510"/>
			<point x="690" y="510" type="curve"/>
			<point x="680" y="507"/>
			<point x="674" y="499"/>
			<point x="674" y="482" type="curve" smooth="yes"/>
			<point x="674" y="467"/>
			<point x="676" y="448"/>
			<point x="688" y="423" type="curve" smooth="yes"/>
			<point x="696" y="406" type="line"/>
			<point x="697" y="423" type="line"/>
			<point x="670" y="393"/>
			<point x="587" y="368"/>
			<point x="503" y="345" type="curve" smooth="yes"/>
			<point x="450" y="331"/>
			<point x="403" y="316"/>
			<point x="374" y="299" type="curve" smooth="yes"/>
			<point x="333" y="276"/>
			<point x="317" y="252"/>
			<point x="317" y="220" type="curve" smooth="yes"/>
			<point x="317" y="196"/>
			<point x="322" y="172"/>
		</contour>
	</outline>
</glyph>
<glyph name="quotesingle" format="1">
	<unicode hex="0027"/>
	<advance width="170"/>
	<outline>
		<contour>
			<point x="202" y="747" type="curve" smooth="yes"/>
			<point x="190" y="747"/>
			<point x="180" y="739"/>
			<point x="176" y="720" type="curve" smooth="yes"/>
			<point x="170" y="688"/>
			<point x="166" y="649"/>
			<point x="158" y="586" type="curve" smooth="yes"/>
			<point x="142" y="470" type="line"/>
			<point x="158" y="470" type="line"/>
			<point x="202" y="656"/>
			<point x="217" y="712"/>
			<point x="217" y="725" type="curve" smooth="yes"/>
			<point x="217" y="737"/>
			<point x="212" y="747"/>
		</contour>
	</outline>
</glyph>
<glyph name="parenleft" format="1">
	<unicode hex="0028"/>
	<advance width="393"/>
	<outline>
		<contour>
			<point x="213" y="-218" type="curve"/>
			<point x="227" y="-210" type="line"/>
			<point x="159" y="-68"/>
			<point x="120" y="34"/>
			<point x="120" y="183" type="curve" smooth="yes"/>
			<point x="120" y="356"/>
			<point x="195" y="527"/>
			<point x="408" y="750" type="curve"/>
			<point x="398" y="760" type="line"/>
			<point x="182" y="562"/>
			<point x="91" y="383"/>
			<point x="91" y="169" type="curve" smooth="yes"/>
			<point x="91" y="31"/>
			<point x="135" y="-86"/>
		</contour>
	</outline>
</glyph>
<glyph name="asterisk" format="1">
	<unicode hex="002A"/>
	<advance width="445"/>
	<outline>
		<contour>
			<point x="211" y="754" type="curve" smooth="yes"/>
			<point x="199" y="751"/>
			<point x="192" y="741"/>
			<point x="196" y="726" type="curve" smooth="yes"/>
			<point x="200" y="704"/>
			<point x="213" y="666"/>
			<point x="228" y="614" type="curve" smooth="yes"/>
			<point x="246" y="555" type="line"/>
			<point x="186" y="567" type="line" smooth="yes"/>
			<point x="120" y="579"/>
			<point x="75" y="591"/>
			<point x="62" y="588" type="curve" smooth="yes"/>
			<point x="51" y="586"/>
			<point x="44" y="575"/>
			<point x="46" y="563" type="curve" smooth="yes"/>
			<point x="50" y="543"/>
			<point x="76" y="545"/>
			<point x="184" y="544" type="curve" smooth="yes"/>
			<point x="246" y="542" type="line"/>
			<point x="216" y="489" type="line" smooth="yes"/>
			<point x="178" y="422"/>
			<point x="154" y="386"/>
			<point x="158" y="370" type="curve" smooth="yes"/>
			<point x="160" y="361"/>
			<point x="171" y="353"/>
			<point x="181" y="355" type="curve" smooth="yes"/>
			<point x="201" y="359"/>
			<point x="213" y="405"/>
			<point x="238" y="479" type="curve" smooth="yes"/>
			<point x="258" y="539" type="line"/>
			<point x="299" y="493" type="line" smooth="yes"/>
			<point x="355" y="431"/>
			<point x="381" y="397"/>
			<point x="399" y="401" type="curve" smooth="yes"/>
			<point x="411" y="404"/>
			<point x="418" y="415"/>
			<point x="416" y="425" type="curve" smooth="yes"/>
			<point x="413" y="441"/>
			<point x="372" y="467"/>
			<point x="315" y="510" type="curve" smooth="yes"/>
			<point x="265" y="548" type="line"/>
			<point x="321" y="574" type="line" smooth="yes"/>
			<point x="416" y="618"/>
			<point x="444" y="626"/>
			<point x="439" y="647" type="curve" smooth="yes"/>
			<point x="437" y="659"/>
			<point x="426" y="666"/>
			<point x="414" y="663" type="curve" smooth="yes"/>
			<point x="398" y="660"/>
			<point x="362" y="630"/>
			<point x="310" y="594" type="curve" smooth="yes"/>
			<point x="259" y="558" type="line"/>
			<point x="251" y="619" type="line" smooth="yes"/>
			<point x="244" y="673"/>
			<point x="241" y="715"/>
			<point x="237" y="735" type="curve" smooth="yes"/>
			<point x="233" y="749"/>
			<point x="223" y="756"/>
		</contour>
	</outline>
</glyph>
<glyph name="plus" format="1">
	<unicode hex="002B"/>
	<advance width="530"/>
	<outline>
		<contour>
			<point x="251" y="98" type="line"/>
			<point x="279" y="98" type="line"/>
			<point x="279" y="569" type="line"/>
			<point x="251" y="569" type="line"/>
		</contour>
		<contour>
			<point x="490" y="323" type="line"/>
			<point x="490" y="349" type="line"/>
			<point x="40" y="349" type="line"/>
			<point x="40" y="323" type="line"/>
		</contour>
	</outline>
</glyph>
<glyph name="comma" format="1">
	<unicode hex="002C"/>
	<advance width="300"/>
	<outline>
		<contour>
			<point x="183" y="-6" type="curve" smooth="yes"/>
			<point x="183" y="18"/>
			<point x="181" y="26"/>
			<point x="176" y="40" type="curve"/>
			<point x="169" y="47"/>
			<point x="159" y="50"/>
			<point x="148" y="50" type="curve" smooth="yes"/>
			<point x="132" y="50"/>
			<point x="122" y="38"/>
			<point x="122" y="24" type="curve" smooth="yes"/>
			<point x="122" y="11"/>
			<point x="130" y="2"/>
			<point x="143" y="-8" type="curve" smooth="yes"/>
			<point x="170" y="-29" type="line"/>
			<point x="164" y="-15" type="line"/>
			<point x="158" y="-86"/>
			<point x="130" y="-145"/>
			<point x="66" y="-193" type="curve"/>
			<point x="75" y="-204" type="line"/>
			<point x="141" y="-161"/>
			<point x="183" y="-81"/>
		</contour>
	</outline>
</glyph>
<glyph name="hyphen" format="1">
	<unicode hex="002D"/>
	<advance width="310"/>
	<outline>
		<contour>
			<point x="56" y="235" type="line"/>
			<point x="286" y="235" type="line"/>
			<point x="286" y="261" type="line"/>
			<point x="56" y="261" type="line"/>
		</contour>
	</outline>
</glyph>
<glyph name="period" format="1">
	<unicode hex="002E"/>
	<advance width="290"/>
	<outline>
		<contour>
			<point x="113" y="-5" type="curve" smooth="yes"/>
			<point x="131" y="-5"/>
			<point x="146" y="8"/>
			<point x="146" y="28" type="curve" smooth="yes"/>
			<point x="146" y="42"/>
			<point x="136" y="55"/>
			<point x="119" y="55" type="curve" smooth="yes"/>
			<point x="100" y="55"/>
			<point x="85" y="41"/>
			<point x="85" y="22" type="curve" smooth="yes"/>
			<point x="85" y="9"/>
			<point x="95" y="-5"/>
		</contour>
	</outline>
</glyph>
<glyph name="slash" format="1">
	<unicode hex="002F"/>
	<advance width="290"/>
	<outline>
		<contour>
			<point x="-70" y="-160" type="line"/>
			<point x="-43" y="-160" type="line"/>
			<point x="402" y="710" type="line"/>
			<point x="377" y="710" type="line"/>
		</contour>
	</outline>
</glyph>
<glyph name="four" format="1">
	<unicode hex="0034"/>
	<advance width="497"/>
	<outline>
		<contour>
			<point x="14" y="169" type="line"/>
			<point x="483" y="169" type="line"/>
			<point x="487" y="195" type="line"/>
			<point x="43" y="195" type="line"/>
			<point x="44" y="186" type="line"/>
			<point x="422" y="645" type="line"/>
			<point x="412" y="657" type="line"/>
			<point x="291" y="0" type="line"/>
			<point x="318" y="0" type="line"/>
			<point x="443" y="677" type="line"/>
			<point x="428" y="677" type="line"/>
			<point x="17" y="184" type="line"/>
		</contour>
		<contour>
			<point x="191" y="0" type="line"/>
			<point x="420" y="0" type="line"/>
			<point x="424" y="20" type="line"/>
			<point x="321" y="28" type="line"/>
			<point x="301" y="28" type="line"/>
			<point x="195" y="20" type="line"/>
		</contour>
	</outline>
</glyph>
<glyph name="less" format="1">
	<unicode hex="003C"/>
	<advance width="530"/>
	<outline>
		<contour>
			<point x="65" y="326" type="line"/>
			<point x="451" y="93" type="line"/>
			<point x="464" y="114" type="line"/>
			<point x="78" y="347" type="line"/>
			<point x="78" y="326" type="line"/>
			<point x="464" y="558" type="line"/>
			<point x="451" y="579" type="line"/>
			<point x="65" y="347" type="line"/>
		</contour>
	</outline>
</glyph>
<glyph name="question" format="1">
	<unicode hex="003F"/>
	<advance width="460"/>
	<outline>
		<contour>
			<point x="304" y="670" type="curve" smooth="yes"/>
			<point x="383" y="670"/>
			<point x="432" y="637"/>
			<point x="432" y="575" type="curve" smooth="yes"/>
			<point x="432" y="529"/>
			<point x="405" y="490"/>
			<point x="288" y="439" type="curve" smooth="yes"/>
			<point x="153" y="380"/>
			<point x="106" y="328"/>
			<point x="106" y="253" type="curve" smooth="yes"/>
			<point x="106" y="188"/>
			<point x="152" y="159"/>
			<point x="205" y="159" type="curve" smooth="yes"/>
			<point x="249" y="159"/>
			<point x="285" y="175"/>
			<point x="311" y="208" type="curve"/>
			<point x="303" y="218" type="line"/>
			<point x="276" y="192"/>
			<point x="243" y="179"/>
			<point x="206" y="179" type="curve" smooth="yes"/>
			<point x="166" y="179"/>
			<point x="133" y="209"/>
			<point x="133" y="256" type="curve" smooth="yes"/>
			<point x="133" y="310"/>
			<point x="157" y="360"/>
			<point x="294" y="421" type="curve" smooth="yes"/>
			<point x="414" y="474"/>
			<point x="460" y="511"/>
			<point x="460" y="579" type="curve" smooth="yes"/>
			<point x="460" y="656"/>
			<point x="390" y="690"/>
			<point x="303" y="690" type="curve" smooth="yes"/>
			<point x="244" y="690"/>
			<point x="164" y="667"/>
			<point x="140" y="626" type="curve"/>
			<point x="140" y="617"/>
			<point x="149" y="607"/>
			<point x="163" y="607" type="curve" smooth="yes"/>
			<point x="178" y="607"/>
			<point x="190" y="613"/>
			<point x="204" y="628" type="curve" smooth="yes"/>
			<point x="250" y="676" type="line"/>
			<point x="214" y="658" type="line"/>
			<point x="256" y="669"/>
			<point x="283" y="670"/>
		</contour>
		<contour>
			<point x="130" y="-14" type="curve" smooth="yes"/>
			<point x="149" y="-14"/>
			<point x="169" y="1"/>
			<point x="169" y="27" type="curve" smooth="yes"/>
			<point x="169" y="43"/>
			<point x="163" y="55"/>
			<point x="142" y="55" type="curve" smooth="yes"/>
			<point x="123" y="55"/>
			<point x="103" y="39"/>
			<point x="103" y="12" type="curve" smooth="yes"/>
			<point x="103" y="-2"/>
			<point x="111" y="-14"/>
		</contour>
	</outline>
</glyph>
<glyph name="at" format="1">
	<unicode hex="0040"/>
	<advance width="815"/>
	<outline>
		<contour>
			<point x="354" y="79" type="curve" smooth="yes"/>
			<point x="308" y="79"/>
			<point x="272" y="119"/>
			<point x="272" y="192" type="curve" smooth="yes"/>
			<point x="272" y="255"/>
			<point x="301" y="328"/>
			<point x="337" y="376" type="curve" smooth="yes"/>
			<point x="377" y="430"/>
			<point x="418" y="443"/>
			<point x="453" y="443" type="curve" smooth="yes"/>
			<point x="491" y="443"/>
			<point x="518" y="427"/>
			<point x="538" y="388" type="curve"/>
			<point x="553" y="417" type="line"/>
			<point x="525" y="451"/>
			<point x="498" y="466"/>
			<point x="460" y="466" type="curve" smooth="yes"/>
			<point x="414" y="466"/>
			<point x="362" y="444"/>
			<point x="315" y="382" type="curve" smooth="yes"/>
			<point x="276" y="331"/>
			<point x="242" y="254"/>
			<point x="242" y="179" type="curve" smooth="yes"/>
			<point x="242" y="97"/>
			<point x="284" y="54"/>
			<point x="346" y="54" type="curve" smooth="yes"/>
			<point x="401" y="54"/>
			<point x="445" y="87"/>
			<point x="496" y="159" type="curve"/>
			<point x="489" y="169" type="line"/>
			<point x="427" y="95"/>
			<point x="389" y="79"/>
		</contour>
		<contour>
			<point x="466" y="632" type="curve" smooth="yes"/>
			<point x="642" y="632"/>
			<point x="760" y="522"/>
			<point x="760" y="346" type="curve" smooth="yes"/>
			<point x="760" y="177"/>
			<point x="652" y="74"/>
			<point x="568" y="74" type="curve" smooth="yes"/>
			<point x="515" y="74"/>
			<point x="498" y="103"/>
			<point x="510" y="161" type="curve"/>
			<point x="568" y="451" type="line"/>
			<point x="555" y="456" type="line"/>
			<point x="535" y="420" type="line"/>
			<point x="481" y="155" type="line"/>
			<point x="482" y="147" type="line"/>
			<point x="475" y="85"/>
			<point x="503" y="54"/>
			<point x="557" y="54" type="curve"/>
			<point x="662" y="54"/>
			<point x="780" y="160"/>
			<point x="780" y="344" type="curve" smooth="yes"/>
			<point x="780" y="525"/>
			<point x="657" y="652"/>
			<point x="472" y="652" type="curve" smooth="yes"/>
			<point x="216" y="652"/>
			<point x="35" y="437"/>
			<point x="35" y="192" type="curve" smooth="yes"/>
			<point x="35" y="-25"/>
			<point x="174" y="-155"/>
			<point x="378" y="-155" type="curve" smooth="yes"/>
			<point x="451" y="-155"/>
			<point x="511" y="-141"/>
			<point x="567" y="-112" type="curve"/>
			<point x="561" y="-97" type="line"/>
			<point x="506" y="-123"/>
			<point x="457" y="-135"/>
			<point x="383" y="-135" type="curve" smooth="yes"/>
			<point x="202" y="-135"/>
			<point x="63" y="-10"/>
			<point x="63" y="198" type="curve" smooth="yes"/>
			<point x="63" y="435"/>
			<point x="240" y="632"/>
		</contour>
	</outline>
</glyph>
<glyph name="B" format="1">
	<unicode hex="0042"/>
	<advance width="558"/>
	<outline>
		<contour>
			<point x="11" y="0" type="line"/>
			<point x="129" y="0" type="line"/>
			<point x="134" y="27" type="line"/>
			<point x="127" y="27" type="line"/>
			<point x="15" y="20" type="line"/>
		</contour>
		<contour>
			<point x="115" y="0" type="line"/>
			<point x="149" y="0" type="line"/>
			<point x="165" y="104"/>
			<point x="184" y="209"/>
			<point x="203" y="313" type="curve" smooth="yes"/>
			<point x="271" y="677" type="line"/>
			<point x="238" y="677" type="line"/>
			<point x="221" y="573"/>
			<point x="204" y="468"/>
			<point x="184" y="364" type="curve" smooth="yes"/>
		</contour>
		<contour>
			<point x="125" y="657" type="line"/>
			<point x="245" y="650" type="line"/>
			<point x="252" y="650" type="line"/>
			<point x="257" y="677" type="line"/>
			<point x="129" y="677" type="line"/>
		</contour>
		<contour>
			<point x="129" y="0" type="line"/>
			<point x="260" y="0" type="line" smooth="yes"/>
			<point x="430" y="0"/>
			<point x="518" y="77"/>
			<point x="518" y="209" type="curve" smooth="yes"/>
			<point x="518" y="293"/>
			<point x="454" y="355"/>
			<point x="298" y="357" type="curve"/>
			<point x="307" y="349" type="line"/>
			<point x="474" y="361"/>
			<point x="537" y="441"/>
			<point x="537" y="546" type="curve" smooth="yes"/>
			<point x="537" y="625"/>
			<point x="471" y="677"/>
			<point x="322" y="677" type="curve" smooth="yes"/>
			<point x="257" y="677" type="line"/>
			<point x="253" y="655" type="line"/>
			<point x="307" y="655" type="line" smooth="yes"/>
			<point x="461" y="655"/>
			<point x="509" y="614"/>
			<point x="509" y="537" type="curve" smooth="yes"/>
			<point x="509" y="427"/>
			<point x="433" y="363"/>
			<point x="276" y="363" type="curve" smooth="yes"/>
			<point x="198" y="363" type="line"/>
			<point x="194" y="343" type="line"/>
			<point x="265" y="343" type="line" smooth="yes"/>
			<point x="421" y="343"/>
			<point x="489" y="293"/>
			<point x="489" y="200" type="curve" smooth="yes"/>
			<point x="489" y="82"/>
			<point x="402" y="22"/>
			<point x="265" y="22" type="curve" smooth="yes"/>
			<point x="133" y="22" type="line"/>
		</contour>
		<contour>
			<point name="aboveUC" x="346" y="682" type="move"/>
		</contour>
		<contour>
			<point name="belowLC" x="261" y="-22" type="move"/>
		</contour>
	</outline>
</glyph>
<glyph name="D" format="1">
	<unicode hex="0044"/>
	<advance width="668"/>
	<outline>
		<contour>
			<point x="11" y="0" type="line"/>
			<point x="129" y="0" type="line"/>
			<point x="134" y="27" type="line"/>
			<point x="127" y="27" type="line"/>
			<point x="15" y="20" type="line"/>
		</contour>
		<contour>
			<point x="115" y="0" type="line"/>
			<point x="149" y="0" type="line"/>
			<point x="165" y="104"/>
			<point x="184" y="209"/>
			<point x="203" y="313" type="curve" smooth="yes"/>
			<point x="271" y="677" type="line"/>
			<point x="238" y="677" type="line"/>
			<point x="221" y="573"/>
			<point x="204" y="468"/>
			<point x="184" y="364" type="curve" smooth="yes"/>
		</contour>
		<contour>
			<point x="125" y="657" type="line"/>
			<point x="245" y="650" type="line"/>
			<point x="252" y="650" type="line"/>
			<point x="257" y="677" type="line"/>
			<point x="129" y="677" type="line"/>
		</contour>
		<contour>
			<point x="129" y="0" type="line"/>
			<point x="253" y="0" type="line" smooth="yes"/>
			<point x="507" y="0"/>
			<point x="655" y="167"/>
			<point x="655" y="393" type="curve" smooth="yes"/>
			<point x="655" y="574"/>
			<point x="544" y="677"/>
			<point x="340" y="677" type="curve" smooth="yes"/>
			<point x="257" y="677" type="line"/>
			<point x="253" y="655" type="line"/>
			<point x="339" y="655" type="line" smooth="yes"/>
			<point x="527" y="655"/>
			<point x="623" y="562"/>
			<point x="623" y="393" type="curve" smooth="yes"/>
			<point x="623" y="180"/>
			<point x="498" y="22"/>
			<point x="244" y="22" type="curve" smooth="yes"/>
			<point x="133" y="22" type="line"/>
		</contour>
	</outline>
</glyph>
<glyph name="H" format="1">
	<unicode hex="0048"/>
	<advance width="765"/>
	<outline>
		<contour>
			<point x="11" y="0" type="line"/>
			<point x="259" y="0" type="line"/>
			<point x="263" y="20" type="line"/>
			<point x="142" y="27" type="line"/>
			<point x="128" y="27" type="line"/>
			<point x="15" y="20" type="line"/>
		</contour>
		<contour>
			<point x="115" y="0" type="line"/>
			<point x="149" y="0" type="line"/>
			<point x="165" y="104"/>
			<point x="184" y="209"/>
			<point x="203" y="313" type="curve" smooth="yes"/>
			<point x="271" y="677" type="line"/>
			<point x="238" y="677" type="line"/>
			<point x="221" y="573"/>
			<point x="204" y="468"/>
			<point x="184" y="364" type="curve" smooth="yes"/>
		</contour>
		<contour>
			<point x="125" y="657" type="line"/>
			<point x="246" y="650" type="line"/>
			<point x="260" y="650" type="line"/>
			<point x="373" y="657" type="line"/>
			<point x="377" y="677" type="line"/>
			<point x="129" y="677" type="line"/>
		</contour>
		<contour>
			<point x="202" y="348" type="line"/>
			<point x="620" y="348" type="line"/>
			<point x="623" y="370" type="line"/>
			<point x="207" y="370" type="line"/>
		</contour>
		<contour>
			<point x="442" y="0" type="line"/>
			<point x="690" y="0" type="line"/>
			<point x="694" y="20" type="line"/>
			<point x="573" y="27" type="line"/>
			<point x="559" y="27" type="line"/>
			<point x="446" y="20" type="line"/>
		</contour>
		<contour>
			<point x="546" y="0" type="line"/>
			<point x="580" y="0" type="line"/>
			<point x="596" y="104"/>
			<point x="615" y="209"/>
			<point x="634" y="313" type="curve" smooth="yes"/>
			<point x="702" y="677" type="line"/>
			<point x="669" y="677" type="line"/>
			<point x="652" y="573"/>
			<point x="635" y="468"/>
			<point x="615" y="364" type="curve" smooth="yes"/>
		</contour>
		<contour>
			<point x="556" y="657" type="line"/>
			<point x="677" y="650" type="line"/>
			<point x="691" y="650" type="line"/>
			<point x="804" y="657" type="line"/>
			<point x="808" y="677" type="line"/>
			<point x="560" y="677" type="line"/>
		</contour>
		<contour>
			<point name="aboveUC" x="489" y="682" type="move"/>
		</contour>
		<contour>
			<point name="belowLC" x="356" y="-22" type="move"/>
		</contour>
	</outline>
	<note>
		skew 10 scale 120
	</note>
</glyph>
<glyph name="I" format="1">
	<unicode hex="0049"/>
	<advance width="334"/>
	<outline>
		<contour>
			<point x="11" y="0" type="line"/>
			<point x="259" y="0" type="line"/>
			<point x="263" y="20" type="line"/>
			<point x="142" y="27" type="line"/>
			<point x="128" y="27" type="line"/>
			<point x="15" y="20" type="line"/>
		</contour>
		<contour>
			<point x="115" y="0" type="line"/>
			<point x="149" y="0" type="line"/>
			<point x="165" y="104"/>
			<point x="184" y="209"/>
			<point x="203" y="313" type="curve" smooth="yes"/>
			<point x="271" y="677" type="line"/>
			<point x="238" y="677" type="line"/>
			<point x="221" y="573"/>
			<point x="204" y="468"/>
			<point x="184" y="364" type="curve" smooth="yes"/>
		</contour>
		<contour>
			<point x="125" y="657" type="line"/>
			<point x="246" y="650" type="line"/>
			<point x="260" y="650" type="line"/>
			<point x="373" y="657" type="line"/>
			<point x="377" y="677" type="line"/>
			<point x="129" y="677" type="line"/>
		</contour>
		<contour>
			<point name="aboveUC" x="274" y="682" type="move"/>
		</contour>
		<contour>
			<point name="belowLC" x="141" y="-22" type="move"/>
		</contour>
		<contour>
			<point name="ogonek" x="183" y="0" type="move"/>
		</contour>
	</outline>
</glyph>
<glyph name="J" format="1">
	<unicode hex="004A"/>
	<advance width="401"/>
	<outline>
		<contour>
			<point x="-25" y="-23" type="curve"/>
			<point x="-20" y="-38"/>
			<point x="-2" y="-44"/>
			<point x="29" y="-44" type="curve" smooth="yes"/>
			<point x="125" y="-44"/>
			<point x="221" y="40"/>
			<point x="253" y="177" type="curve" smooth="yes"/>
			<point x="259" y="202"/>
			<point x="264" y="227"/>
			<point x="278" y="302" type="curve" smooth="yes"/>
			<point x="348" y="677" type="line"/>
			<point x="316" y="677" type="line"/>
			<point x="292" y="543"/>
			<point x="276" y="448"/>
			<point x="264" y="380" type="curve" smooth="yes"/>
			<point x="228" y="185"/>
			<point x="233" y="220"/>
			<point x="229" y="198" type="curve" smooth="yes"/>
			<point x="200" y="43"/>
			<point x="116" y="-11"/>
			<point x="67" y="-25" type="curve"/>
			<point x="89" y="-26" type="line"/>
			<point x="74" y="-16" type="line" smooth="yes"/>
			<point x="54" y="-3"/>
			<point x="39" y="1"/>
			<point x="20" y="1" type="curve" smooth="yes"/>
			<point x="1" y="1"/>
			<point x="-18" y="-7"/>
		</contour>
		<contour>
			<point x="194" y="657" type="line"/>
			<point x="320" y="650" type="line"/>
			<point x="334" y="650" type="line"/>
			<point x="450" y="657" type="line"/>
			<point x="454" y="677" type="line"/>
			<point x="198" y="677" type="line"/>
		</contour>
	</outline>
</glyph>
<glyph name="K" format="1">
	<unicode hex="004B"/>
	<advance width="653"/>
	<outline>
		<contour>
			<point x="11" y="0" type="line"/>
			<point x="259" y="0" type="line"/>
			<point x="263" y="20" type="line"/>
			<point x="142" y="27" type="line"/>
			<point x="128" y="27" type="line"/>
			<point x="15" y="20" type="line"/>
		</contour>
		<contour>
			<point x="115" y="0" type="line"/>
			<point x="149" y="0" type="line"/>
			<point x="165" y="104"/>
			<point x="184" y="209"/>
			<point x="203" y="313" type="curve" smooth="yes"/>
			<point x="271" y="677" type="line"/>
			<point x="238" y="677" type="line"/>
			<point x="221" y="573"/>
			<point x="204" y="468"/>
			<point x="184" y="364" type="curve" smooth="yes"/>
		</contour>
		<contour>
			<point x="125" y="657" type="line"/>
			<point x="246" y="650" type="line"/>
			<point x="260" y="650" type="line"/>
			<point x="373" y="657" type="line"/>
			<point x="377" y="677" type="line"/>
			<point x="129" y="677" type="line"/>
		</contour>
		<contour>
			<point x="174" y="240" type="line"/>
			<point x="652" y="677" type="line"/>
			<point x="621" y="677" type="line"/>
			<point x="181" y="275" type="line"/>
		</contour>
		<contour>
			<point x="517" y="0" type="line"/>
			<point x="548" y="0" type="line"/>
			<point x="331" y="394" type="line"/>
			<point x="306" y="372" type="line"/>
		</contour>
		<contour>
			<point x="398" y="0" type="line"/>
			<point x="626" y="0" type="line"/>
			<point x="630" y="20" type="line"/>
			<point x="529" y="27" type="line"/>
			<point x="515" y="27" type="line"/>
			<point x="402" y="20" type="line"/>
		</contour>
		<contour>
			<point x="477" y="657" type="line"/>
			<point x="602" y="650" type="line"/>
			<point x="616" y="650" type="line"/>
			<point x="705" y="657" type="line"/>
			<point x="709" y="677" type="line"/>
			<point x="481" y="677" type="line"/>
		</contour>
		<contour>
			<point name="aboveUC" x="416" y="682" type="move"/>
		</contour>
		<contour>
			<point name="belowLC" x="333" y="-22" type="move"/>
		</contour>
	</outline>
</glyph>
<glyph name="L" format="1">
	<unicode hex="004C"/>
	<advance width="538"/>
	<outline>
		<contour>
			<point x="11" y="0" type="line"/>
			<point x="129" y="0" type="line"/>
			<point x="134" y="27" type="line"/>
			<point x="127" y="27" type="line"/>
			<point x="15" y="20" type="line"/>
		</contour>
		<contour>
			<point x="115" y="0" type="line"/>
			<point x="149" y="0" type="line"/>
			<point x="165" y="104"/>
			<point x="184" y="209"/>
			<point x="203" y="313" type="curve" smooth="yes"/>
			<point x="271" y="677" type="line"/>
			<point x="238" y="677" type="line"/>
			<point x="221" y="573"/>
			<point x="204" y="468"/>
			<point x="184" y="364" type="curve" smooth="yes"/>
		</contour>
		<contour>
			<point x="125" y="657" type="line"/>
			<point x="246" y="650" type="line"/>
			<point x="260" y="650" type="line"/>
			<point x="373" y="657" type="line"/>
			<point x="377" y="677" type="line"/>
			<point x="129" y="677" type="line"/>
		</contour>
		<contour>
			<point x="129" y="0" type="line"/>
			<point x="471" y="0" type="line"/>
			<point x="512" y="163" type="line"/>
			<point x="488" y="163" type="line"/>
			<point x="438" y="0" type="line"/>
			<point x="456" y="22" type="line"/>
			<point x="133" y="22" type="line"/>
		</contour>
	</outline>
</glyph>
<glyph name="M" format="1">
	<unicode hex="004D"/>
	<advance width="906"/>
	<outline>
		<contour>
			<point x="11" y="0" type="line"/>
			<point x="229" y="0" type="line"/>
			<point x="233" y="20" type="line"/>
			<point x="127" y="27" type="line"/>
			<point x="113" y="27" type="line"/>
			<point x="15" y="20" type="line"/>
		</contour>
		<contour>
			<point x="103" y="0" type="line"/>
			<point x="127" y="0" type="line"/>
			<point x="285" y="677" type="line"/>
			<point x="261" y="677" type="line"/>
		</contour>
		<contour>
			<point x="391" y="0" type="line"/>
			<point x="410" y="0" type="line"/>
			<point x="827" y="677" type="line"/>
			<point x="801" y="677" type="line"/>
			<point x="401" y="28" type="line"/>
			<point x="416" y="28" type="line"/>
			<point x="287" y="677" type="line"/>
			<point x="159" y="677" type="line"/>
			<point x="155" y="657" type="line"/>
			<point x="285" y="646" type="line"/>
			<point x="261" y="662" type="line"/>
		</contour>
		<contour>
			<point x="603" y="0" type="line"/>
			<point x="841" y="0" type="line"/>
			<point x="845" y="20" type="line"/>
			<point x="729" y="27" type="line"/>
			<point x="715" y="27" type="line"/>
			<point x="607" y="20" type="line"/>
		</contour>
		<contour>
			<point x="704" y="0" type="line"/>
			<point x="734" y="0" type="line"/>
			<point x="751" y="102"/>
			<point x="761" y="205"/>
			<point x="776" y="310" type="curve" smooth="yes"/>
			<point x="832" y="677" type="line"/>
			<point x="814" y="677" type="line"/>
			<point x="795" y="634" type="line"/>
		</contour>
		<contour>
			<point x="803" y="650" type="line"/>
			<point x="810" y="650" type="line"/>
			<point x="928" y="657" type="line"/>
			<point x="932" y="677" type="line"/>
			<point x="808" y="677" type="line"/>
		</contour>
	</outline>
</glyph>
<glyph name="N" format="1">
	<unicode hex="004E"/>
	<advance width="732"/>
	<outline>
		<contour>
			<point x="16" y="0" type="line"/>
			<point x="249" y="0" type="line"/>
			<point x="253" y="20" type="line"/>
			<point x="132" y="27" type="line"/>
			<point x="118" y="27" type="line"/>
			<point x="20" y="20" type="line"/>
		</contour>
		<contour>
			<point x="107" y="0" type="line"/>
			<point x="131" y="0" type="line"/>
			<point x="254" y="652" type="line"/>
			<point x="235" y="677" type="line"/>
		</contour>
		<contour>
			<point x="548" y="-10" type="line"/>
			<point x="568" y="-10" type="line"/>
			<point x="572" y="9" type="line"/>
			<point x="251" y="677" type="line"/>
			<point x="129" y="677" type="line"/>
			<point x="125" y="657" type="line"/>
			<point x="252" y="652" type="line"/>
			<point x="223" y="663" type="line"/>
		</contour>
		<contour>
			<point x="553" y="657" type="line"/>
			<point x="674" y="650" type="line"/>
			<point x="688" y="650" type="line"/>
			<point x="781" y="657" type="line"/>
			<point x="785" y="677" type="line"/>
			<point x="557" y="677" type="line"/>
		</contour>
		<contour>
			<point x="568" y="-10" type="line"/>
			<point x="698" y="677" type="line"/>
			<point x="674" y="677" type="line"/>
			<point x="549" y="14" type="line"/>
		</contour>
		<contour>
			<point name="aboveUC" x="429" y="682" type="move"/>
		</contour>
		<contour>
			<point name="belowLC" x="373" y="-12" type="move"/>
		</contour>
	</outline>
</glyph>
<glyph name="P" format="1">
	<unicode hex="0050"/>
	<advance width="551"/>
	<outline>
		<contour>
			<point x="11" y="0" type="line"/>
			<point x="263" y="0" type="line"/>
			<point x="267" y="20" type="line"/>
			<point x="141" y="27" type="line"/>
			<point x="127" y="27" type="line"/>
			<point x="15" y="20" type="line"/>
		</contour>
		<contour>
			<point x="115" y="0" type="line"/>
			<point x="149" y="0" type="line"/>
			<point x="165" y="104"/>
			<point x="184" y="209"/>
			<point x="203" y="313" type="curve" smooth="yes"/>
			<point x="271" y="677" type="line"/>
			<point x="238" y="677" type="line"/>
			<point x="221" y="573"/>
			<point x="204" y="468"/>
			<point x="184" y="364" type="curve" smooth="yes"/>
		</contour>
		<contour>
			<point x="125" y="657" type="line"/>
			<point x="245" y="650" type="line"/>
			<point x="252" y="650" type="line"/>
			<point x="257" y="677" type="line"/>
			<point x="129" y="677" type="line"/>
		</contour>
		<contour>
			<point x="183" y="285" type="line"/>
			<point x="299" y="285" type="line" smooth="yes"/>
			<point x="471" y="285"/>
			<point x="563" y="378"/>
			<point x="563" y="503" type="curve" smooth="yes"/>
			<point x="563" y="610"/>
			<point x="495" y="677"/>
			<point x="355" y="677" type="curve" smooth="yes"/>
			<point x="257" y="677" type="line"/>
			<point x="253" y="655" type="line"/>
			<point x="346" y="655" type="line" smooth="yes"/>
			<point x="476" y="655"/>
			<point x="533" y="602"/>
			<point x="533" y="503" type="curve" smooth="yes"/>
			<point x="533" y="391"/>
			<point x="466" y="305"/>
			<point x="291" y="305" type="curve" smooth="yes"/>
			<point x="187" y="305" type="line"/>
		</contour>
	</outline>
</glyph>
<glyph name="R" format="1">
	<unicode hex="0052"/>
	<advance width="633"/>
	<outline>
		<contour>
			<point x="11" y="0" type="line"/>
			<point x="263" y="0" type="line"/>
			<point x="267" y="20" type="line"/>
			<point x="141" y="27" type="line"/>
			<point x="127" y="27" type="line"/>
			<point x="15" y="20" type="line"/>
		</contour>
		<contour>
			<point x="115" y="0" type="line"/>
			<point x="149" y="0" type="line"/>
			<point x="165" y="104"/>
			<point x="184" y="209"/>
			<point x="203" y="313" type="curve" smooth="yes"/>
			<point x="271" y="677" type="line"/>
			<point x="238" y="677" type="line"/>
			<point x="221" y="573"/>
			<point x="204" y="468"/>
			<point x="184" y="364" type="curve" smooth="yes"/>
		</contour>
		<contour>
			<point x="125" y="657" type="line"/>
			<point x="245" y="650" type="line"/>
			<point x="252" y="650" type="line"/>
			<point x="257" y="677" type="line"/>
			<point x="129" y="677" type="line"/>
		</contour>
		<contour>
			<point x="476" y="34" type="line" smooth="yes"/>
			<point x="486" y="9"/>
			<point x="490" y="-5"/>
			<point x="541" y="-5" type="curve" smooth="yes"/>
			<point x="569" y="-5"/>
			<point x="594" y="-2"/>
			<point x="606" y="0" type="curve"/>
			<point x="610" y="20" type="line"/>
			<point x="500" y="25" type="line"/>
			<point x="514" y="14" type="line"/>
			<point x="429" y="224" type="line" smooth="yes"/>
			<point x="404" y="285"/>
			<point x="405" y="317"/>
			<point x="329" y="327" type="curve"/>
			<point x="349" y="321" type="line"/>
			<point x="483" y="331"/>
			<point x="554" y="416"/>
			<point x="554" y="533" type="curve" smooth="yes"/>
			<point x="554" y="624"/>
			<point x="489" y="677"/>
			<point x="354" y="677" type="curve" smooth="yes"/>
			<point x="258" y="677" type="line"/>
			<point x="254" y="655" type="line"/>
			<point x="348" y="655" type="line" smooth="yes"/>
			<point x="475" y="655"/>
			<point x="525" y="609"/>
			<point x="525" y="528" type="curve" smooth="yes"/>
			<point x="525" y="421"/>
			<point x="445" y="336"/>
			<point x="338" y="336" type="curve" smooth="yes"/>
			<point x="193" y="336" type="line"/>
			<point x="190" y="316" type="line"/>
			<point x="284" y="316" type="line" smooth="yes"/>
			<point x="379" y="316"/>
			<point x="376" y="282"/>
			<point x="405" y="211" type="curve" smooth="yes"/>
		</contour>
	</outline>
</glyph>
<glyph name="S" format="1">
	<unicode hex="0053"/>
	<advance width="514"/>
	<outline>
		<contour>
			<point x="26" y="38" type="line"/>
			<point x="59" y="12"/>
			<point x="124" y="-15"/>
			<point x="203" y="-15" type="curve" smooth="yes"/>
			<point x="333" y="-15"/>
			<point x="433" y="54"/>
			<point x="433" y="168" type="curve" smooth="yes"/>
			<point x="433" y="244"/>
			<point x="396" y="286"/>
			<point x="295" y="370" type="curve" smooth="yes"/>
			<point x="218" y="434"/>
			<point x="174" y="470"/>
			<point x="174" y="541" type="curve" smooth="yes"/>
			<point x="174" y="625"/>
			<point x="246" y="670"/>
			<point x="345" y="670" type="curve" smooth="yes"/>
			<point x="401" y="670"/>
			<point x="446" y="661"/>
			<point x="496" y="628" type="curve"/>
			<point x="485" y="649" type="line"/>
			<point x="470" y="524" type="line"/>
			<point x="492" y="524" type="line"/>
			<point x="519" y="646" type="line"/>
			<point x="465" y="677"/>
			<point x="421" y="692"/>
			<point x="348" y="692" type="curve" smooth="yes"/>
			<point x="245" y="692"/>
			<point x="146" y="647"/>
			<point x="146" y="537" type="curve" smooth="yes"/>
			<point x="146" y="464"/>
			<point x="185" y="416"/>
			<point x="276" y="344" type="curve" smooth="yes"/>
			<point x="369" y="271"/>
			<point x="405" y="227"/>
			<point x="405" y="165" type="curve" smooth="yes"/>
			<point x="405" y="64"/>
			<point x="318" y="7"/>
			<point x="207" y="7" type="curve" smooth="yes"/>
			<point x="139" y="7"/>
			<point x="98" y="20"/>
			<point x="45" y="58" type="curve"/>
			<point x="62" y="34" type="line"/>
			<point x="76" y="165" type="line"/>
			<point x="57" y="165" type="line"/>
		</contour>
		<contour>
			<point name="aboveUC" x="348" y="682" type="move"/>
		</contour>
		<contour>
			<point name="belowLC" x="208" y="-22" type="move"/>
		</contour>
		<contour>
			<point name="baseLC" x="209" y="0" type="move"/>
		</contour>
	</outline>
</glyph>
<glyph name="U" format="1">
	<unicode hex="0055"/>
	<advance width="725"/>
	<outline>
		<contour>
			<point x="142" y="160" type="curve" smooth="yes"/>
			<point x="142" y="44"/>
			<point x="226" y="-15"/>
			<point x="338" y="-15" type="curve" smooth="yes"/>
			<point x="502" y="-15"/>
			<point x="567" y="63"/>
			<point x="601" y="246" type="curve" smooth="yes"/>
			<point x="682" y="677" type="line"/>
			<point x="659" y="677" type="line"/>
			<point x="582" y="272" type="line" smooth="yes"/>
			<point x="543" y="68"/>
			<point x="492" y="11"/>
			<point x="343" y="11" type="curve" smooth="yes"/>
			<point x="242" y="11"/>
			<point x="172" y="62"/>
			<point x="173" y="172" type="curve" smooth="yes"/>
			<point x="173" y="196"/>
			<point x="175" y="223"/>
			<point x="181" y="254" type="curve" smooth="yes"/>
			<point x="261" y="677" type="line"/>
			<point x="229" y="677" type="line"/>
			<point x="211" y="573"/>
			<point x="192" y="467"/>
			<point x="172" y="361" type="curve" smooth="yes"/>
			<point x="151" y="247" type="line" smooth="yes"/>
			<point x="145" y="215"/>
			<point x="142" y="185"/>
		</contour>
		<contour>
			<point x="125" y="657" type="line"/>
			<point x="236" y="650" type="line"/>
			<point x="250" y="650" type="line"/>
			<point x="363" y="657" type="line"/>
			<point x="367" y="677" type="line"/>
			<point x="129" y="677" type="line"/>
		</contour>
		<contour>
			<point x="538" y="657" type="line"/>
			<point x="659" y="650" type="line"/>
			<point x="673" y="650" type="line"/>
			<point x="774" y="657" type="line"/>
			<point x="778" y="677" type="line"/>
			<point x="542" y="677" type="line"/>
		</contour>
		<contour>
			<point name="aboveUC" x="453" y="682" type="move"/>
		</contour>
		<contour>
			<point name="belowLC" x="327" y="-22" type="move"/>
		</contour>
		<contour>
			<point name="ogonek" x="431" y="0" type="move"/>
		</contour>
		<contour>
			<point name="hornLC" x="689" y="720" type="move"/>
		</contour>
	</outline>
</glyph>
<glyph name="Z" format="1">
	<unicode hex="005A"/>
	<advance width="548"/>
	<outline>
		<contour>
			<point x="-3" y="0" type="line"/>
			<point x="18" y="0" type="line"/>
			<point x="577" y="657" type="line"/>
			<point x="581" y="677" type="line"/>
			<point x="562" y="677" type="line"/>
			<point x="1" y="20" type="line"/>
		</contour>
		<contour>
			<point x="89" y="514" type="line"/>
			<point x="111" y="514" type="line"/>
			<point x="164" y="677" type="line"/>
			<point x="144" y="655" type="line"/>
			<point x="571" y="655" type="line"/>
			<point x="575" y="677" type="line"/>
			<point x="128" y="677" type="line"/>
		</contour>
		<contour>
			<point x="7" y="0" type="line"/>
			<point x="482" y="0" type="line"/>
			<point x="523" y="163" type="line"/>
			<point x="501" y="163" type="line"/>
			<point x="446" y="0" type="line"/>
			<point x="466" y="22" type="line"/>
			<point x="11" y="22" type="line"/>
		</contour>
	</outline>
</glyph>
<glyph name="bracketleft" format="1">
	<unicode hex="005B"/>
	<advance width="298"/>
	<outline>
		<contour>
			<point x="18" y="-159" type="curve"/>
			<point x="50" y="-159" type="line"/>
			<point x="66" y="-54"/>
			<point x="86" y="53"/>
			<point x="106" y="158" type="curve" smooth="yes"/>
			<point x="150" y="398" type="line" smooth="yes"/>
			<point x="170" y="505"/>
			<point x="190" y="612"/>
			<point x="212" y="715" type="curve"/>
			<point x="180" y="715" type="line"/>
			<point x="164" y="610"/>
			<point x="144" y="503"/>
			<point x="124" y="398" type="curve" smooth="yes"/>
			<point x="80" y="158" type="line" smooth="yes"/>
			<point x="60" y="51"/>
			<point x="40" y="-56"/>
		</contour>
		<contour>
			<point x="34" y="-159" type="line"/>
			<point x="165" y="-159" type="line"/>
			<point x="169" y="-137" type="line"/>
			<point x="53" y="-131" type="line"/>
			<point x="39" y="-131" type="line"/>
		</contour>
		<contour>
			<point x="191" y="687" type="line"/>
			<point x="205" y="687" type="line"/>
			<point x="323" y="693" type="line"/>
			<point x="327" y="715" type="line"/>
			<point x="196" y="715" type="line"/>
		</contour>
	</outline>
</glyph>
<glyph name="backslash" format="1">
	<unicode hex="005C"/>
	<advance width="290"/>
	<outline>
		<contour>
			<point x="267" y="-160" type="line"/>
			<point x="290" y="-160" type="line"/>
			<point x="21" y="710" type="line"/>
			<point x="0" y="710" type="line"/>
		</contour>
	</outline>
</glyph>
<glyph name="asciicircum" format="1">
	<unicode hex="005E"/>
	<advance width="530"/>
	<outline>
		<contour>
			<point x="88" y="226" type="line"/>
			<point x="108" y="213" type="line"/>
			<point x="276" y="481" type="line"/>
			<point x="249" y="481" type="line"/>
			<point x="427" y="213" type="line"/>
			<point x="447" y="226" type="line"/>
			<point x="274" y="490" type="line"/>
			<point x="252" y="490" type="line"/>
		</contour>
	</outline>
</glyph>
<glyph name="a" format="1">
	<unicode hex="0061"/>
	<advance width="540"/>
	<outline>
		<contour>
			<point x="378" y="-13" type="curve" smooth="yes"/>
			<point x="442" y="-13"/>
			<point x="493" y="43"/>
			<point x="539" y="121" type="curve"/>
			<point x="528" y="129" type="line"/>
			<point x="484" y="62"/>
			<point x="433" y="13"/>
			<point x="390" y="13" type="curve" smooth="yes"/>
			<point x="373" y="13"/>
			<point x="362" y="21"/>
			<point x="362" y="38" type="curve" smooth="yes"/>
			<point x="362" y="56"/>
			<point x="367" y="80"/>
			<point x="371" y="99" type="curve" smooth="yes"/>
			<point x="451" y="477" type="line"/>
			<point x="443" y="483" type="line"/>
			<point x="418" y="445" type="line"/>
			<point x="345" y="99" type="line" smooth="yes"/>
			<point x="338" y="68"/>
			<point x="336" y="54"/>
			<point x="336" y="29" type="curve" smooth="yes"/>
			<point x="336" y="4"/>
			<point x="353" y="-13"/>
		</contour>
		<contour>
			<point x="164" y="-13" type="curve" smooth="yes"/>
			<point x="247" y="-13"/>
			<point x="315" y="75"/>
			<point x="384" y="173" type="curve"/>
			<point x="380" y="181" type="line"/>
			<point x="300" y="83"/>
			<point x="242" y="12"/>
			<point x="171" y="12" type="curve" smooth="yes"/>
			<point x="125" y="12"/>
			<point x="92" y="42"/>
			<point x="92" y="123" type="curve" smooth="yes"/>
			<point x="92" y="213"/>
			<point x="136" y="319"/>
			<point x="204" y="387" type="curve" smooth="yes"/>
			<point x="247" y="431"/>
			<point x="301" y="460"/>
			<point x="358" y="460" type="curve" smooth="yes"/>
			<point x="386" y="460"/>
			<point x="410" y="451"/>
			<point x="430" y="420" type="curve"/>
			<point x="437" y="440" type="line"/>
			<point x="421" y="471"/>
			<point x="396" y="483"/>
			<point x="363" y="483" type="curve" smooth="yes"/>
			<point x="215" y="483"/>
			<point x="64" y="282"/>
			<point x="64" y="116" type="curve" smooth="yes"/>
			<point x="64" y="18"/>
			<point x="112" y="-13"/>
		</contour>
		<contour>
			<point name="aboveLC" x="348" y="500" type="move"/>
		</contour>
		<contour>
			<point name="belowLC" x="237" y="-22" type="move"/>
		</contour>
		<contour>
			<point name="ogonek" x="416" y="0" type="move"/>
		</contour>
	</outline>
</glyph>
<glyph name="b" format="1">
	<unicode hex="0062"/>
	<advance width="488"/>
	<outline>
		<contour>
			<point x="163" y="-13" type="curve" smooth="yes"/>
			<point x="314" y="-13"/>
			<point x="471" y="188"/>
			<point x="471" y="364" type="curve" smooth="yes"/>
			<point x="471" y="452"/>
			<point x="435" y="483"/>
			<point x="381" y="483" type="curve" smooth="yes"/>
			<point x="301" y="483"/>
			<point x="189" y="400"/>
			<point x="126" y="297" type="curve"/>
			<point x="130" y="292" type="line"/>
			<point x="220" y="391"/>
			<point x="301" y="458"/>
			<point x="376" y="458" type="curve" smooth="yes"/>
			<point x="418" y="458"/>
			<point x="443" y="428"/>
			<point x="443" y="356" type="curve" smooth="yes"/>
			<point x="443" y="242"/>
			<point x="377" y="111"/>
			<point x="284" y="48" type="curve" smooth="yes"/>
			<point x="249" y="24"/>
			<point x="210" y="10"/>
			<point x="170" y="10" type="curve" smooth="yes"/>
			<point x="127" y="10"/>
			<point x="104" y="42"/>
			<point x="104" y="79" type="curve" smooth="yes"/>
			<point x="104" y="105"/>
			<point x="108" y="130"/>
			<point x="124" y="205" type="curve" smooth="yes"/>
			<point x="236" y="738" type="line"/>
			<point x="226" y="748" type="line"/>
			<point x="85" y="733" type="line"/>
			<point x="82" y="719" type="line"/>
			<point x="211" y="717" type="line"/>
			<point x="209" y="724" type="line"/>
			<point x="97" y="207" type="line" smooth="yes"/>
			<point x="87" y="162"/>
			<point x="76" y="113"/>
			<point x="76" y="79" type="curve" smooth="yes"/>
			<point x="76" y="6"/>
			<point x="119" y="-13"/>
		</contour>
	</outline>
</glyph>
<glyph name="c" format="1">
	<unicode hex="0063"/>
	<advance width="422"/>
	<outline>
		<contour>
			<point x="193" y="-13" type="curve" smooth="yes"/>
			<point x="270" y="-13"/>
			<point x="331" y="37"/>
			<point x="381" y="120" type="curve"/>
			<point x="370" y="127" type="line"/>
			<point x="322" y="54"/>
			<point x="268" y="12"/>
			<point x="198" y="12" type="curve" smooth="yes"/>
			<point x="123" y="12"/>
			<point x="87" y="61"/>
			<point x="87" y="159" type="curve" smooth="yes"/>
			<point x="87" y="297"/>
			<point x="213" y="470"/>
			<point x="344" y="467" type="curve"/>
			<point x="328" y="470" type="line"/>
			<point x="373" y="425" type="line" smooth="yes"/>
			<point x="387" y="411"/>
			<point x="391" y="408"/>
			<point x="400" y="408" type="curve" smooth="yes"/>
			<point x="410" y="408"/>
			<point x="420" y="416"/>
			<point x="419" y="425" type="curve"/>
			<point x="412" y="453"/>
			<point x="376" y="483"/>
			<point x="329" y="483" type="curve" smooth="yes"/>
			<point x="210" y="483"/>
			<point x="61" y="318"/>
			<point x="61" y="149" type="curve" smooth="yes"/>
			<point x="61" y="34"/>
			<point x="113" y="-13"/>
		</contour>
		<contour>
			<point name="aboveLC" x="339" y="500" type="move"/>
		</contour>
		<contour>
			<point name="belowLC" x="185" y="-22" type="move"/>
		</contour>
		<contour>
			<point name="baseLC" x="196" y="0" type="move"/>
		</contour>
	</outline>
</glyph>
<glyph name="d" format="1">
	<unicode hex="0064"/>
	<advance width="537"/>
	<outline>
		<contour>
			<point x="350" y="99" type="line"/>
			<point x="344" y="68"/>
			<point x="341" y="54"/>
			<point x="341" y="33" type="curve" smooth="yes"/>
			<point x="341" y="4"/>
			<point x="358" y="-13"/>
			<point x="382" y="-13" type="curve" smooth="yes"/>
			<point x="447" y="-13"/>
			<point x="498" y="41"/>
			<point x="545" y="119" type="curve"/>
			<point x="534" y="127" type="line"/>
			<point x="490" y="60"/>
			<point x="438" y="13"/>
			<point x="395" y="13" type="curve" smooth="yes"/>
			<point x="378" y="13"/>
			<point x="367" y="21"/>
			<point x="367" y="38" type="curve" smooth="yes"/>
			<point x="367" y="56"/>
			<point x="372" y="80"/>
			<point x="376" y="99" type="curve" smooth="yes"/>
			<point x="503" y="738" type="line"/>
			<point x="493" y="748" type="line"/>
			<point x="354" y="733" type="line"/>
			<point x="351" y="719" type="line"/>
			<point x="480" y="717" type="line"/>
			<point x="473" y="724" type="line"/>
		</contour>
		<contour>
			<point x="133" y="-13" type="curve" smooth="yes"/>
			<point x="213" y="-13"/>
			<point x="309" y="76"/>
			<point x="378" y="173" type="curve"/>
			<point x="374" y="181" type="line"/>
			<point x="284" y="82"/>
			<point x="213" y="12"/>
			<point x="138" y="12" type="curve" smooth="yes"/>
			<point x="96" y="12"/>
			<point x="71" y="42"/>
			<point x="71" y="114" type="curve" smooth="yes"/>
			<point x="71" y="197"/>
			<point x="107" y="288"/>
			<point x="162" y="357" type="curve" smooth="yes"/>
			<point x="212" y="418"/>
			<point x="278" y="460"/>
			<point x="348" y="460" type="curve" smooth="yes"/>
			<point x="372" y="460"/>
			<point x="400" y="451"/>
			<point x="427" y="427" type="curve"/>
			<point x="434" y="447" type="line"/>
			<point x="411" y="473"/>
			<point x="387" y="483"/>
			<point x="355" y="483" type="curve" smooth="yes"/>
			<point x="204" y="483"/>
			<point x="43" y="282"/>
			<point x="43" y="106" type="curve" smooth="yes"/>
			<point x="43" y="18"/>
			<point x="79" y="-13"/>
		</contour>
		<contour>
			<point name="aboveLC" x="468" y="730" type="move"/>
		</contour>
		<contour>
			<point name="belowLC" x="272" y="-22" type="move"/>
		</contour>
	</outline>
</glyph>
<glyph name="e" format="1">
	<unicode hex="0065"/>
	<advance width="422"/>
	<outline>
		<contour>
			<point x="193" y="-13" type="curve" smooth="yes"/>
			<point x="270" y="-13"/>
			<point x="331" y="37"/>
			<point x="381" y="120" type="curve"/>
			<point x="370" y="127" type="line"/>
			<point x="322" y="54"/>
			<point x="268" y="12"/>
			<point x="198" y="12" type="curve" smooth="yes"/>
			<point x="123" y="12"/>
			<point x="87" y="61"/>
			<point x="87" y="159" type="curve" smooth="yes"/>
			<point x="87" y="297"/>
			<point x="215" y="464"/>
			<point x="327" y="464" type="curve" smooth="yes"/>
			<point x="359" y="464"/>
			<point x="384" y="449"/>
			<point x="384" y="412" type="curve" smooth="yes"/>
			<point x="384" y="328"/>
			<point x="272" y="246"/>
			<point x="73" y="183" type="curve"/>
			<point x="74" y="167" type="line"/>
			<point x="284" y="230"/>
			<point x="408" y="321"/>
			<point x="408" y="415" type="curve" smooth="yes"/>
			<point x="408" y="462"/>
			<point x="375" y="483"/>
			<point x="336" y="483" type="curve" smooth="yes"/>
			<point x="198" y="483"/>
			<point x="61" y="305"/>
			<point x="61" y="149" type="curve" smooth="yes"/>
			<point x="61" y="34"/>
			<point x="113" y="-13"/>
		</contour>
		<contour>
			<point name="aboveLC" x="318" y="500" type="move"/>
		</contour>
		<contour>
			<point name="belowLC" x="191" y="-22" type="move"/>
		</contour>
		<contour>
			<point name="ogonek" x="254" y="0" type="move"/>
		</contour>
	</outline>
</glyph>
<glyph name="f" format="1">
	<unicode hex="0066"/>
	<advance width="327"/>
	<outline>
		<contour>
			<point x="397" y="758" type="curve" smooth="yes"/>
			<point x="373" y="758"/>
			<point x="352" y="753"/>
			<point x="328" y="740" type="curve" smooth="yes"/>
			<point x="257" y="702"/>
			<point x="218" y="630"/>
			<point x="199" y="502" type="curve" smooth="yes"/>
			<point x="176" y="348"/>
			<point x="158" y="195"/>
			<point x="133" y="41" type="curve" smooth="yes"/>
			<point x="114" y="-78"/>
			<point x="95" y="-134"/>
			<point x="48" y="-183" type="curve" smooth="yes"/>
			<point x="14" y="-219"/>
			<point x="-16" y="-235"/>
			<point x="-73" y="-239" type="curve"/>
			<point x="-60" y="-242" type="line"/>
			<point x="-100" y="-197" type="line" smooth="yes"/>
			<point x="-114" y="-182"/>
			<point x="-119" y="-180"/>
			<point x="-129" y="-180" type="curve" smooth="yes"/>
			<point x="-139" y="-180"/>
			<point x="-147" y="-186"/>
			<point x="-148" y="-200" type="curve"/>
			<point x="-141" y="-224"/>
			<point x="-107" y="-255"/>
			<point x="-61" y="-255" type="curve" smooth="yes"/>
			<point x="-17" y="-255"/>
			<point x="19" y="-238"/>
			<point x="58" y="-202" type="curve" smooth="yes"/>
			<point x="118" y="-147"/>
			<point x="135" y="-77"/>
			<point x="155" y="41" type="curve" smooth="yes"/>
			<point x="181" y="196"/>
			<point x="201" y="349"/>
			<point x="225" y="502" type="curve" smooth="yes"/>
			<point x="246" y="633"/>
			<point x="281" y="692"/>
			<point x="337" y="723" type="curve" smooth="yes"/>
			<point x="359" y="735"/>
			<point x="379" y="740"/>
			<point x="416" y="740" type="curve"/>
			<point x="404" y="745" type="line"/>
			<point x="446" y="700" type="line" smooth="yes"/>
			<point x="460" y="686"/>
			<point x="464" y="683"/>
			<point x="473" y="683" type="curve" smooth="yes"/>
			<point x="483" y="683"/>
			<point x="494" y="691"/>
			<point x="493" y="700" type="curve"/>
			<point x="486" y="728"/>
			<point x="452" y="758"/>
		</contour>
		<contour>
			<point x="59" y="454" type="line"/>
			<point x="199" y="456" type="line"/>
			<point x="358" y="451" type="line"/>
			<point x="362" y="476" type="line"/>
			<point x="199" y="476" type="line"/>
			<point x="199" y="479" type="line"/>
			<point x="62" y="468" type="line"/>
		</contour>
		<contour>
			<point name="aboveLC" x="370" y="740" type="move"/>
		</contour>
		<contour>
			<point name="belowLC" x="-28" y="-252" type="move"/>
		</contour>
	</outline>
</glyph>
<glyph name="g" format="1">
	<unicode hex="0067"/>
	<advance width="446"/>
	<outline>
		<contour>
			<point x="-14" y="-125" type="curve" smooth="yes"/>
			<point x="-14" y="-204"/>
			<point x="50" y="-245"/>
			<point x="156" y="-245" type="curve" smooth="yes"/>
			<point x="306" y="-245"/>
			<point x="400" y="-156"/>
			<point x="400" y="-77" type="curve" smooth="yes"/>
			<point x="400" y="-27"/>
			<point x="372" y="10"/>
			<point x="272" y="24" type="curve" smooth="yes"/>
			<point x="139" y="43" type="line" smooth="yes"/>
			<point x="97" y="49"/>
			<point x="82" y="67"/>
			<point x="82" y="95" type="curve" smooth="yes"/>
			<point x="82" y="117"/>
			<point x="91" y="146"/>
			<point x="140" y="182" type="curve"/>
			<point x="132" y="191" type="line"/>
			<point x="83" y="159"/>
			<point x="59" y="122"/>
			<point x="59" y="86" type="curve" smooth="yes"/>
			<point x="59" y="59"/>
			<point x="74" y="27"/>
			<point x="137" y="18" type="curve" smooth="yes"/>
			<point x="259" y="1" type="line" smooth="yes"/>
			<point x="355" y="-12"/>
			<point x="373" y="-38"/>
			<point x="373" y="-84" type="curve" smooth="yes"/>
			<point x="373" y="-167"/>
			<point x="277" y="-225"/>
			<point x="161" y="-225" type="curve" smooth="yes"/>
			<point x="63" y="-225"/>
			<point x="14" y="-183"/>
			<point x="14" y="-120" type="curve" smooth="yes"/>
			<point x="14" y="-50"/>
			<point x="62" y="-10"/>
			<point x="144" y="29" type="curve"/>
			<point x="135" y="36" type="line"/>
			<point x="57" y="8"/>
			<point x="-14" y="-45"/>
		</contour>
		<contour>
			<point x="221" y="147" type="curve" smooth="yes"/>
			<point x="309" y="147"/>
			<point x="395" y="225"/>
			<point x="395" y="345" type="curve" smooth="yes"/>
			<point x="395" y="431"/>
			<point x="347" y="483"/>
			<point x="267" y="483" type="curve" smooth="yes"/>
			<point x="174" y="483"/>
			<point x="91" y="398"/>
			<point x="91" y="285" type="curve" smooth="yes"/>
			<point x="91" y="194"/>
			<point x="145" y="147"/>
		</contour>
		<contour>
			<point x="117" y="293" type="curve" smooth="yes"/>
			<point x="117" y="390"/>
			<point x="186" y="463"/>
			<point x="263" y="463" type="curve" smooth="yes"/>
			<point x="338" y="463"/>
			<point x="371" y="413"/>
			<point x="371" y="339" type="curve" smooth="yes"/>
			<point x="371" y="249"/>
			<point x="309" y="167"/>
			<point x="225" y="167" type="curve" smooth="yes"/>
			<point x="152" y="167"/>
			<point x="117" y="212"/>
		</contour>
		<contour>
			<point x="377" y="393" type="line"/>
			<point x="395" y="427"/>
			<point x="415" y="449"/>
			<point x="437" y="466" type="curve"/>
			<point x="411" y="455" type="line"/>
			<point x="428" y="453" type="line" smooth="yes"/>
			<point x="436" y="452"/>
			<point x="456" y="450"/>
			<point x="462" y="450" type="curve" smooth="yes"/>
			<point x="491" y="450"/>
			<point x="505" y="462"/>
			<point x="505" y="477" type="curve"/>
			<point x="500" y="487"/>
			<point x="491" y="493"/>
			<point x="475" y="493" type="curve" smooth="yes"/>
			<point x="423" y="493"/>
			<point x="398" y="459"/>
			<point x="367" y="403" type="curve"/>
		</contour>
	</outline>
</glyph>
<glyph name="h" format="1">
	<unicode hex="0068"/>
	<advance width="536"/>
	<outline>
		<contour>
			<point x="59" y="0" type="line"/>
			<point x="86" y="0" type="line"/>
			<point x="99" y="69"/>
			<point x="113" y="138"/>
			<point x="127" y="207" type="curve" smooth="yes"/>
			<point x="235" y="738" type="line"/>
			<point x="225" y="748" type="line"/>
			<point x="84" y="723" type="line"/>
			<point x="81" y="709" type="line"/>
			<point x="210" y="717" type="line"/>
			<point x="203" y="724" type="line"/>
			<point x="191" y="655"/>
			<point x="178" y="586"/>
			<point x="164" y="517" type="curve" smooth="yes"/>
		</contour>
		<contour>
			<point x="375" y="-13" type="curve" smooth="yes"/>
			<point x="440" y="-13"/>
			<point x="493" y="41"/>
			<point x="540" y="119" type="curve"/>
			<point x="529" y="127" type="line"/>
			<point x="485" y="60"/>
			<point x="431" y="13"/>
			<point x="388" y="13" type="curve" smooth="yes"/>
			<point x="371" y="13"/>
			<point x="360" y="21"/>
			<point x="360" y="38" type="curve" smooth="yes"/>
			<point x="360" y="56"/>
			<point x="367" y="80"/>
			<point x="371" y="99" type="curve" smooth="yes"/>
			<point x="423" y="321" type="line" smooth="yes"/>
			<point x="432" y="361"/>
			<point x="440" y="388"/>
			<point x="440" y="419" type="curve" smooth="yes"/>
			<point x="440" y="458"/>
			<point x="419" y="483"/>
			<point x="375" y="483" type="curve" smooth="yes"/>
			<point x="320" y="483"/>
			<point x="220" y="430"/>
			<point x="141" y="344" type="curve"/>
			<point x="161" y="356" type="line"/>
			<point x="137" y="356" type="line"/>
			<point x="129" y="326" type="line"/>
			<point x="139" y="326" type="line"/>
			<point x="249" y="425"/>
			<point x="314" y="458"/>
			<point x="369" y="458" type="curve" smooth="yes"/>
			<point x="397" y="458"/>
			<point x="412" y="445"/>
			<point x="412" y="414" type="curve" smooth="yes"/>
			<point x="412" y="388"/>
			<point x="404" y="356"/>
			<point x="397" y="324" type="curve" smooth="yes"/>
			<point x="345" y="99" type="line" smooth="yes"/>
			<point x="338" y="68"/>
			<point x="333" y="54"/>
			<point x="333" y="28" type="curve" smooth="yes"/>
			<point x="333" y="4"/>
			<point x="351" y="-13"/>
		</contour>
	</outline>
</glyph>
<glyph name="i" format="1">
	<unicode hex="0069"/>
	<advance width="291"/>
	<outline>
		<contour>
			<point x="85" y="32" type="curve" smooth="yes"/>
			<point x="85" y="4"/>
			<point x="104" y="-13"/>
			<point x="129" y="-13" type="curve" smooth="yes"/>
			<point x="193" y="-13"/>
			<point x="244" y="43"/>
			<point x="290" y="121" type="curve"/>
			<point x="279" y="129" type="line"/>
			<point x="235" y="62"/>
			<point x="184" y="13"/>
			<point x="141" y="13" type="curve" smooth="yes"/>
			<point x="124" y="13"/>
			<point x="112" y="21"/>
			<point x="112" y="38" type="curve" smooth="yes"/>
			<point x="112" y="56"/>
			<point x="118" y="85"/>
			<point x="122" y="104" type="curve" smooth="yes"/>
			<point x="203" y="473" type="line"/>
			<point x="190" y="483" type="line"/>
			<point x="50" y="468" type="line"/>
			<point x="47" y="454" type="line"/>
			<point x="176" y="452" type="line"/>
			<point x="172" y="459" type="line"/>
			<point x="96" y="104" type="line" smooth="yes"/>
			<point x="89" y="73"/>
			<point x="85" y="54"/>
		</contour>
		<contour>
			<point x="217" y="646" type="curve" smooth="yes"/>
			<point x="232" y="646"/>
			<point x="250" y="659"/>
			<point x="250" y="682" type="curve" smooth="yes"/>
			<point x="250" y="699"/>
			<point x="237" y="709"/>
			<point x="221" y="709" type="curve" smooth="yes"/>
			<point x="206" y="709"/>
			<point x="188" y="696"/>
			<point x="188" y="674" type="curve" smooth="yes"/>
			<point x="188" y="655"/>
			<point x="202" y="646"/>
		</contour>
		<contour>
			<point name="aboveLC" x="212" y="687" type="move"/>
		</contour>
		<contour>
			<point name="belowLC" x="134" y="-22" type="move"/>
		</contour>
		<contour>
			<point name="ogonek" x="176" y="0" type="move"/>
		</contour>
	</outline>
</glyph>
<glyph name="j" format="1">
	<unicode hex="006A"/>
	<advance width="257"/>
	<outline>
		<contour>
			<point x="217" y="646" type="curve" smooth="yes"/>
			<point x="232" y="646"/>
			<point x="250" y="659"/>
			<point x="250" y="682" type="curve" smooth="yes"/>
			<point x="250" y="699"/>
			<point x="237" y="709"/>
			<point x="221" y="709" type="curve" smooth="yes"/>
			<point x="206" y="709"/>
			<point x="188" y="696"/>
			<point x="188" y="674" type="curve" smooth="yes"/>
			<point x="188" y="655"/>
			<point x="202" y="646"/>
		</contour>
		<contour>
			<point x="-85" y="-249" type="line"/>
			<point x="-52" y="-244"/>
			<point x="-21" y="-231"/>
			<point x="11" y="-202" type="curve" smooth="yes"/>
			<point x="74" y="-144"/>
			<point x="96" y="-77"/>
			<point x="118" y="37" type="curve" smooth="yes"/>
			<point x="203" y="473" type="line"/>
			<point x="190" y="483" type="line"/>
			<point x="50" y="468" type="line"/>
			<point x="47" y="454" type="line"/>
			<point x="186" y="452" type="line"/>
			<point x="177" y="470" type="line"/>
			<point x="96" y="44" type="line" smooth="yes"/>
			<point x="74" y="-70"/>
			<point x="50" y="-127"/>
			<point x="11" y="-171" type="curve" smooth="yes"/>
			<point x="-22" y="-209"/>
			<point x="-53" y="-225"/>
			<point x="-88" y="-234" type="curve"/>
		</contour>
		<contour>
			<point name="aboveLC" x="223" y="687" type="move"/>
		</contour>
		<contour>
			<point name="belowLC" x="-43" y="-248" type="move"/>
		</contour>
	</outline>
</glyph>
<glyph name="k" format="1">
	<unicode hex="006B"/>
	<advance width="469"/>
	<outline>
		<contour>
			<point x="62" y="0" type="line"/>
			<point x="89" y="0" type="line"/>
			<point x="102" y="69"/>
			<point x="116" y="138"/>
			<point x="130" y="207" type="curve" smooth="yes"/>
			<point x="238" y="738" type="line"/>
			<point x="228" y="748" type="line"/>
			<point x="87" y="733" type="line"/>
			<point x="84" y="719" type="line"/>
			<point x="213" y="717" type="line"/>
			<point x="206" y="724" type="line"/>
			<point x="194" y="655"/>
			<point x="181" y="586"/>
			<point x="167" y="517" type="curve" smooth="yes"/>
		</contour>
		<contour>
			<point x="452" y="-2" type="curve"/>
			<point x="453" y="12" type="line"/>
			<point x="400" y="13" type="line" smooth="yes"/>
			<point x="371" y="14"/>
			<point x="350" y="23"/>
			<point x="342" y="52" type="curve" smooth="yes"/>
			<point x="312" y="163" type="line" smooth="yes"/>
			<point x="294" y="228"/>
			<point x="261" y="243"/>
			<point x="179" y="254" type="curve" smooth="yes"/>
			<point x="135" y="260" type="line"/>
			<point x="132" y="246" type="line"/>
			<point x="182" y="237" type="line" smooth="yes"/>
			<point x="236" y="227"/>
			<point x="271" y="222"/>
			<point x="287" y="162" type="curve" smooth="yes"/>
			<point x="317" y="51" type="line" smooth="yes"/>
			<point x="328" y="9"/>
			<point x="348" y="-10"/>
			<point x="397" y="-10" type="curve" smooth="yes"/>
			<point x="413" y="-10"/>
			<point x="431" y="-7"/>
		</contour>
		<contour>
			<point x="134" y="266" type="line"/>
			<point x="140" y="253" type="line"/>
			<point x="433" y="447" type="line" smooth="yes"/>
			<point x="446" y="455"/>
			<point x="448" y="461"/>
			<point x="448" y="469" type="curve" smooth="yes"/>
			<point x="448" y="475"/>
			<point x="441" y="483"/>
			<point x="432" y="484" type="curve"/>
		</contour>
		<contour>
			<point name="aboveLC" x="224" y="730" type="move"/>
		</contour>
		<contour>
			<point name="belowLC" x="222" y="-22" type="move"/>
		</contour>
	</outline>
</glyph>
<glyph name="l" format="1">
	<unicode hex="006C"/>
	<advance width="280"/>
	<outline>
		<contour>
			<point x="115" y="-13" type="curve" smooth="yes"/>
			<point x="180" y="-13"/>
			<point x="231" y="41"/>
			<point x="278" y="119" type="curve"/>
			<point x="267" y="127" type="line"/>
			<point x="223" y="60"/>
			<point x="171" y="13"/>
			<point x="128" y="13" type="curve" smooth="yes"/>
			<point x="111" y="13"/>
			<point x="100" y="21"/>
			<point x="100" y="38" type="curve" smooth="yes"/>
			<point x="100" y="56"/>
			<point x="105" y="80"/>
			<point x="109" y="99" type="curve" smooth="yes"/>
			<point x="238" y="738" type="line"/>
			<point x="228" y="748" type="line"/>
			<point x="87" y="733" type="line"/>
			<point x="84" y="719" type="line"/>
			<point x="213" y="717" type="line"/>
			<point x="206" y="724" type="line"/>
			<point x="194" y="655"/>
			<point x="181" y="586"/>
			<point x="167" y="517" type="curve" smooth="yes"/>
			<point x="83" y="99" type="line" smooth="yes"/>
			<point x="77" y="68"/>
			<point x="74" y="54"/>
			<point x="74" y="33" type="curve" smooth="yes"/>
			<point x="74" y="4"/>
			<point x="91" y="-13"/>
		</contour>
		<contour>
			<point name="aboveLC" x="215" y="730" type="move"/>
		</contour>
		<contour>
			<point name="belowLC" x="109" y="-22" type="move"/>
		</contour>
	</outline>
</glyph>
<glyph name="m" format="1">
	<unicode hex="006D"/>
	<advance width="801"/>
	<outline>
		<contour>
			<point x="657" y="-13" type="curve" smooth="yes"/>
			<point x="712" y="-13"/>
			<point x="756" y="32"/>
			<point x="798" y="92" type="curve"/>
			<point x="788" y="100" type="line"/>
			<point x="746" y="47"/>
			<point x="705" y="13"/>
			<point x="671" y="13" type="curve" smooth="yes"/>
			<point x="652" y="13"/>
			<point x="642" y="20"/>
			<point x="642" y="38" type="curve" smooth="yes"/>
			<point x="642" y="56"/>
			<point x="649" y="80"/>
			<point x="653" y="99" type="curve" smooth="yes"/>
			<point x="705" y="321" type="line" smooth="yes"/>
			<point x="714" y="361"/>
			<point x="723" y="388"/>
			<point x="723" y="419" type="curve" smooth="yes"/>
			<point x="723" y="458"/>
			<point x="702" y="483"/>
			<point x="658" y="483" type="curve" smooth="yes"/>
			<point x="603" y="483"/>
			<point x="519" y="434"/>
			<point x="440" y="348" type="curve"/>
			<point x="438" y="330" type="line"/>
			<point x="548" y="429"/>
			<point x="597" y="458"/>
			<point x="652" y="458" type="curve" smooth="yes"/>
			<point x="680" y="458"/>
			<point x="695" y="445"/>
			<point x="695" y="414" type="curve" smooth="yes"/>
			<point x="695" y="388"/>
			<point x="686" y="356"/>
			<point x="679" y="324" type="curve" smooth="yes"/>
			<point x="627" y="99" type="line" smooth="yes"/>
			<point x="620" y="68"/>
			<point x="615" y="54"/>
			<point x="615" y="28" type="curve" smooth="yes"/>
			<point x="615" y="4"/>
			<point x="633" y="-13"/>
		</contour>
		<contour>
			<point x="115" y="0" type="line"/>
			<point x="129" y="69"/>
			<point x="142" y="138"/>
			<point x="158" y="207" type="curve" smooth="yes"/>
			<point x="190" y="351" type="line"/>
			<point x="214" y="473" type="line"/>
			<point x="201" y="483" type="line"/>
			<point x="63" y="468" type="line"/>
			<point x="60" y="454" type="line"/>
			<point x="189" y="452" type="line"/>
			<point x="185" y="459" type="line"/>
			<point x="88" y="0" type="line"/>
			<point x="94" y="-5" type="line"/>
		</contour>
		<contour>
			<point x="379" y="0" type="line"/>
			<point x="393" y="69"/>
			<point x="407" y="138"/>
			<point x="422" y="207" type="curve" smooth="yes"/>
			<point x="443" y="302" type="line" smooth="yes"/>
			<point x="452" y="342"/>
			<point x="465" y="393"/>
			<point x="465" y="421" type="curve" smooth="yes"/>
			<point x="465" y="458"/>
			<point x="444" y="483"/>
			<point x="400" y="483" type="curve" smooth="yes"/>
			<point x="345" y="483"/>
			<point x="253" y="430"/>
			<point x="174" y="344" type="curve"/>
			<point x="172" y="326" type="line"/>
			<point x="282" y="425"/>
			<point x="339" y="458"/>
			<point x="394" y="458" type="curve" smooth="yes"/>
			<point x="422" y="458"/>
			<point x="437" y="445"/>
			<point x="437" y="414" type="curve" smooth="yes"/>
			<point x="437" y="388"/>
			<point x="428" y="356"/>
			<point x="421" y="324" type="curve" smooth="yes"/>
			<point x="352" y="0" type="line"/>
			<point x="358" y="-5" type="line"/>
		</contour>
		<contour>
			<point name="aboveLC" x="448" y="500" type="move"/>
		</contour>
		<contour>
			<point name="belowLC" x="357" y="-22" type="move"/>
		</contour>
	</outline>
</glyph>
<glyph name="n" format="1">
	<unicode hex="006E"/>
	<advance width="552"/>
	<outline>
		<contour>
			<point x="366" y="28" type="curve" smooth="yes"/>
			<point x="366" y="4"/>
			<point x="384" y="-13"/>
			<point x="408" y="-13" type="curve" smooth="yes"/>
			<point x="463" y="-13"/>
			<point x="507" y="32"/>
			<point x="549" y="92" type="curve"/>
			<point x="539" y="100" type="line"/>
			<point x="497" y="47"/>
			<point x="456" y="13"/>
			<point x="422" y="13" type="curve" smooth="yes"/>
			<point x="403" y="13"/>
			<point x="393" y="20"/>
			<point x="393" y="38" type="curve" smooth="yes"/>
			<point x="393" y="56"/>
			<point x="400" y="80"/>
			<point x="404" y="99" type="curve" smooth="yes"/>
			<point x="456" y="321" type="line" smooth="yes"/>
			<point x="465" y="361"/>
			<point x="473" y="388"/>
			<point x="473" y="419" type="curve" smooth="yes"/>
			<point x="473" y="458"/>
			<point x="452" y="483"/>
			<point x="408" y="483" type="curve" smooth="yes"/>
			<point x="353" y="483"/>
			<point x="253" y="430"/>
			<point x="174" y="344" type="curve"/>
			<point x="172" y="326" type="line"/>
			<point x="282" y="425"/>
			<point x="347" y="458"/>
			<point x="402" y="458" type="curve" smooth="yes"/>
			<point x="430" y="458"/>
			<point x="445" y="445"/>
			<point x="445" y="414" type="curve" smooth="yes"/>
			<point x="445" y="388"/>
			<point x="437" y="356"/>
			<point x="430" y="324" type="curve" smooth="yes"/>
			<point x="378" y="99" type="line" smooth="yes"/>
			<point x="371" y="68"/>
			<point x="366" y="54"/>
		</contour>
		<contour>
			<point x="115" y="0" type="line"/>
			<point x="129" y="69"/>
			<point x="142" y="138"/>
			<point x="158" y="207" type="curve" smooth="yes"/>
			<point x="190" y="351" type="line"/>
			<point x="214" y="473" type="line"/>
			<point x="201" y="483" type="line"/>
			<point x="63" y="468" type="line"/>
			<point x="60" y="454" type="line"/>
			<point x="189" y="452" type="line"/>
			<point x="185" y="459" type="line"/>
			<point x="88" y="0" type="line"/>
			<point x="94" y="-5" type="line"/>
		</contour>
		<contour>
			<point name="aboveLC" x="321" y="500" type="move"/>
		</contour>
		<contour>
			<point name="belowLC" x="250" y="-22" type="move"/>
		</contour>
	</outline>
</glyph>
<glyph name="o" format="1">
	<unicode hex="006F"/>
	<advance width="475"/>
	<outline>
		<contour>
			<point x="210" y="-13" type="curve" smooth="yes"/>
			<point x="357" y="-13"/>
			<point x="444" y="170"/>
			<point x="444" y="295" type="curve" smooth="yes"/>
			<point x="444" y="430"/>
			<point x="373" y="483"/>
			<point x="292" y="483" type="curve" smooth="yes"/>
			<point x="146" y="483"/>
			<point x="58" y="313"/>
			<point x="58" y="172" type="curve" smooth="yes"/>
			<point x="58" y="42"/>
			<point x="128" y="-13"/>
		</contour>
		<contour>
			<point x="211" y="7" type="curve" smooth="yes"/>
			<point x="130" y="7"/>
			<point x="86" y="69"/>
			<point x="86" y="174" type="curve" smooth="yes"/>
			<point x="86" y="305"/>
			<point x="165" y="463"/>
			<point x="288" y="463" type="curve" smooth="yes"/>
			<point x="365" y="463"/>
			<point x="416" y="409"/>
			<point x="416" y="292" type="curve" smooth="yes"/>
			<point x="416" y="200"/>
			<point x="361" y="7"/>
		</contour>
		<contour>
			<point name="aboveLC" x="296" y="500" type="move"/>
		</contour>
		<contour>
			<point name="belowLC" x="206" y="-22" type="move"/>
		</contour>
		<contour>
			<point name="hornLC" x="454" y="488" type="move"/>
		</contour>
		<contour>
			<point name="ogonek" x="275" y="0" type="move"/>
		</contour>
	</outline>
</glyph>
<glyph name="p" format="1">
	<unicode hex="0070"/>
	<advance width="514"/>
	<outline>
		<contour>
			<point x="22" y="-245" type="line"/>
			<point x="49" y="-245" type="line"/>
			<point x="63" y="-176"/>
			<point x="77" y="-107"/>
			<point x="92" y="-38" type="curve"/>
			<point x="204" y="473" type="line"/>
			<point x="191" y="483" type="line"/>
			<point x="50" y="468" type="line"/>
			<point x="47" y="454" type="line"/>
			<point x="176" y="452" type="line"/>
			<point x="172" y="459" type="line"/>
		</contour>
		<contour>
			<point x="91" y="23" type="line"/>
			<point x="116" y="-3"/>
			<point x="152" y="-13"/>
			<point x="184" y="-13" type="curve" smooth="yes"/>
			<point x="333" y="-13"/>
			<point x="487" y="188"/>
			<point x="487" y="364" type="curve" smooth="yes"/>
			<point x="487" y="452"/>
			<point x="451" y="483"/>
			<point x="397" y="483" type="curve" smooth="yes"/>
			<point x="319" y="483"/>
			<point x="210" y="399"/>
			<point x="147" y="297" type="curve"/>
			<point x="151" y="292" type="line"/>
			<point x="240" y="390"/>
			<point x="319" y="458"/>
			<point x="392" y="458" type="curve" smooth="yes"/>
			<point x="434" y="458"/>
			<point x="459" y="428"/>
			<point x="459" y="356" type="curve" smooth="yes"/>
			<point x="459" y="274"/>
			<point x="426" y="184"/>
			<point x="373" y="116" type="curve" smooth="yes"/>
			<point x="325" y="53"/>
			<point x="260" y="10"/>
			<point x="191" y="10" type="curve" smooth="yes"/>
			<point x="167" y="10"/>
			<point x="127" y="19"/>
			<point x="98" y="43" type="curve"/>
		</contour>
		<contour>
			<point x="-66" y="-245" type="line"/>
			<point x="157" y="-245" type="line"/>
			<point x="160" y="-225" type="line"/>
			<point x="47" y="-219" type="line"/>
			<point x="38" y="-219" type="line"/>
			<point x="-63" y="-225" type="line"/>
		</contour>
		<contour>
			<point name="aboveLC" x="314" y="500" type="move"/>
		</contour>
		<contour>
			<point name="belowLC" x="33" y="-248" type="move"/>
		</contour>
	</outline>
</glyph>
<glyph name="q" format="1">
	<unicode hex="0071"/>
	<advance width="479"/>
	<outline>
		<contour>
			<point x="133" y="-13" type="curve" smooth="yes"/>
			<point x="213" y="-13"/>
			<point x="309" y="76"/>
			<point x="378" y="173" type="curve"/>
			<point x="374" y="181" type="line"/>
			<point x="284" y="82"/>
			<point x="213" y="12"/>
			<point x="138" y="12" type="curve" smooth="yes"/>
			<point x="96" y="12"/>
			<point x="71" y="42"/>
			<point x="71" y="114" type="curve" smooth="yes"/>
			<point x="71" y="208"/>
			<point x="118" y="314"/>
			<point x="187" y="384" type="curve" smooth="yes"/>
			<point x="233" y="430"/>
			<point x="289" y="460"/>
			<point x="348" y="460" type="curve" smooth="yes"/>
			<point x="372" y="460"/>
			<point x="400" y="451"/>
			<point x="427" y="427" type="curve"/>
			<point x="434" y="447" type="line"/>
			<point x="411" y="473"/>
			<point x="387" y="483"/>
			<point x="355" y="483" type="curve" smooth="yes"/>
			<point x="204" y="483"/>
			<point x="43" y="282"/>
			<point x="43" y="106" type="curve" smooth="yes"/>
			<point x="43" y="18"/>
			<point x="79" y="-13"/>
		</contour>
		<contour>
			<point x="172" y="-245" type="line"/>
			<point x="395" y="-245" type="line"/>
			<point x="398" y="-225" type="line"/>
			<point x="295" y="-219" type="line"/>
			<point x="286" y="-219" type="line"/>
			<point x="175" y="-225" type="line"/>
		</contour>
		<contour>
			<point x="450" y="477" type="line"/>
			<point x="442" y="483" type="line"/>
			<point x="416" y="441" type="line"/>
			<point x="271" y="-245" type="line"/>
			<point x="297" y="-245" type="line"/>
			<point x="311" y="-176"/>
			<point x="325" y="-107"/>
			<point x="340" y="-38" type="curve" smooth="yes"/>
		</contour>
	</outline>
</glyph>
<glyph name="r" format="1">
	<unicode hex="0072"/>
	<advance width="384"/>
	<outline>
		<contour>
			<point x="75" y="0" type="line"/>
			<point x="102" y="0" type="line"/>
			<point x="116" y="69"/>
			<point x="129" y="138"/>
			<point x="145" y="207" type="curve" smooth="yes"/>
			<point x="163" y="288" type="line"/>
			<point x="164" y="292" type="line"/>
			<point x="199" y="473" type="line"/>
			<point x="186" y="483" type="line"/>
			<point x="50" y="468" type="line"/>
			<point x="47" y="454" type="line"/>
			<point x="176" y="452" type="line"/>
			<point x="172" y="459" type="line"/>
		</contour>
		<contour>
			<point x="148" y="273" type="line"/>
			<point x="160" y="274" type="line"/>
			<point x="224" y="384"/>
			<point x="291" y="444"/>
			<point x="339" y="462" type="curve"/>
			<point x="307" y="459" type="line"/>
			<point x="329" y="447" type="line" smooth="yes"/>
			<point x="346" y="438"/>
			<point x="364" y="435"/>
			<point x="380" y="435" type="curve" smooth="yes"/>
			<point x="394" y="435"/>
			<point x="408" y="444"/>
			<point x="408" y="459" type="curve"/>
			<point x="403" y="472"/>
			<point x="386" y="483"/>
			<point x="359" y="483" type="curve" smooth="yes"/>
			<point x="296" y="483"/>
			<point x="204" y="389"/>
			<point x="160" y="297" type="curve"/>
			<point x="175" y="310" type="line"/>
			<point x="157" y="310" type="line"/>
		</contour>
		<contour>
			<point name="aboveLC" x="236" y="500" type="move"/>
		</contour>
		<contour>
			<point name="belowLC" x="84" y="-22" type="move"/>
		</contour>
	</outline>
</glyph>
<glyph name="s" format="1">
	<unicode hex="0073"/>
	<advance width="358"/>
	<outline>
		<contour>
			<point x="106" y="7" type="line"/>
			<point x="82" y="77" type="line" smooth="yes"/>
			<point x="78" y="89"/>
			<point x="71" y="93"/>
			<point x="60" y="93" type="curve" smooth="yes"/>
			<point x="50" y="93"/>
			<point x="43" y="84"/>
			<point x="41" y="73" type="curve"/>
			<point x="60" y="10"/>
			<point x="96" y="-13"/>
			<point x="167" y="-13" type="curve" smooth="yes"/>
			<point x="251" y="-13"/>
			<point x="317" y="33"/>
			<point x="317" y="118" type="curve" smooth="yes"/>
			<point x="317" y="164"/>
			<point x="293" y="198"/>
			<point x="223" y="249" type="curve" smooth="yes"/>
			<point x="170" y="288"/>
			<point x="145" y="310"/>
			<point x="145" y="363" type="curve" smooth="yes"/>
			<point x="145" y="420"/>
			<point x="187" y="463"/>
			<point x="266" y="463" type="curve" smooth="yes"/>
			<point x="288" y="463"/>
			<point x="312" y="456"/>
			<point x="330" y="445" type="curve"/>
			<point x="303" y="472" type="line"/>
			<point x="330" y="414" type="line" smooth="yes"/>
			<point x="337" y="399"/>
			<point x="346" y="396"/>
			<point x="355" y="396" type="curve" smooth="yes"/>
			<point x="364" y="396"/>
			<point x="374" y="404"/>
			<point x="374" y="413" type="curve"/>
			<point x="363" y="451"/>
			<point x="322" y="483"/>
			<point x="261" y="483" type="curve" smooth="yes"/>
			<point x="178" y="483"/>
			<point x="120" y="434"/>
			<point x="120" y="356" type="curve" smooth="yes"/>
			<point x="120" y="303"/>
			<point x="151" y="267"/>
			<point x="210" y="227" type="curve" smooth="yes"/>
			<point x="269" y="187"/>
			<point x="292" y="152"/>
			<point x="292" y="111" type="curve" smooth="yes"/>
			<point x="292" y="52"/>
			<point x="244" y="7"/>
			<point x="167" y="7" type="curve" smooth="yes"/>
			<point x="133" y="7"/>
			<point x="110" y="12"/>
			<point x="85" y="29" type="curve"/>
		</contour>
		<contour>
			<point name="aboveLC" x="250" y="500" type="move"/>
		</contour>
		<contour>
			<point name="belowLC" x="143" y="-22" type="move"/>
		</contour>
		<contour>
			<point name="baseLC" x="147" y="0" type="move"/>
		</contour>
	</outline>
</glyph>
<glyph name="t" format="1">
	<unicode hex="0074"/>
	<advance width="328"/>
	<outline>
		<contour>
			<point x="35" y="454" type="line"/>
			<point x="174" y="456" type="line"/>
			<point x="337" y="451" type="line"/>
			<point x="341" y="476" type="line"/>
			<point x="182" y="476" type="line"/>
			<point x="176" y="479" type="line"/>
			<point x="38" y="468" type="line"/>
		</contour>
		<contour>
			<point x="93" y="99" type="line" smooth="yes"/>
			<point x="86" y="68"/>
			<point x="83" y="54"/>
			<point x="83" y="32" type="curve" smooth="yes"/>
			<point x="83" y="4"/>
			<point x="101" y="-13"/>
			<point x="129" y="-13" type="curve" smooth="yes"/>
			<point x="190" y="-13"/>
			<point x="241" y="43"/>
			<point x="287" y="121" type="curve"/>
			<point x="276" y="129" type="line"/>
			<point x="232" y="62"/>
			<point x="181" y="13"/>
			<point x="138" y="13" type="curve" smooth="yes"/>
			<point x="121" y="13"/>
			<point x="110" y="21"/>
			<point x="110" y="38" type="curve" smooth="yes"/>
			<point x="110" y="56"/>
			<point x="115" y="80"/>
			<point x="119" y="99" type="curve" smooth="yes"/>
			<point x="227" y="609" type="line"/>
			<point x="205" y="609" type="line"/>
			<point x="165" y="443" type="line"/>
		</contour>
		<contour>
			<point name="aboveLC" x="222" y="630" type="move"/>
		</contour>
		<contour>
			<point name="belowLC" x="124" y="-22" type="move"/>
		</contour>
		<contour>
			<point name="baseLC" x="131" y="0" type="move"/>
		</contour>
	</outline>
</glyph>
<glyph name="u" format="1">
	<unicode hex="0075"/>
	<advance width="533"/>
	<outline>
		<contour>
			<point x="133" y="-13" type="curve" smooth="yes"/>
			<point x="207" y="-13"/>
			<point x="271" y="27"/>
			<point x="370" y="129" type="curve"/>
			<point x="368" y="144" type="line"/>
			<point x="259" y="38"/>
			<point x="190" y="14"/>
			<point x="146" y="14" type="curve" smooth="yes"/>
			<point x="113" y="14"/>
			<point x="101" y="32"/>
			<point x="101" y="64" type="curve" smooth="yes"/>
			<point x="101" y="90"/>
			<point x="118" y="165"/>
			<point x="128" y="205" type="curve" smooth="yes"/>
			<point x="193" y="474" type="line"/>
			<point x="180" y="484" type="line"/>
			<point x="49" y="469" type="line"/>
			<point x="46" y="455" type="line"/>
			<point x="165" y="453" type="line"/>
			<point x="163" y="460" type="line"/>
			<point x="98" y="186" type="line" smooth="yes"/>
			<point x="89" y="146"/>
			<point x="74" y="94"/>
			<point x="74" y="60" type="curve" smooth="yes"/>
			<point x="74" y="8"/>
			<point x="94" y="-13"/>
		</contour>
		<contour>
			<point x="344" y="99" type="line" smooth="yes"/>
			<point x="338" y="68"/>
			<point x="334" y="54"/>
			<point x="334" y="29" type="curve" smooth="yes"/>
			<point x="334" y="4"/>
			<point x="352" y="-13"/>
			<point x="377" y="-13" type="curve" smooth="yes"/>
			<point x="441" y="-13"/>
			<point x="492" y="43"/>
			<point x="538" y="121" type="curve"/>
			<point x="527" y="129" type="line"/>
			<point x="483" y="62"/>
			<point x="432" y="13"/>
			<point x="389" y="13" type="curve" smooth="yes"/>
			<point x="372" y="13"/>
			<point x="360" y="21"/>
			<point x="360" y="38" type="curve" smooth="yes"/>
			<point x="360" y="56"/>
			<point x="366" y="80"/>
			<point x="370" y="99" type="curve" smooth="yes"/>
			<point x="449" y="477" type="line"/>
			<point x="441" y="483" type="line"/>
			<point x="419" y="469" type="line"/>
			<point x="407" y="405"/>
			<point x="393" y="340"/>
			<point x="380" y="276" type="curve" smooth="yes"/>
		</contour>
	</outline>
</glyph>
<glyph name="v" format="1">
	<unicode hex="0076"/>
	<advance width="457"/>
	<outline>
		<contour>
			<point x="192" y="-5" type="curve"/>
			<point x="196" y="-8" type="line"/>
			<point x="203" y="-7" type="line"/>
			<point x="310" y="113"/>
			<point x="376" y="218"/>
			<point x="420" y="306" type="curve" smooth="yes"/>
			<point x="456" y="378"/>
			<point x="460" y="422"/>
			<point x="460" y="447" type="curve" smooth="yes"/>
			<point x="460" y="463"/>
			<point x="459" y="470"/>
			<point x="455" y="478" type="curve"/>
			<point x="452" y="481"/>
			<point x="447" y="483"/>
			<point x="440" y="483" type="curve" smooth="yes"/>
			<point x="428" y="483"/>
			<point x="414" y="470"/>
			<point x="414" y="447" type="curve" smooth="yes"/>
			<point x="414" y="433"/>
			<point x="418" y="406"/>
			<point x="420" y="391" type="curve" smooth="yes"/>
			<point x="426" y="338" type="line"/>
			<point x="431" y="410" type="line"/>
			<point x="420" y="362"/>
			<point x="412" y="339"/>
			<point x="400" y="314" type="curve" smooth="yes"/>
			<point x="358" y="222"/>
			<point x="294" y="125"/>
			<point x="206" y="21" type="curve"/>
			<point x="214" y="21" type="line"/>
			<point x="213" y="176"/>
			<point x="211" y="285"/>
			<point x="198" y="396" type="curve" smooth="yes"/>
			<point x="190" y="462"/>
			<point x="172" y="483"/>
			<point x="139" y="483" type="curve" smooth="yes"/>
			<point x="99" y="483"/>
			<point x="68" y="457"/>
			<point x="34" y="382" type="curve"/>
			<point x="47" y="376" type="line"/>
			<point x="82" y="445"/>
			<point x="107" y="457"/>
			<point x="130" y="457" type="curve" smooth="yes"/>
			<point x="150" y="457"/>
			<point x="161" y="445"/>
			<point x="169" y="395" type="curve" smooth="yes"/>
			<point x="186" y="285"/>
			<point x="187" y="172"/>
		</contour>
		<contour>
			<point name="aboveLC" x="227" y="490" type="move"/>
		</contour>
		<contour>
			<point name="belowLC" x="121" y="-22" type="move"/>
		</contour>
	</outline>
</glyph>
<glyph name="w" format="1">
	<unicode hex="0077"/>
	<advance width="730"/>
	<outline>
		<contour>
			<point x="200" y="-10" type="curve"/>
			<point x="211" y="-10" type="line"/>
			<point x="322" y="147"/>
			<point x="406" y="301"/>
			<point x="452" y="409" type="curve"/>
			<point x="445" y="407" type="line"/>
			<point x="453" y="264"/>
			<point x="458" y="169"/>
			<point x="465" y="-10" type="curve"/>
			<point x="476" y="-10" type="line"/>
			<point x="574" y="98"/>
			<point x="641" y="196"/>
			<point x="694" y="306" type="curve" smooth="yes"/>
			<point x="730" y="380"/>
			<point x="733" y="422"/>
			<point x="733" y="447" type="curve" smooth="yes"/>
			<point x="733" y="463"/>
			<point x="732" y="470"/>
			<point x="728" y="478" type="curve"/>
			<point x="725" y="481"/>
			<point x="720" y="483"/>
			<point x="713" y="483" type="curve" smooth="yes"/>
			<point x="701" y="483"/>
			<point x="688" y="471"/>
			<point x="688" y="449" type="curve" smooth="yes"/>
			<point x="688" y="437"/>
			<point x="691" y="418"/>
			<point x="693" y="402" type="curve" smooth="yes"/>
			<point x="701" y="349" type="line"/>
			<point x="707" y="404" type="line"/>
			<point x="696" y="365"/>
			<point x="688" y="340"/>
			<point x="676" y="314" type="curve" smooth="yes"/>
			<point x="622" y="201"/>
			<point x="563" y="123"/>
			<point x="474" y="18" type="curve"/>
			<point x="487" y="19" type="line"/>
			<point x="484" y="174"/>
			<point x="477" y="274"/>
			<point x="467" y="470" type="curve"/>
			<point x="454" y="470" type="line"/>
			<point x="386" y="305"/>
			<point x="303" y="163"/>
			<point x="211" y="21" type="curve"/>
			<point x="222" y="19" type="line"/>
			<point x="221" y="174"/>
			<point x="217" y="286"/>
			<point x="204" y="396" type="curve" smooth="yes"/>
			<point x="196" y="462"/>
			<point x="176" y="483"/>
			<point x="137" y="483" type="curve" smooth="yes"/>
			<point x="103" y="483"/>
			<point x="59" y="448"/>
			<point x="22" y="372" type="curve"/>
			<point x="33" y="364" type="line"/>
			<point x="79" y="443"/>
			<point x="109" y="460"/>
			<point x="129" y="460" type="curve" smooth="yes"/>
			<point x="154" y="460"/>
			<point x="170" y="447"/>
			<point x="177" y="395" type="curve" smooth="yes"/>
			<point x="192" y="284"/>
			<point x="195" y="169"/>
		</contour>
		<contour>
			<point name="aboveLC" x="458" y="500" type="move"/>
		</contour>
		<contour>
			<point name="belowLC" x="347" y="-22" type="move"/>
		</contour>
	</outline>
</glyph>
<glyph name="x" format="1">
	<unicode hex="0078"/>
	<advance width="549"/>
	<outline>
		<contour>
			<point x="-5" y="54" type="curve"/>
			<point x="5" y="14"/>
			<point x="35" y="-13"/>
			<point x="69" y="-13" type="curve" smooth="yes"/>
			<point x="94" y="-13"/>
			<point x="122" y="-3"/>
			<point x="147" y="28" type="curve" smooth="yes"/>
			<point x="193" y="85"/>
			<point x="236" y="156"/>
			<point x="288" y="243" type="curve"/>
			<point x="281" y="259" type="line"/>
			<point x="242" y="202"/>
			<point x="183" y="99"/>
			<point x="134" y="42" type="curve" smooth="yes"/>
			<point x="109" y="13"/>
			<point x="91" y="6"/>
			<point x="61" y="3" type="curve"/>
			<point x="72" y="-3" type="line"/>
			<point x="34" y="65" type="line" smooth="yes"/>
			<point x="29" y="74"/>
			<point x="23" y="77"/>
			<point x="14" y="77" type="curve" smooth="yes"/>
			<point x="3" y="77"/>
			<point x="-5" y="69"/>
		</contour>
		<contour>
			<point x="309" y="99" type="line" smooth="yes"/>
			<point x="330" y="15"/>
			<point x="343" y="-13"/>
			<point x="392" y="-13" type="curve" smooth="yes"/>
			<point x="434" y="-13"/>
			<point x="493" y="41"/>
			<point x="540" y="119" type="curve"/>
			<point x="529" y="127" type="line"/>
			<point x="485" y="60"/>
			<point x="431" y="13"/>
			<point x="394" y="13" type="curve" smooth="yes"/>
			<point x="360" y="13"/>
			<point x="349" y="37"/>
			<point x="334" y="99" type="curve" smooth="yes"/>
			<point x="262" y="395" type="line" smooth="yes"/>
			<point x="246" y="460"/>
			<point x="227" y="483"/>
			<point x="188" y="483" type="curve" smooth="yes"/>
			<point x="154" y="483"/>
			<point x="110" y="448"/>
			<point x="73" y="372" type="curve"/>
			<point x="84" y="364" type="line"/>
			<point x="130" y="443"/>
			<point x="160" y="460"/>
			<point x="186" y="460" type="curve" smooth="yes"/>
			<point x="205" y="460"/>
			<point x="222" y="445"/>
			<point x="235" y="394" type="curve" smooth="yes"/>
		</contour>
		<contour>
			<point x="290" y="240" type="line"/>
			<point x="329" y="297"/>
			<point x="375" y="372"/>
			<point x="423" y="426" type="curve" smooth="yes"/>
			<point x="445" y="449"/>
			<point x="471" y="465"/>
			<point x="493" y="466" type="curve"/>
			<point x="480" y="473" type="line"/>
			<point x="509" y="421" type="line" smooth="yes"/>
			<point x="514" y="412"/>
			<point x="522" y="409"/>
			<point x="529" y="409" type="curve" smooth="yes"/>
			<point x="544" y="409"/>
			<point x="552" y="421"/>
			<point x="552" y="432" type="curve"/>
			<point x="544" y="464"/>
			<point x="520" y="483"/>
			<point x="491" y="483" type="curve" smooth="yes"/>
			<point x="464" y="483"/>
			<point x="436" y="469"/>
			<point x="410" y="440" type="curve" smooth="yes"/>
			<point x="379" y="406"/>
			<point x="335" y="343"/>
			<point x="283" y="256" type="curve"/>
		</contour>
	</outline>
</glyph>
<glyph name="y" format="1">
	<unicode hex="0079"/>
	<advance width="457"/>
	<outline>
		<contour>
			<point x="-160" y="-196" type="curve" smooth="yes"/>
			<point x="-160" y="-220"/>
			<point x="-124" y="-255"/>
			<point x="-83" y="-255" type="curve" smooth="yes"/>
			<point x="-20" y="-255"/>
			<point x="50" y="-221"/>
			<point x="123" y="-137" type="curve" smooth="yes"/>
			<point x="174" y="-79"/>
			<point x="207" y="-35"/>
			<point x="237" y="14" type="curve" smooth="yes"/>
			<point x="288" y="97"/>
			<point x="327" y="166"/>
			<point x="403" y="315" type="curve" smooth="yes"/>
			<point x="430" y="368"/>
			<point x="443" y="395"/>
			<point x="458" y="431" type="curve" smooth="yes"/>
			<point x="466" y="450"/>
			<point x="469" y="461"/>
			<point x="469" y="469" type="curve" smooth="yes"/>
			<point x="469" y="480"/>
			<point x="463" y="483"/>
			<point x="454" y="483" type="curve" smooth="yes"/>
			<point x="425" y="483"/>
			<point x="410" y="384"/>
			<point x="386" y="332" type="curve" smooth="yes"/>
			<point x="315" y="179"/>
			<point x="274" y="105"/>
			<point x="220" y="19" type="curve" smooth="yes"/>
			<point x="176" y="-51"/>
			<point x="152" y="-78"/>
			<point x="113" y="-123" type="curve" smooth="yes"/>
			<point x="49" y="-196"/>
			<point x="-13" y="-236"/>
			<point x="-95" y="-239" type="curve"/>
			<point x="-69" y="-242" type="line"/>
			<point x="-114" y="-197" type="line" smooth="yes"/>
			<point x="-128" y="-183"/>
			<point x="-132" y="-180"/>
			<point x="-141" y="-180" type="curve" smooth="yes"/>
			<point x="-146" y="-180"/>
			<point x="-151" y="-181"/>
			<point x="-155" y="-183" type="curve"/>
			<point x="-159" y="-187"/>
			<point x="-160" y="-191"/>
		</contour>
		<contour>
			<point x="222" y="11" type="line"/>
			<point x="216" y="168"/>
			<point x="209" y="284"/>
			<point x="194" y="396" type="curve" smooth="yes"/>
			<point x="185" y="462"/>
			<point x="170" y="483"/>
			<point x="137" y="483" type="curve" smooth="yes"/>
			<point x="97" y="483"/>
			<point x="65" y="458"/>
			<point x="30" y="382" type="curve"/>
			<point x="41" y="376" type="line"/>
			<point x="78" y="448"/>
			<point x="105" y="460"/>
			<point x="126" y="460" type="curve" smooth="yes"/>
			<point x="148" y="460"/>
			<point x="157" y="447"/>
			<point x="165" y="395" type="curve" smooth="yes"/>
			<point x="182" y="282"/>
			<point x="192" y="166"/>
			<point x="201" y="-19" type="curve"/>
		</contour>
		<contour>
			<point name="aboveLC" x="304" y="500" type="move"/>
		</contour>
		<contour>
			<point name="belowLC" x="-17" y="-252" type="move"/>
		</contour>
	</outline>
</glyph>
<glyph name="z" format="1">
	<unicode hex="007A"/>
	<advance width="460"/>
	<outline>
		<contour>
			<point x="79" y="73" type="line"/>
			<point x="170" y="164"/>
			<point x="292" y="266"/>
			<point x="378" y="364" type="curve" smooth="yes"/>
			<point x="419" y="411"/>
			<point x="447" y="444"/>
			<point x="457" y="487" type="curve"/>
			<point x="447" y="493" type="line"/>
			<point x="434" y="492" type="line"/>
			<point x="406" y="427" type="line"/>
			<point x="304" y="302"/>
			<point x="177" y="198"/>
			<point x="86" y="107" type="curve" smooth="yes"/>
			<point x="61" y="82"/>
			<point x="34" y="38"/>
			<point x="24" y="-5" type="curve"/>
			<point x="37" y="-13" type="line"/>
			<point x="54" y="-10" type="line"/>
		</contour>
		<contour>
			<point x="71" y="69" type="line"/>
			<point x="124" y="31" type="line" smooth="yes"/>
			<point x="170" y="-2"/>
			<point x="235" y="-23"/>
			<point x="272" y="-23" type="curve" smooth="yes"/>
			<point x="340" y="-23"/>
			<point x="402" y="18"/>
			<point x="402" y="81" type="curve" smooth="yes"/>
			<point x="402" y="94"/>
			<point x="400" y="111"/>
			<point x="392" y="123" type="curve"/>
			<point x="388" y="125"/>
			<point x="385" y="126"/>
			<point x="381" y="126" type="curve" smooth="yes"/>
			<point x="368" y="126"/>
			<point x="361" y="116"/>
			<point x="361" y="94" type="curve" smooth="yes"/>
			<point x="361" y="75"/>
			<point x="363" y="60"/>
			<point x="369" y="40" type="curve" smooth="yes"/>
			<point x="374" y="22" type="line"/>
			<point x="376" y="38" type="line"/>
			<point x="350" y="15"/>
			<point x="325" y="5"/>
			<point x="271" y="5" type="curve" smooth="yes"/>
			<point x="224" y="5"/>
			<point x="165" y="28"/>
			<point x="121" y="55" type="curve" smooth="yes"/>
			<point x="79" y="81" type="line"/>
		</contour>
		<contour>
			<point x="419" y="428" type="line"/>
			<point x="380" y="438"/>
			<point x="326" y="452"/>
			<point x="269" y="461" type="curve" smooth="yes"/>
			<point x="207" y="471"/>
			<point x="140" y="482"/>
			<point x="89" y="482" type="curve"/>
			<point x="80" y="477"/>
			<point x="79" y="466"/>
			<point x="81" y="461" type="curve" smooth="yes"/>
			<point x="84" y="455"/>
			<point x="90" y="449"/>
			<point x="105" y="449" type="curve" smooth="yes"/>
			<point x="137" y="449"/>
			<point x="189" y="449"/>
			<point x="261" y="441" type="curve" smooth="yes"/>
			<point x="312" y="435"/>
			<point x="363" y="425"/>
			<point x="413" y="415" type="curve"/>
		</contour>
	</outline>
</glyph>
<glyph name="braceleft" format="1">
	<unicode hex="007B"/>
	<advance width="303"/>
	<outline>
		<contour>
			<point x="68" y="-67" type="curve" smooth="yes"/>
			<point x="68" y="-127"/>
			<point x="113" y="-159"/>
			<point x="196" y="-159" type="curve" smooth="yes"/>
			<point x="241" y="-159" type="line"/>
			<point x="249" y="-120" type="line"/>
			<point x="223" y="-117" type="line" smooth="yes"/>
			<point x="167" y="-110"/>
			<point x="145" y="-97"/>
			<point x="145" y="-60" type="curve" smooth="yes"/>
			<point x="145" y="40"/>
			<point x="241" y="107"/>
			<point x="241" y="196" type="curve" smooth="yes"/>
			<point x="241" y="246"/>
			<point x="207" y="281"/>
			<point x="127" y="283" type="curve"/>
			<point x="125" y="273" type="line"/>
			<point x="237" y="275"/>
			<point x="287" y="344"/>
			<point x="287" y="426" type="curve" smooth="yes"/>
			<point x="287" y="470"/>
			<point x="272" y="508"/>
			<point x="272" y="555" type="curve" smooth="yes"/>
			<point x="272" y="642"/>
			<point x="303" y="664"/>
			<point x="383" y="673" type="curve" smooth="yes"/>
			<point x="411" y="676" type="line"/>
			<point x="419" y="715" type="line"/>
			<point x="374" y="715" type="line" smooth="yes"/>
			<point x="271" y="715"/>
			<point x="196" y="662"/>
			<point x="196" y="565" type="curve" smooth="yes"/>
			<point x="196" y="504"/>
			<point x="234" y="455"/>
			<point x="234" y="402" type="curve" smooth="yes"/>
			<point x="234" y="350"/>
			<point x="197" y="310"/>
			<point x="95" y="298" type="curve"/>
			<point x="91" y="278" type="line"/>
			<point x="87" y="258" type="line"/>
			<point x="160" y="248"/>
			<point x="191" y="222"/>
			<point x="191" y="188" type="curve" smooth="yes"/>
			<point x="191" y="106"/>
			<point x="68" y="34"/>
		</contour>
	</outline>
</glyph>
<glyph name="bar" format="1">
	<unicode hex="007C"/>
	<advance width="240"/>
	<outline>
		<contour>
			<point x="107" y="-250" type="line"/>
			<point x="133" y="-250" type="line"/>
			<point x="133" y="750" type="line"/>
			<point x="107" y="750" type="line"/>
		</contour>
	</outline>
</glyph>
<glyph name="asciitilde" format="1">
	<unicode hex="007E"/>
	<advance width="530"/>
	<outline>
		<contour>
			<point x="280" y="351" type="curve" smooth="yes"/>
			<point x="248" y="381"/>
			<point x="216" y="404"/>
			<point x="171" y="404" type="curve" smooth="yes"/>
			<point x="109" y="404"/>
			<point x="68" y="360"/>
			<point x="63" y="297" type="curve"/>
			<point x="86" y="293" type="line"/>
			<point x="95" y="354"/>
			<point x="125" y="378"/>
			<point x="171" y="378" type="curve" smooth="yes"/>
			<point x="207" y="378"/>
			<point x="227" y="365"/>
			<point x="256" y="336" type="curve" smooth="yes"/>
			<point x="290" y="302"/>
			<point x="319" y="285"/>
			<point x="364" y="285" type="curve" smooth="yes"/>
			<point x="427" y="285"/>
			<point x="466" y="331"/>
			<point x="471" y="392" type="curve"/>
			<point x="448" y="396" type="line"/>
			<point x="439" y="337"/>
			<point x="410" y="311"/>
			<point x="365" y="311" type="curve" smooth="yes"/>
			<point x="331" y="311"/>
			<point x="309" y="323"/>
		</contour>
	</outline>
</glyph>
<glyph name="cent" format="1">
	<unicode hex="00A2"/>
	<advance width="490"/>
	<outline>
		<contour>
			<point x="201" y="-115" type="line"/>
			<point x="386" y="758" type="line"/>
			<point x="364" y="758" type="line"/>
			<point x="179" y="-115" type="line"/>
		</contour>
		<component base="c" xOffset="51" yOffset="92"/>
	</outline>
</glyph>
<glyph name="currency" format="1">
	<unicode hex="00A4"/>
	<advance width="490"/>
	<outline>
		<contour>
			<point x="392" y="438" type="line"/>
			<point x="439" y="475" type="line" smooth="yes"/>
			<point x="473" y="499"/>
			<point x="496" y="516"/>
			<point x="496" y="533" type="curve" smooth="yes"/>
			<point x="496" y="543"/>
			<point x="487" y="552"/>
			<point x="477" y="552" type="curve" smooth="yes"/>
			<point x="460" y="552"/>
			<point x="442" y="528"/>
			<point x="418" y="495" type="curve" smooth="yes"/>
			<point x="382" y="448" type="line"/>
		</contour>
		<contour>
			<point x="138" y="336" type="curve" smooth="yes"/>
			<point x="138" y="419"/>
			<point x="202" y="478"/>
			<point x="280" y="478" type="curve" smooth="yes"/>
			<point x="357" y="478"/>
			<point x="420" y="419"/>
			<point x="420" y="336" type="curve" smooth="yes"/>
			<point x="420" y="256"/>
			<point x="358" y="194"/>
			<point x="280" y="194" type="curve" smooth="yes"/>
			<point x="204" y="194"/>
			<point x="138" y="252"/>
		</contour>
		<contour>
			<point x="115" y="336" type="curve" smooth="yes"/>
			<point x="115" y="239"/>
			<point x="191" y="174"/>
			<point x="280" y="174" type="curve" smooth="yes"/>
			<point x="368" y="174"/>
			<point x="444" y="239"/>
			<point x="444" y="336" type="curve" smooth="yes"/>
			<point x="444" y="433"/>
			<point x="368" y="498"/>
			<point x="280" y="498" type="curve" smooth="yes"/>
			<point x="191" y="498"/>
			<point x="115" y="433"/>
		</contour>
		<contour>
			<point x="177" y="449" type="line"/>
			<point x="140" y="496" type="line" smooth="yes"/>
			<point x="116" y="530"/>
			<point x="99" y="553"/>
			<point x="82" y="553" type="curve" smooth="yes"/>
			<point x="72" y="553"/>
			<point x="63" y="544"/>
			<point x="63" y="534" type="curve" smooth="yes"/>
			<point x="63" y="517"/>
			<point x="87" y="499"/>
			<point x="120" y="475" type="curve" smooth="yes"/>
			<point x="167" y="439" type="line"/>
		</contour>
		<contour>
			<point x="166" y="234" type="line"/>
			<point x="119" y="197" type="line" smooth="yes"/>
			<point x="85" y="173"/>
			<point x="62" y="156"/>
			<point x="62" y="139" type="curve" smooth="yes"/>
			<point x="62" y="129"/>
			<point x="71" y="120"/>
			<point x="81" y="120" type="curve" smooth="yes"/>
			<point x="98" y="120"/>
			<point x="116" y="144"/>
			<point x="140" y="177" type="curve" smooth="yes"/>
			<point x="176" y="224" type="line"/>
		</contour>
		<contour>
			<point x="381" y="223" type="line"/>
			<point x="418" y="176" type="line" smooth="yes"/>
			<point x="442" y="142"/>
			<point x="459" y="119"/>
			<point x="476" y="119" type="curve" smooth="yes"/>
			<point x="486" y="119"/>
			<point x="495" y="128"/>
			<point x="495" y="138" type="curve" smooth="yes"/>
			<point x="495" y="155"/>
			<point x="471" y="173"/>
			<point x="438" y="197" type="curve" smooth="yes"/>
			<point x="391" y="233" type="line"/>
		</contour>
	</outline>
</glyph>
<glyph name="yen" format="1">
	<unicode hex="00A5"/>
	<advance width="539"/>
	<outline>
		<contour>
			<point x="141" y="0" type="line"/>
			<point x="278" y="0" type="line"/>
			<point x="414" y="0" type="line"/>
			<point x="422" y="39" type="line"/>
			<point x="298" y="53" type="line"/>
			<point x="289" y="53" type="line"/>
			<point x="279" y="53" type="line"/>
			<point x="149" y="39" type="line"/>
		</contour>
		<contour>
			<point x="233" y="592" type="line"/>
			<point x="243" y="592" type="line"/>
			<point x="252" y="592" type="line"/>
			<point x="363" y="607" type="line"/>
			<point x="371" y="645" type="line"/>
			<point x="254" y="645" type="line"/>
			<point x="137" y="645" type="line"/>
			<point x="129" y="607" type="line"/>
		</contour>
		<contour>
			<point x="577" y="592" type="line"/>
			<point x="667" y="607" type="line"/>
			<point x="675" y="645" type="line"/>
			<point x="579" y="645" type="line"/>
			<point x="473" y="645" type="line"/>
			<point x="465" y="607" type="line"/>
			<point x="558" y="592" type="line"/>
			<point x="568" y="592" type="line"/>
		</contour>
		<contour>
			<point x="129" y="268" type="line"/>
			<point x="539" y="268" type="line"/>
			<point x="549" y="318" type="line"/>
			<point x="393" y="318" type="line"/>
			<point x="352" y="299" type="line"/>
			<point x="340" y="318" type="line"/>
			<point x="139" y="318" type="line"/>
		</contour>
		<contour>
			<point x="298" y="274" type="line" smooth="yes"/>
			<point x="278" y="173"/>
			<point x="262" y="97"/>
			<point x="240" y="0" type="curve"/>
			<point x="316" y="0" type="line"/>
			<point x="334" y="99"/>
			<point x="349" y="175"/>
			<point x="369" y="274" type="curve" smooth="yes"/>
			<point x="376" y="309" type="line"/>
			<point x="305" y="309" type="line"/>
		</contour>
		<contour>
			<point x="347" y="237" type="curve"/>
			<point x="365" y="286" type="line"/>
			<point x="263" y="645" type="line"/>
			<point x="263" y="645"/>
			<point x="181" y="645"/>
			<point x="181" y="645" type="curve"/>
			<point x="308" y="245" type="line"/>
			<point x="308" y="245"/>
			<point x="347" y="237"/>
		</contour>
		<contour>
			<point x="106" y="156" type="line"/>
			<point x="516" y="156" type="line"/>
			<point x="526" y="206" type="line"/>
			<point x="116" y="206" type="line"/>
		</contour>
		<contour>
			<point x="377" y="289" type="line"/>
			<point x="629" y="645" type="line"/>
			<point x="629" y="645"/>
			<point x="580" y="645"/>
			<point x="580" y="645" type="curve"/>
			<point x="326" y="277" type="line"/>
		</contour>
	</outline>
</glyph>
<glyph name="brokenbar" format="1">
	<unicode hex="00A6"/>
	<advance width="240"/>
	<outline>
		<contour>
			<point x="108" y="-250" type="line"/>
			<point x="134" y="-250" type="line"/>
			<point x="134" y="200" type="line"/>
			<point x="108" y="200" type="line"/>
		</contour>
		<contour>
			<point x="108" y="320" type="line"/>
			<point x="134" y="320" type="line"/>
			<point x="134" y="750" type="line"/>
			<point x="108" y="750" type="line"/>
		</contour>
	</outline>
</glyph>
<glyph name="section" format="1">
	<unicode hex="00A7"/>
	<advance width="480"/>
	<outline>
		<contour>
			<point x="259" y="690" type="curve" smooth="yes"/>
			<point x="164" y="690"/>
			<point x="109" y="639"/>
			<point x="109" y="568" type="curve" smooth="yes"/>
			<point x="109" y="498"/>
			<point x="158" y="449"/>
			<point x="262" y="404" type="curve" smooth="yes"/>
			<point x="371" y="357"/>
			<point x="395" y="320"/>
			<point x="395" y="263" type="curve" smooth="yes"/>
			<point x="395" y="222"/>
			<point x="375" y="180"/>
			<point x="319" y="142" type="curve"/>
			<point x="327" y="130" type="line"/>
			<point x="393" y="164"/>
			<point x="421" y="219"/>
			<point x="421" y="264" type="curve" smooth="yes"/>
			<point x="421" y="336"/>
			<point x="386" y="375"/>
			<point x="275" y="426" type="curve" smooth="yes"/>
			<point x="159" y="479"/>
			<point x="135" y="515"/>
			<point x="135" y="569" type="curve" smooth="yes"/>
			<point x="135" y="631"/>
			<point x="177" y="671"/>
			<point x="258" y="671" type="curve" smooth="yes"/>
			<point x="303" y="671"/>
			<point x="338" y="656"/>
			<point x="370" y="634" type="curve"/>
			<point x="342" y="665" type="line"/>
			<point x="378" y="579" type="line" smooth="yes"/>
			<point x="383" y="568"/>
			<point x="390" y="563"/>
			<point x="399" y="563" type="curve" smooth="yes"/>
			<point x="411" y="563"/>
			<point x="419" y="571"/>
			<point x="419" y="582" type="curve"/>
			<point x="392" y="653"/>
			<point x="337" y="690"/>
		</contour>
		<contour>
			<point x="219" y="-100" type="curve" smooth="yes"/>
			<point x="319" y="-100"/>
			<point x="379" y="-47"/>
			<point x="379" y="34" type="curve" smooth="yes"/>
			<point x="379" y="100"/>
			<point x="339" y="156"/>
			<point x="225" y="200" type="curve" smooth="yes"/>
			<point x="123" y="239"/>
			<point x="93" y="285"/>
			<point x="93" y="352" type="curve" smooth="yes"/>
			<point x="93" y="403"/>
			<point x="119" y="443"/>
			<point x="169" y="471" type="curve"/>
			<point x="161" y="483" type="line"/>
			<point x="95" y="453"/>
			<point x="67" y="401"/>
			<point x="67" y="350" type="curve" smooth="yes"/>
			<point x="67" y="279"/>
			<point x="103" y="220"/>
			<point x="213" y="178" type="curve" smooth="yes"/>
			<point x="326" y="134"/>
			<point x="353" y="95"/>
			<point x="353" y="32" type="curve" smooth="yes"/>
			<point x="353" y="-35"/>
			<point x="308" y="-81"/>
			<point x="220" y="-81" type="curve" smooth="yes"/>
			<point x="175" y="-81"/>
			<point x="140" y="-66"/>
			<point x="108" y="-44" type="curve"/>
			<point x="136" y="-75" type="line"/>
			<point x="100" y="11" type="line" smooth="yes"/>
			<point x="95" y="22"/>
			<point x="88" y="27"/>
			<point x="79" y="27" type="curve" smooth="yes"/>
			<point x="67" y="27"/>
			<point x="59" y="19"/>
			<point x="59" y="8" type="curve"/>
			<point x="86" y="-63"/>
			<point x="141" y="-100"/>
		</contour>
	</outline>
</glyph>
<glyph name="copyright" format="1">
	<unicode hex="00A9"/>
	<advance width="759"/>
	<outline>
		<contour>
			<point x="91" y="340" type="curve" smooth="yes"/>
			<point x="91" y="543"/>
			<point x="233" y="668"/>
			<point x="415" y="668" type="curve" smooth="yes"/>
			<point x="597" y="668"/>
			<point x="739" y="542"/>
			<point x="739" y="340" type="curve" smooth="yes"/>
			<point x="739" y="138"/>
			<point x="598" y="8"/>
			<point x="415" y="8" type="curve" smooth="yes"/>
			<point x="233" y="8"/>
			<point x="91" y="133"/>
		</contour>
		<contour>
			<point x="65" y="340" type="curve" smooth="yes"/>
			<point x="65" y="121"/>
			<point x="225" y="-13"/>
			<point x="415" y="-13" type="curve" smooth="yes"/>
			<point x="605" y="-13"/>
			<point x="764" y="121"/>
			<point x="764" y="340" type="curve" smooth="yes"/>
			<point x="764" y="559"/>
			<point x="605" y="690"/>
			<point x="415" y="690" type="curve" smooth="yes"/>
			<point x="225" y="690"/>
			<point x="65" y="559"/>
		</contour>
		<contour>
			<point x="406" y="127" type="curve" smooth="yes"/>
			<point x="444" y="127"/>
			<point x="473" y="135"/>
			<point x="513" y="155" type="curve"/>
			<point x="530" y="243" type="line"/>
			<point x="516" y="243" type="line"/>
			<point x="490" y="155" type="line"/>
			<point x="502" y="174" type="line"/>
			<point x="471" y="154"/>
			<point x="442" y="147"/>
			<point x="408" y="147" type="curve" smooth="yes"/>
			<point x="327" y="147"/>
			<point x="256" y="212"/>
			<point x="256" y="315" type="curve" smooth="yes"/>
			<point x="256" y="437"/>
			<point x="339" y="534"/>
			<point x="449" y="534" type="curve" smooth="yes"/>
			<point x="501" y="534"/>
			<point x="529" y="526"/>
			<point x="562" y="501" type="curve"/>
			<point x="553" y="524" type="line"/>
			<point x="545" y="427" type="line"/>
			<point x="560" y="427" type="line"/>
			<point x="575" y="521" type="line"/>
			<point x="539" y="544"/>
			<point x="505" y="553"/>
			<point x="449" y="553" type="curve" smooth="yes"/>
			<point x="325" y="553"/>
			<point x="229" y="449"/>
			<point x="229" y="314" type="curve" smooth="yes"/>
			<point x="229" y="204"/>
			<point x="300" y="127"/>
		</contour>
	</outline>
</glyph>
<glyph name="logicalnot" format="1">
	<unicode hex="00AC"/>
	<advance width="530"/>
	<outline>
		<contour>
			<point x="40" y="358" type="line"/>
			<point x="467" y="358" type="line"/>
			<point x="462" y="363" type="line"/>
			<point x="462" y="175" type="line"/>
			<point x="490" y="175" type="line"/>
			<point x="490" y="384" type="line"/>
			<point x="40" y="384" type="line"/>
		</contour>
	</outline>
</glyph>
<glyph name="registered" format="1">
	<unicode hex="00AE"/>
	<advance width="458"/>
	<outline>
		<contour>
			<point x="124" y="516" type="curve" smooth="yes"/>
			<point x="124" y="620"/>
			<point x="209" y="692"/>
			<point x="301" y="692" type="curve" smooth="yes"/>
			<point x="393" y="692"/>
			<point x="478" y="620"/>
			<point x="478" y="516" type="curve" smooth="yes"/>
			<point x="478" y="412"/>
			<point x="394" y="338"/>
			<point x="301" y="338" type="curve" smooth="yes"/>
			<point x="208" y="338"/>
			<point x="124" y="412"/>
		</contour>
		<contour>
			<point x="253" y="419" type="line"/>
			<point x="277" y="419" type="line"/>
			<point x="277" y="622" type="line"/>
			<point x="253" y="622" type="line"/>
		</contour>
		<contour>
			<point x="263" y="433" type="line"/>
			<point x="226" y="431" type="line"/>
			<point x="226" y="419" type="line"/>
			<point x="304" y="419" type="line"/>
			<point x="304" y="431" type="line"/>
			<point x="267" y="433" type="line"/>
		</contour>
		<contour>
			<point x="263" y="608" type="line"/>
			<point x="265" y="613" type="line"/>
			<point x="265" y="622" type="line"/>
			<point x="226" y="622" type="line"/>
			<point x="226" y="610" type="line"/>
		</contour>
		<contour>
			<point x="102" y="516" type="curve" smooth="yes"/>
			<point x="102" y="398"/>
			<point x="199" y="318"/>
			<point x="301" y="318" type="curve" smooth="yes"/>
			<point x="403" y="318"/>
			<point x="500" y="398"/>
			<point x="500" y="516" type="curve" smooth="yes"/>
			<point x="500" y="634"/>
			<point x="404" y="712"/>
			<point x="301" y="712" type="curve" smooth="yes"/>
			<point x="198" y="712"/>
			<point x="102" y="634"/>
		</contour>
		<contour>
			<point x="398" y="431" type="line"/>
			<point x="365" y="433" type="line"/>
			<point x="376" y="423" type="line"/>
			<point x="354" y="486" type="line" smooth="yes"/>
			<point x="347" y="506"/>
			<point x="339" y="514"/>
			<point x="312" y="517" type="curve"/>
			<point x="314" y="515" type="line"/>
			<point x="349" y="517"/>
			<point x="372" y="540"/>
			<point x="372" y="569" type="curve" smooth="yes"/>
			<point x="372" y="603"/>
			<point x="348" y="622"/>
			<point x="301" y="622" type="curve" smooth="yes"/>
			<point x="265" y="622" type="line"/>
			<point x="265" y="610" type="line"/>
			<point x="297" y="610" type="line" smooth="yes"/>
			<point x="336" y="610"/>
			<point x="349" y="592"/>
			<point x="349" y="569" type="curve" smooth="yes"/>
			<point x="349" y="542"/>
			<point x="331" y="522"/>
			<point x="300" y="522" type="curve" smooth="yes"/>
			<point x="265" y="522" type="line"/>
			<point x="265" y="510" type="line"/>
			<point x="295" y="510" type="line" smooth="yes"/>
			<point x="318" y="510"/>
			<point x="325" y="501"/>
			<point x="331" y="483" type="curve" smooth="yes"/>
			<point x="348" y="433" type="line" smooth="yes"/>
			<point x="352" y="422"/>
			<point x="359" y="418"/>
			<point x="379" y="418" type="curve" smooth="yes"/>
			<point x="387" y="418"/>
			<point x="391" y="418"/>
			<point x="398" y="419" type="curve"/>
		</contour>
	</outline>
</glyph>
<glyph name="degree" format="1">
	<unicode hex="00B0"/>
	<advance width="303"/>
	<outline>
		<contour>
			<point x="152" y="482" type="curve" smooth="yes"/>
			<point x="104" y="482"/>
			<point x="64" y="518"/>
			<point x="64" y="575" type="curve" smooth="yes"/>
			<point x="64" y="632"/>
			<point x="104" y="668"/>
			<point x="152" y="668" type="curve" smooth="yes"/>
			<point x="201" y="668"/>
			<point x="240" y="632"/>
			<point x="240" y="575" type="curve" smooth="yes"/>
			<point x="240" y="518"/>
			<point x="201" y="482"/>
		</contour>
		<contour>
			<point x="152" y="460" type="curve" smooth="yes"/>
			<point x="212" y="460"/>
			<point x="265" y="505"/>
			<point x="265" y="575" type="curve" smooth="yes"/>
			<point x="265" y="643"/>
			<point x="212" y="690"/>
			<point x="152" y="690" type="curve" smooth="yes"/>
			<point x="91" y="690"/>
			<point x="39" y="643"/>
			<point x="39" y="575" type="curve" smooth="yes"/>
			<point x="39" y="505"/>
			<point x="91" y="460"/>
		</contour>
	</outline>
</glyph>
<glyph name="plusminus" format="1">
	<unicode hex="00B1"/>
	<advance width="530"/>
	<outline>
		<contour>
			<point x="251" y="98" type="line"/>
			<point x="279" y="98" type="line"/>
			<point x="279" y="569" type="line"/>
			<point x="251" y="569" type="line"/>
		</contour>
		<contour>
			<point x="490" y="323" type="line"/>
			<point x="490" y="349" type="line"/>
			<point x="40" y="349" type="line"/>
			<point x="40" y="323" type="line"/>
		</contour>
		<contour>
			<point x="490" y="0" type="line"/>
			<point x="490" y="26" type="line"/>
			<point x="40" y="26" type="line"/>
			<point x="40" y="0" type="line"/>
		</contour>
	</outline>
</glyph>
<glyph name="paragraph" format="1">
	<unicode hex="00B6"/>
	<advance width="603"/>
	<outline>
		<contour>
			<point x="421" y="677" type="line"/>
			<point x="421" y="650" type="line"/>
			<point x="428" y="650" type="line"/>
			<point x="545" y="657" type="line"/>
			<point x="545" y="677" type="line"/>
		</contour>
		<contour>
			<point x="410" y="180" type="line" smooth="yes"/>
			<point x="410" y="76"/>
			<point x="410" y="-28"/>
			<point x="408" y="-130" type="curve"/>
			<point x="438" y="-130" type="line"/>
			<point x="436" y="-28"/>
			<point x="436" y="76"/>
			<point x="436" y="180" type="curve" smooth="yes"/>
			<point x="436" y="367" type="line" smooth="yes"/>
			<point x="436" y="471"/>
			<point x="436" y="575"/>
			<point x="438" y="677" type="curve"/>
			<point x="410" y="677" type="line"/>
		</contour>
		<contour>
			<point x="352" y="653" type="line"/>
			<point x="421" y="653" type="line"/>
			<point x="421" y="677" type="line"/>
			<point x="368" y="677" type="line" smooth="yes"/>
			<point x="174" y="677"/>
			<point x="60" y="577"/>
			<point x="60" y="427" type="curve" smooth="yes"/>
			<point x="60" y="268"/>
			<point x="190" y="177"/>
			<point x="352" y="178" type="curve"/>
		</contour>
	</outline>
</glyph>
<glyph name="Eth" format="1">
	<unicode hex="00D0"/>
	<advance width="702"/>
	<outline>
		<contour>
			<point x="67" y="336" type="line"/>
			<point x="415" y="336" type="line"/>
			<point x="418" y="358" type="line"/>
			<point x="72" y="358" type="line"/>
		</contour>
		<component base="D"/>
	</outline>
</glyph>
<glyph name="multiply" format="1">
	<unicode hex="00D7"/>
	<advance width="530"/>
	<outline>
		<contour>
			<point x="473" y="524" type="line"/>
			<point x="454" y="543" type="line"/>
			<point x="58" y="147" type="line"/>
			<point x="77" y="128" type="line"/>
		</contour>
		<contour>
			<point x="454" y="129" type="line"/>
			<point x="473" y="148" type="line"/>
			<point x="77" y="544" type="line"/>
			<point x="58" y="525" type="line"/>
		</contour>
	</outline>
</glyph>
<glyph name="Oslash" format="1">
	<unicode hex="00D8"/>
	<advance width="654"/>
	<outline>
		<contour>
			<point x="699" y="681" type="line"/>
			<point x="683" y="697" type="line"/>
			<point x="8" y="-1" type="line"/>
			<point x="24" y="-17" type="line"/>
		</contour>
		<component base="O"/>
		<contour>
			<point name="aboveUC" x="392" y="682" type="move"/>
		</contour>
	</outline>
</glyph>
<glyph name="Thorn" format="1">
	<unicode hex="00DE"/>
	<advance width="560"/>
	<outline>
		<contour>
			<point x="167" y="163" type="line"/>
			<point x="293" y="163" type="line" smooth="yes"/>
			<point x="465" y="163"/>
			<point x="557" y="253"/>
			<point x="557" y="374" type="curve" smooth="yes"/>
			<point x="557" y="474"/>
			<point x="486" y="535"/>
			<point x="339" y="535" type="curve" smooth="yes"/>
			<point x="241" y="535" type="line"/>
			<point x="237" y="513" type="line"/>
			<point x="330" y="513" type="line" smooth="yes"/>
			<point x="467" y="513"/>
			<point x="527" y="464"/>
			<point x="527" y="375" type="curve" smooth="yes"/>
			<point x="527" y="266"/>
			<point x="460" y="183"/>
			<point x="285" y="183" type="curve" smooth="yes"/>
			<point x="171" y="183" type="line"/>
		</contour>
		<contour>
			<point x="11" y="0" type="line"/>
			<point x="259" y="0" type="line"/>
			<point x="263" y="20" type="line"/>
			<point x="142" y="27" type="line"/>
			<point x="128" y="27" type="line"/>
			<point x="15" y="20" type="line"/>
		</contour>
		<contour>
			<point x="115" y="0" type="line"/>
			<point x="149" y="0" type="line"/>
			<point x="165" y="104"/>
			<point x="184" y="209"/>
			<point x="203" y="313" type="curve" smooth="yes"/>
			<point x="271" y="677" type="line"/>
			<point x="238" y="677" type="line"/>
			<point x="221" y="573"/>
			<point x="204" y="468"/>
			<point x="184" y="364" type="curve" smooth="yes"/>
		</contour>
		<contour>
			<point x="125" y="657" type="line"/>
			<point x="246" y="650" type="line"/>
			<point x="260" y="650" type="line"/>
			<point x="373" y="657" type="line"/>
			<point x="377" y="677" type="line"/>
			<point x="129" y="677" type="line"/>
		</contour>
	</outline>
</glyph>
<glyph name="germandbls" format="1">
	<unicode hex="00DF"/>
	<advance width="536"/>
	<outline>
		<contour>
			<point x="417" y="739" type="curve" smooth="yes"/>
			<point x="460" y="737"/>
			<point x="508" y="702"/>
			<point x="508" y="649" type="curve" smooth="yes"/>
			<point x="508" y="596"/>
			<point x="488" y="564"/>
			<point x="421" y="500" type="curve" smooth="yes"/>
			<point x="360" y="443"/>
			<point x="307" y="407"/>
			<point x="307" y="340" type="curve" smooth="yes"/>
			<point x="307" y="296"/>
			<point x="332" y="261"/>
			<point x="384" y="219" type="curve" smooth="yes"/>
			<point x="442" y="173"/>
			<point x="465" y="154"/>
			<point x="465" y="106" type="curve" smooth="yes"/>
			<point x="465" y="48"/>
			<point x="420" y="7"/>
			<point x="348" y="7" type="curve" smooth="yes"/>
			<point x="314" y="7"/>
			<point x="293" y="12"/>
			<point x="263" y="29" type="curve"/>
			<point x="285" y="12" type="line"/>
			<point x="270" y="82" type="line" smooth="yes"/>
			<point x="268" y="93"/>
			<point x="262" y="104"/>
			<point x="249" y="104" type="curve" smooth="yes"/>
			<point x="240" y="104"/>
			<point x="231" y="97"/>
			<point x="229" y="86" type="curve"/>
			<point x="239" y="20"/>
			<point x="277" y="-13"/>
			<point x="347" y="-13" type="curve" smooth="yes"/>
			<point x="443" y="-13"/>
			<point x="490" y="50"/>
			<point x="490" y="111" type="curve" smooth="yes"/>
			<point x="490" y="162"/>
			<point x="464" y="191"/>
			<point x="397" y="243" type="curve" smooth="yes"/>
			<point x="356" y="275"/>
			<point x="332" y="305"/>
			<point x="332" y="348" type="curve" smooth="yes"/>
			<point x="332" y="404"/>
			<point x="372" y="431"/>
			<point x="434" y="486" type="curve" smooth="yes"/>
			<point x="511" y="555"/>
			<point x="536" y="591"/>
			<point x="536" y="652" type="curve" smooth="yes"/>
			<point x="536" y="715"/>
			<point x="484" y="758"/>
			<point x="418" y="758" type="curve" smooth="yes"/>
			<point x="380" y="758"/>
			<point x="358" y="753"/>
			<point x="334" y="740" type="curve" smooth="yes"/>
			<point x="267" y="705"/>
			<point x="225" y="637"/>
			<point x="199" y="468" type="curve" smooth="yes"/>
			<point x="133" y="44" type="line" smooth="yes"/>
			<point x="115" y="-70"/>
			<point x="92" y="-130"/>
			<point x="48" y="-180" type="curve" smooth="yes"/>
			<point x="15" y="-217"/>
			<point x="-24" y="-234"/>
			<point x="-73" y="-239" type="curve"/>
			<point x="-57" y="-242" type="line"/>
			<point x="-102" y="-197" type="line" smooth="yes"/>
			<point x="-116" y="-183"/>
			<point x="-120" y="-180"/>
			<point x="-129" y="-180" type="curve" smooth="yes"/>
			<point x="-139" y="-180"/>
			<point x="-147" y="-186"/>
			<point x="-148" y="-200" type="curve"/>
			<point x="-141" y="-224"/>
			<point x="-107" y="-255"/>
			<point x="-61" y="-255" type="curve" smooth="yes"/>
			<point x="-17" y="-255"/>
			<point x="19" y="-238"/>
			<point x="58" y="-202" type="curve" smooth="yes"/>
			<point x="118" y="-147"/>
			<point x="136" y="-77"/>
			<point x="155" y="37" type="curve" smooth="yes"/>
			<point x="232" y="506" type="line" smooth="yes"/>
			<point x="253" y="633"/>
			<point x="287" y="692"/>
			<point x="343" y="723" type="curve" smooth="yes"/>
			<point x="360" y="732"/>
			<point x="376" y="740"/>
		</contour>
	</outline>
</glyph>
<glyph name="ae" format="1">
	<unicode hex="00E6"/>
	<advance width="644"/>
	<outline>
		<contour>
			<point x="147" y="-13" type="curve" smooth="yes"/>
			<point x="213" y="-13"/>
			<point x="270" y="43"/>
			<point x="325" y="115" type="curve"/>
			<point x="320" y="129" type="line"/>
			<point x="261" y="59"/>
			<point x="212" y="12"/>
			<point x="154" y="12" type="curve" smooth="yes"/>
			<point x="108" y="12"/>
			<point x="75" y="42"/>
			<point x="75" y="123" type="curve" smooth="yes"/>
			<point x="75" y="213"/>
			<point x="119" y="319"/>
			<point x="187" y="387" type="curve" smooth="yes"/>
			<point x="230" y="431"/>
			<point x="284" y="460"/>
			<point x="341" y="460" type="curve" smooth="yes"/>
			<point x="378" y="460"/>
			<point x="408" y="451"/>
			<point x="437" y="414" type="curve"/>
			<point x="448" y="434" type="line"/>
			<point x="424" y="471"/>
			<point x="391" y="483"/>
			<point x="346" y="483" type="curve" smooth="yes"/>
			<point x="198" y="483"/>
			<point x="47" y="282"/>
			<point x="47" y="116" type="curve" smooth="yes"/>
			<point x="47" y="18"/>
			<point x="95" y="-13"/>
		</contour>
		<component base="e" xOffset="250"/>
		<contour>
			<point name="aboveLC" x="473" y="500" type="move"/>
		</contour>
		<contour>
			<point name="belowLC" x="340" y="-22" type="move"/>
		</contour>
	</outline>
</glyph>
<glyph name="eth" format="1">
	<unicode hex="00F0"/>
	<advance width="457"/>
	<outline>
		<contour>
			<point x="204" y="-13" type="curve"/>
			<point x="335" y="-13"/>
			<point x="433" y="135"/>
			<point x="433" y="340" type="curve" smooth="yes"/>
			<point x="433" y="519"/>
			<point x="355" y="676"/>
			<point x="218" y="739" type="curve"/>
			<point x="211" y="728" type="line"/>
			<point x="341" y="661"/>
			<point x="409" y="516"/>
			<point x="409" y="333" type="curve"/>
			<point x="414" y="333" type="line"/>
			<point x="408" y="421"/>
			<point x="350" y="471"/>
			<point x="286" y="471" type="curve" smooth="yes"/>
			<point x="140" y="471"/>
			<point x="52" y="308"/>
			<point x="52" y="172" type="curve" smooth="yes"/>
			<point x="52" y="42"/>
			<point x="122" y="-13"/>
		</contour>
		<contour>
			<point x="205" y="7" type="curve" smooth="yes"/>
			<point x="124" y="7"/>
			<point x="80" y="69"/>
			<point x="80" y="174" type="curve" smooth="yes"/>
			<point x="80" y="300"/>
			<point x="159" y="451"/>
			<point x="282" y="451" type="curve" smooth="yes"/>
			<point x="359" y="451"/>
			<point x="405" y="394"/>
			<point x="405" y="292" type="curve" smooth="yes"/>
			<point x="405" y="200"/>
			<point x="351" y="7"/>
		</contour>
		<contour>
			<point x="181" y="554" type="line"/>
			<point x="514" y="725" type="line"/>
			<point x="506" y="738" type="line"/>
			<point x="173" y="567" type="line"/>
		</contour>
	</outline>
</glyph>
<glyph name="divide" format="1">
	<unicode hex="00F7"/>
	<advance width="530"/>
	<outline>
		<contour>
			<point x="265" y="492" type="curve" smooth="yes"/>
			<point x="284" y="492"/>
			<point x="296" y="507"/>
			<point x="296" y="522" type="curve" smooth="yes"/>
			<point x="296" y="539"/>
			<point x="284" y="552"/>
			<point x="265" y="552" type="curve" smooth="yes"/>
			<point x="246" y="552"/>
			<point x="234" y="539"/>
			<point x="234" y="522" type="curve" smooth="yes"/>
			<point x="234" y="507"/>
			<point x="246" y="492"/>
		</contour>
		<contour>
			<point x="265" y="115" type="curve" smooth="yes"/>
			<point x="284" y="115"/>
			<point x="296" y="130"/>
			<point x="296" y="145" type="curve" smooth="yes"/>
			<point x="296" y="162"/>
			<point x="284" y="175"/>
			<point x="265" y="175" type="curve" smooth="yes"/>
			<point x="246" y="175"/>
			<point x="234" y="162"/>
			<point x="234" y="145" type="curve" smooth="yes"/>
			<point x="234" y="130"/>
			<point x="246" y="115"/>
		</contour>
		<component base="minus"/>
	</outline>
</glyph>
<glyph name="oslash" format="1">
	<unicode hex="00F8"/>
	<advance width="484"/>
	<outline>
		<contour>
			<point x="491" y="475" type="line"/>
			<point x="463" y="500" type="line"/>
			<point x="-7" y="5" type="line"/>
			<point x="21" y="-20" type="line"/>
		</contour>
		<component base="o"/>
	</outline>
</glyph>
<glyph name="thorn" format="1">
	<unicode hex="00FE"/>
	<advance width="488"/>
	<outline>
		<contour>
			<point x="-4" y="-245" type="line"/>
			<point x="23" y="-245" type="line"/>
			<point x="37" y="-176"/>
			<point x="51" y="-107"/>
			<point x="66" y="-38" type="curve"/>
			<point x="231" y="738" type="line"/>
			<point x="221" y="748" type="line"/>
			<point x="80" y="733" type="line"/>
			<point x="77" y="719" type="line"/>
			<point x="206" y="717" type="line"/>
			<point x="199" y="724" type="line"/>
			<point x="187" y="655"/>
			<point x="175" y="586"/>
			<point x="160" y="517" type="curve" smooth="yes"/>
		</contour>
		<contour>
			<point x="65" y="23" type="line"/>
			<point x="90" y="-3"/>
			<point x="126" y="-13"/>
			<point x="158" y="-13" type="curve" smooth="yes"/>
			<point x="307" y="-13"/>
			<point x="461" y="188"/>
			<point x="461" y="364" type="curve" smooth="yes"/>
			<point x="461" y="452"/>
			<point x="425" y="483"/>
			<point x="371" y="483" type="curve" smooth="yes"/>
			<point x="293" y="483"/>
			<point x="184" y="399"/>
			<point x="121" y="297" type="curve"/>
			<point x="125" y="292" type="line"/>
			<point x="214" y="390"/>
			<point x="293" y="458"/>
			<point x="366" y="458" type="curve" smooth="yes"/>
			<point x="408" y="458"/>
			<point x="433" y="428"/>
			<point x="433" y="356" type="curve" smooth="yes"/>
			<point x="433" y="199"/>
			<point x="310" y="10"/>
			<point x="165" y="10" type="curve" smooth="yes"/>
			<point x="141" y="10"/>
			<point x="101" y="19"/>
			<point x="72" y="43" type="curve"/>
		</contour>
		<contour>
			<point x="-92" y="-245" type="line"/>
			<point x="131" y="-245" type="line"/>
			<point x="134" y="-225" type="line"/>
			<point x="21" y="-219" type="line"/>
			<point x="12" y="-219" type="line"/>
			<point x="-89" y="-225" type="line"/>
		</contour>
		<contour>
			<point name="aboveLC" x="210" y="730" type="move"/>
		</contour>
		<contour>
			<point name="belowLC" x="22" y="-248" type="move"/>
		</contour>
	</outline>
</glyph>
<glyph name="dcroat" format="1">
	<unicode hex="0111"/>
	<advance width="529"/>
	<outline>
		<contour>
			<point x="303" y="587" type="line"/>
			<point x="607" y="587" type="line"/>
			<point x="611" y="607" type="line"/>
			<point x="307" y="607" type="line"/>
		</contour>
		<component base="d"/>
	</outline>
</glyph>
<glyph name="dotlessi" format="1">
	<unicode hex="0131"/>
	<advance width="278"/>
	<outline>
		<contour>
			<point x="85" y="32" type="curve" smooth="yes"/>
			<point x="85" y="4"/>
			<point x="104" y="-13"/>
			<point x="129" y="-13" type="curve" smooth="yes"/>
			<point x="193" y="-13"/>
			<point x="244" y="43"/>
			<point x="290" y="121" type="curve"/>
			<point x="279" y="129" type="line"/>
			<point x="235" y="62"/>
			<point x="184" y="13"/>
			<point x="141" y="13" type="curve" smooth="yes"/>
			<point x="124" y="13"/>
			<point x="112" y="21"/>
			<point x="112" y="38" type="curve" smooth="yes"/>
			<point x="112" y="56"/>
			<point x="118" y="85"/>
			<point x="122" y="104" type="curve" smooth="yes"/>
			<point x="203" y="473" type="line"/>
			<point x="190" y="483" type="line"/>
			<point x="50" y="458" type="line"/>
			<point x="47" y="444" type="line"/>
			<point x="176" y="452" type="line"/>
			<point x="172" y="459" type="line"/>
			<point x="96" y="104" type="line" smooth="yes"/>
			<point x="89" y="73"/>
			<point x="85" y="54"/>
		</contour>
		<contour>
			<point name="aboveLC" x="201" y="500" type="move"/>
		</contour>
		<contour>
			<point name="belowLC" x="114" y="-22" type="move"/>
		</contour>
		<contour>
			<point name="ogonek" x="131" y="0" type="move"/>
		</contour>
	</outline>
</glyph>
<glyph name="Lslash" format="1">
	<unicode hex="0141"/>
	<advance width="568"/>
	<outline>
		<contour>
			<point x="32" y="201" type="line"/>
			<point x="202" y="288" type="line"/>
			<point x="212" y="339" type="line"/>
			<point x="41" y="251" type="line"/>
		</contour>
		<contour>
			<point x="201" y="283" type="line"/>
			<point x="423" y="396" type="line"/>
			<point x="432" y="447" type="line"/>
			<point x="211" y="334" type="line"/>
		</contour>
		<component base="L"/>
	</outline>
</glyph>
<glyph name="lslash" format="1">
	<unicode hex="0142"/>
	<advance width="256"/>
	<outline>
		<contour>
			<point x="154" y="397" type="line"/>
			<point x="24" y="329" type="line"/>
			<point x="19" y="301" type="line"/>
			<point x="148" y="367" type="line"/>
		</contour>
		<contour>
			<point x="279" y="462" type="line"/>
			<point x="154" y="396" type="line"/>
			<point x="148" y="368" type="line"/>
			<point x="273" y="432" type="line"/>
		</contour>
		<component base="l"/>
	</outline>
</glyph>
<glyph name="OE" format="1">
	<unicode hex="0152"/>
	<advance width="875"/>
	<outline>
		<contour>
			<point x="434" y="0" type="curve"/>
			<point x="439" y="23" type="line"/>
			<point x="408" y="17"/>
			<point x="374" y="7"/>
			<point x="331" y="7" type="curve" smooth="yes"/>
			<point x="178" y="7"/>
			<point x="97" y="123"/>
			<point x="97" y="267" type="curve" smooth="yes"/>
			<point x="97" y="485"/>
			<point x="248" y="670"/>
			<point x="447" y="670" type="curve" smooth="yes"/>
			<point x="496" y="670"/>
			<point x="527" y="665"/>
			<point x="558" y="655" type="curve"/>
			<point x="562" y="677" type="line"/>
			<point x="533" y="683"/>
			<point x="501" y="692"/>
			<point x="451" y="692" type="curve" smooth="yes"/>
			<point x="248" y="692"/>
			<point x="65" y="512"/>
			<point x="65" y="264" type="curve" smooth="yes"/>
			<point x="65" y="102"/>
			<point x="167" y="-15"/>
			<point x="327" y="-15" type="curve" smooth="yes"/>
			<point x="366" y="-15"/>
			<point x="405" y="-4"/>
		</contour>
		<contour>
			<point x="420" y="0" type="line"/>
			<point x="454" y="0" type="line"/>
			<point x="470" y="104"/>
			<point x="489" y="209"/>
			<point x="508" y="313" type="curve" smooth="yes"/>
			<point x="576" y="677" type="line"/>
			<point x="543" y="677" type="line"/>
			<point x="526" y="573"/>
			<point x="509" y="468"/>
			<point x="489" y="364" type="curve" smooth="yes"/>
		</contour>
		<contour>
			<point x="434" y="0" type="line"/>
			<point x="798" y="0" type="line"/>
			<point x="837" y="153" type="line"/>
			<point x="813" y="153" type="line"/>
			<point x="765" y="0" type="line"/>
			<point x="783" y="22" type="line"/>
			<point x="438" y="22" type="line"/>
		</contour>
		<contour>
			<point x="497" y="331" type="line"/>
			<point x="718" y="331" type="line"/>
			<point x="722" y="353" type="line"/>
			<point x="501" y="353" type="line"/>
		</contour>
		<contour>
			<point x="558" y="655" type="line"/>
			<point x="869" y="655" type="line"/>
			<point x="859" y="677" type="line"/>
			<point x="849" y="524" type="line"/>
			<point x="873" y="524" type="line"/>
			<point x="892" y="677" type="line"/>
			<point x="562" y="677" type="line"/>
		</contour>
		<contour>
			<point x="700" y="234" type="line"/>
			<point x="719" y="234" type="line"/>
			<point x="760" y="450" type="line"/>
			<point x="741" y="450" type="line"/>
			<point x="713" y="352" type="line"/>
			<point x="709" y="332" type="line"/>
		</contour>
		<contour>
			<point name="aboveUC" x="559" y="682" type="move"/>
		</contour>
	</outline>
</glyph>
<glyph name="oe" format="1">
	<unicode hex="0153"/>
	<advance width="770"/>
	<outline>
		<contour>
			<point x="210" y="-13" type="curve" smooth="yes"/>
			<point x="310" y="-13"/>
			<point x="377" y="73"/>
			<point x="413" y="168" type="curve"/>
			<point x="434" y="275" type="line"/>
			<point x="440" y="423"/>
			<point x="372" y="483"/>
			<point x="292" y="483" type="curve" smooth="yes"/>
			<point x="146" y="483"/>
			<point x="58" y="313"/>
			<point x="58" y="172" type="curve" smooth="yes"/>
			<point x="58" y="42"/>
			<point x="128" y="-13"/>
		</contour>
		<contour>
			<point x="211" y="7" type="curve" smooth="yes"/>
			<point x="130" y="7"/>
			<point x="86" y="69"/>
			<point x="86" y="174" type="curve" smooth="yes"/>
			<point x="86" y="305"/>
			<point x="165" y="463"/>
			<point x="288" y="463" type="curve" smooth="yes"/>
			<point x="365" y="463"/>
			<point x="416" y="409"/>
			<point x="416" y="292" type="curve" smooth="yes"/>
			<point x="416" y="200"/>
			<point x="361" y="7"/>
		</contour>
		<component base="e" xOffset="348"/>
		<contour>
			<point name="aboveLC" x="474" y="500" type="move"/>
		</contour>
	</outline>
</glyph>
<glyph name="uogonek" format="1">
	<unicode hex="0173"/>
	<advance width="539"/>
	<outline>
		<component base="u"/>
		<component base="ogonekcmb" xOffset="413"/>
		<contour>
			<point name="aboveLC" x="309" y="500" type="move"/>
		</contour>
	</outline>
</glyph>
<glyph name="longs" format="1">
	<unicode hex="017F"/>
	<advance width="284"/>
	<outline>
		<contour>
			<point x="385" y="758" type="curve" smooth="yes"/>
			<point x="361" y="758"/>
			<point x="340" y="753"/>
			<point x="316" y="740" type="curve" smooth="yes"/>
			<point x="249" y="705"/>
			<point x="207" y="637"/>
			<point x="181" y="468" type="curve" smooth="yes"/>
			<point x="115" y="44" type="line" smooth="yes"/>
			<point x="97" y="-70"/>
			<point x="74" y="-130"/>
			<point x="30" y="-180" type="curve" smooth="yes"/>
			<point x="-3" y="-217"/>
			<point x="-42" y="-234"/>
			<point x="-91" y="-239" type="curve"/>
			<point x="-75" y="-242" type="line"/>
			<point x="-120" y="-197" type="line" smooth="yes"/>
			<point x="-134" y="-183"/>
			<point x="-138" y="-180"/>
			<point x="-147" y="-180" type="curve" smooth="yes"/>
			<point x="-157" y="-180"/>
			<point x="-165" y="-186"/>
			<point x="-166" y="-200" type="curve"/>
			<point x="-159" y="-224"/>
			<point x="-125" y="-255"/>
			<point x="-79" y="-255" type="curve" smooth="yes"/>
			<point x="-35" y="-255"/>
			<point x="1" y="-238"/>
			<point x="40" y="-202" type="curve" smooth="yes"/>
			<point x="100" y="-147"/>
			<point x="118" y="-77"/>
			<point x="137" y="37" type="curve" smooth="yes"/>
			<point x="214" y="506" type="line" smooth="yes"/>
			<point x="235" y="633"/>
			<point x="269" y="692"/>
			<point x="325" y="723" type="curve" smooth="yes"/>
			<point x="347" y="735"/>
			<point x="367" y="740"/>
			<point x="404" y="740" type="curve"/>
			<point x="392" y="745" type="line"/>
			<point x="434" y="700" type="line" smooth="yes"/>
			<point x="448" y="686"/>
			<point x="452" y="683"/>
			<point x="461" y="683" type="curve" smooth="yes"/>
			<point x="471" y="683"/>
			<point x="482" y="691"/>
			<point x="481" y="700" type="curve"/>
			<point x="474" y="728"/>
			<point x="440" y="758"/>
		</contour>
	</outline>
</glyph>
<glyph name="florin" format="1">
	<unicode hex="0192"/>
	<advance width="480"/>
	<outline>
		<contour>
			<point x="168" y="-21" type="curve" smooth="yes"/>
			<point x="155" y="-38"/>
			<point x="133" y="-56"/>
			<point x="101" y="-68" type="curve"/>
			<point x="125" y="-68" type="line"/>
			<point x="110" y="-46" type="line" smooth="yes"/>
			<point x="87" y="-14"/>
			<point x="71" y="3"/>
			<point x="30" y="3" type="curve" smooth="yes"/>
			<point x="-2" y="3"/>
			<point x="-23" y="-13"/>
			<point x="-26" y="-39" type="curve"/>
			<point x="-17" y="-74"/>
			<point x="16" y="-100"/>
			<point x="72" y="-100" type="curve" smooth="yes"/>
			<point x="116" y="-100"/>
			<point x="162" y="-85"/>
			<point x="203" y="-48" type="curve" smooth="yes"/>
			<point x="263" y="9"/>
			<point x="294" y="85"/>
			<point x="325" y="233" type="curve" smooth="yes"/>
			<point x="348" y="344" type="line" smooth="yes"/>
			<point x="373" y="465"/>
			<point x="387" y="530"/>
			<point x="427" y="582" type="curve" smooth="yes"/>
			<point x="440" y="599"/>
			<point x="462" y="617"/>
			<point x="494" y="629" type="curve"/>
			<point x="470" y="629" type="line"/>
			<point x="485" y="607" type="line" smooth="yes"/>
			<point x="508" y="575"/>
			<point x="524" y="558"/>
			<point x="565" y="558" type="curve" smooth="yes"/>
			<point x="597" y="558"/>
			<point x="618" y="574"/>
			<point x="621" y="600" type="curve"/>
			<point x="612" y="635"/>
			<point x="579" y="661"/>
			<point x="523" y="661" type="curve" smooth="yes"/>
			<point x="479" y="661"/>
			<point x="433" y="646"/>
			<point x="392" y="609" type="curve" smooth="yes"/>
			<point x="331" y="553"/>
			<point x="302" y="475"/>
			<point x="272" y="328" type="curve" smooth="yes"/>
			<point x="249" y="217" type="line" smooth="yes"/>
			<point x="223" y="95"/>
			<point x="208" y="31"/>
		</contour>
		<contour>
			<point x="160" y="345" type="line"/>
			<point x="482" y="345" type="line"/>
			<point x="489" y="395" type="line"/>
			<point x="167" y="395" type="line"/>
		</contour>
	</outline>
</glyph>
<glyph name="gravecmb" format="1">
	<unicode hex="0300"/>
	<outline>
		<contour>
			<point x="124" y="551" type="line"/>
			<point x="47" y="700" type="line" smooth="yes"/>
			<point x="31" y="731"/>
			<point x="25" y="738"/>
			<point x="14" y="738" type="curve" smooth="yes"/>
			<point x="6" y="738"/>
			<point x="-2" y="731"/>
			<point x="-2" y="721" type="curve" smooth="yes"/>
			<point x="-2" y="709"/>
			<point x="7" y="698"/>
			<point x="21" y="678" type="curve" smooth="yes"/>
			<point x="112" y="544" type="line"/>
		</contour>
	</outline>
</glyph>
<glyph name="tildecmb" format="1">
	<unicode hex="0303"/>
	<outline>
		<contour>
			<point x="-65" y="603" type="curve"/>
			<point x="-51" y="597" type="line"/>
			<point x="-30" y="652"/>
			<point x="-3" y="668"/>
			<point x="26" y="668" type="curve" smooth="yes"/>
			<point x="47" y="668"/>
			<point x="62" y="659"/>
			<point x="91" y="630" type="curve" smooth="yes"/>
			<point x="123" y="598"/>
			<point x="144" y="587"/>
			<point x="172" y="587" type="curve" smooth="yes"/>
			<point x="207" y="587"/>
			<point x="239" y="616"/>
			<point x="263" y="674" type="curve"/>
			<point x="250" y="681" type="line"/>
			<point x="224" y="629"/>
			<point x="197" y="611"/>
			<point x="175" y="611" type="curve" smooth="yes"/>
			<point x="152" y="611"/>
			<point x="142" y="619"/>
			<point x="111" y="649" type="curve" smooth="yes"/>
			<point x="81" y="678"/>
			<point x="62" y="692"/>
			<point x="31" y="692" type="curve" smooth="yes"/>
			<point x="-12" y="692"/>
			<point x="-46" y="665"/>
		</contour>
		<contour>
			<point name="_aboveLC" x="69" y="500" type="move"/>
		</contour>
	</outline>
</glyph>
<glyph name="macroncmb" format="1">
	<unicode hex="0304"/>
	<outline>
		<contour>
			<point x="-33" y="631" type="line"/>
			<point x="207" y="631" type="line"/>
			<point x="213" y="657" type="line"/>
			<point x="-27" y="657" type="line"/>
		</contour>
		<contour>
			<point name="_aboveLC" x="69" y="500" type="move"/>
		</contour>
	</outline>
</glyph>
<glyph name="dotaccentcmb" format="1">
	<unicode hex="0307"/>
	<outline>
		<contour>
			<point x="105" y="646" type="curve" smooth="yes"/>
			<point x="120" y="646"/>
			<point x="138" y="659"/>
			<point x="138" y="682" type="curve" smooth="yes"/>
			<point x="138" y="699"/>
			<point x="125" y="709"/>
			<point x="109" y="709" type="curve" smooth="yes"/>
			<point x="94" y="709"/>
			<point x="76" y="696"/>
			<point x="76" y="674" type="curve" smooth="yes"/>
			<point x="76" y="655"/>
			<point x="90" y="646"/>
		</contour>
		<contour>
			<point name="_aboveLC" x="69" y="500" type="move"/>
		</contour>
		<contour>
			<point name="aboveLC" x="107" y="679" type="move"/>
		</contour>
	</outline>
</glyph>
<glyph name="ogonekcmb" format="1">
	<unicode hex="0328"/>
	<outline>
		<contour>
			<point x="-101" y="-152" type="curve" smooth="yes"/>
			<point x="-101" y="-194"/>
			<point x="-70" y="-223"/>
			<point x="-17" y="-223" type="curve" smooth="yes"/>
			<point x="11" y="-223"/>
			<point x="35" y="-215"/>
			<point x="60" y="-204" type="curve"/>
			<point x="56" y="-191" type="line"/>
			<point x="35" y="-197"/>
			<point x="14" y="-199"/>
			<point x="-7" y="-199" type="curve" smooth="yes"/>
			<point x="-51" y="-199"/>
			<point x="-71" y="-178"/>
			<point x="-71" y="-140" type="curve" smooth="yes"/>
			<point x="-71" y="-86"/>
			<point x="-33" y="-52"/>
			<point x="35" y="5" type="curve"/>
			<point x="16" y="5" type="line"/>
			<point x="-46" y="-39"/>
			<point x="-101" y="-79"/>
		</contour>
		<contour>
			<point name="_ogonek" x="19" y="0" type="move"/>
		</contour>
	</outline>
</glyph>
<glyph name="pi" format="1">
	<unicode hex="03C0"/>
	<advance width="592"/>
	<outline>
		<contour>
			<point x="18" y="435" type="line"/>
			<point x="186" y="444" type="line"/>
			<point x="401" y="444" type="line"/>
			<point x="572" y="441" type="line"/>
			<point x="571" y="470" type="line"/>
			<point x="212" y="470" type="line" smooth="yes"/>
			<point x="137" y="470"/>
			<point x="71" y="462"/>
			<point x="16" y="453" type="curve"/>
		</contour>
		<contour>
			<point x="468" y="-13" type="curve" smooth="yes"/>
			<point x="499" y="-13"/>
			<point x="523" y="3"/>
			<point x="534" y="18" type="curve"/>
			<point x="528" y="31" type="line"/>
			<point x="512" y="21"/>
			<point x="499" y="15"/>
			<point x="472" y="15" type="curve" smooth="yes"/>
			<point x="436" y="15"/>
			<point x="418" y="28"/>
			<point x="417" y="90" type="curve" smooth="yes"/>
			<point x="412" y="456" type="line"/>
			<point x="390" y="456" type="line"/>
			<point x="388" y="100" type="line" smooth="yes"/>
			<point x="388" y="14"/>
			<point x="417" y="-13"/>
		</contour>
		<contour>
			<point x="89" y="-10" type="curve" smooth="yes"/>
			<point x="130" y="-10"/>
			<point x="170" y="13"/>
			<point x="175" y="53" type="curve" smooth="yes"/>
			<point x="191" y="184"/>
			<point x="192" y="318"/>
			<point x="193" y="456" type="curve"/>
			<point x="172" y="456" type="line"/>
			<point x="172" y="318"/>
			<point x="171" y="183"/>
			<point x="143" y="22" type="curve"/>
			<point x="162" y="24" type="line"/>
			<point x="158" y="34" type="line"/>
			<point x="123" y="37"/>
			<point x="99" y="38"/>
			<point x="80" y="37" type="curve"/>
			<point x="67" y="32"/>
			<point x="62" y="26"/>
			<point x="62" y="14" type="curve" smooth="yes"/>
			<point x="62" y="4"/>
			<point x="68" y="-10"/>
		</contour>
	</outline>
</glyph>
<glyph name="Be" format="1">
	<unicode hex="0411"/>
	<advance width="558"/>
	<outline>
		<contour>
			<point x="11" y="0" type="line"/>
			<point x="129" y="0" type="line"/>
			<point x="134" y="27" type="line"/>
			<point x="127" y="27" type="line"/>
			<point x="15" y="20" type="line"/>
		</contour>
		<contour>
			<point x="115" y="0" type="line"/>
			<point x="149" y="0" type="line"/>
			<point x="165" y="104"/>
			<point x="184" y="209"/>
			<point x="203" y="313" type="curve" smooth="yes"/>
			<point x="271" y="677" type="line"/>
			<point x="238" y="677" type="line"/>
			<point x="221" y="573"/>
			<point x="204" y="468"/>
			<point x="184" y="364" type="curve" smooth="yes"/>
		</contour>
		<contour>
			<point x="125" y="657" type="line"/>
			<point x="245" y="650" type="line"/>
			<point x="252" y="650" type="line"/>
			<point x="257" y="677" type="line"/>
			<point x="129" y="677" type="line"/>
		</contour>
		<contour>
			<point x="202" y="373" type="curve"/>
			<point x="198" y="353" type="line"/>
			<point x="231" y="355"/>
			<point x="263" y="357"/>
			<point x="296" y="357" type="curve" smooth="yes"/>
			<point x="439" y="357"/>
			<point x="493" y="310"/>
			<point x="493" y="209" type="curve" smooth="yes"/>
			<point x="493" y="82"/>
			<point x="405" y="22"/>
			<point x="265" y="22" type="curve" smooth="yes"/>
			<point x="133" y="22" type="line"/>
			<point x="129" y="0" type="line"/>
			<point x="260" y="0" type="line" smooth="yes"/>
			<point x="434" y="0"/>
			<point x="522" y="76"/>
			<point x="522" y="209" type="curve" smooth="yes"/>
			<point x="522" y="308"/>
			<point x="471" y="377"/>
			<point x="304" y="377" type="curve" smooth="yes"/>
			<point x="270" y="377"/>
			<point x="236" y="375"/>
		</contour>
		<contour>
			<point x="253" y="655" type="line"/>
			<point x="556" y="655" type="line"/>
			<point x="546" y="677" type="line"/>
			<point x="536" y="516" type="line"/>
			<point x="560" y="516" type="line"/>
			<point x="579" y="677" type="line"/>
			<point x="257" y="677" type="line"/>
		</contour>
	</outline>
</glyph>
<glyph name="ve" format="1">
	<unicode hex="0432"/>
	<advance width="428"/>
	<outline>
		<contour>
			<point x="188" y="-13" type="curve" smooth="yes"/>
			<point x="308" y="-13"/>
			<point x="382" y="59"/>
			<point x="382" y="136" type="curve" smooth="yes"/>
			<point x="382" y="204"/>
			<point x="338" y="251"/>
			<point x="235" y="253" type="curve"/>
			<point x="235" y="247" type="line"/>
			<point x="322" y="251"/>
			<point x="398" y="303"/>
			<point x="398" y="376" type="curve" smooth="yes"/>
			<point x="398" y="444"/>
			<point x="352" y="483"/>
			<point x="289" y="483" type="curve" smooth="yes"/>
			<point x="234" y="483"/>
			<point x="183" y="459"/>
			<point x="142" y="400" type="curve" smooth="yes"/>
			<point x="109" y="352"/>
			<point x="56" y="232"/>
			<point x="56" y="126" type="curve" smooth="yes"/>
			<point x="56" y="24"/>
			<point x="125" y="-13"/>
		</contour>
		<contour>
			<point x="196" y="7" type="curve" smooth="yes"/>
			<point x="137" y="7"/>
			<point x="82" y="42"/>
			<point x="82" y="133" type="curve" smooth="yes"/>
			<point x="82" y="222"/>
			<point x="130" y="339"/>
			<point x="164" y="392" type="curve" smooth="yes"/>
			<point x="192" y="435"/>
			<point x="236" y="463"/>
			<point x="283" y="463" type="curve" smooth="yes"/>
			<point x="336" y="463"/>
			<point x="370" y="432"/>
			<point x="370" y="375" type="curve" smooth="yes"/>
			<point x="370" y="314"/>
			<point x="323" y="271"/>
			<point x="209" y="259" type="curve" smooth="yes"/>
			<point x="88" y="246" type="line"/>
			<point x="84" y="225" type="line"/>
			<point x="122" y="233"/>
			<point x="167" y="238"/>
			<point x="207" y="238" type="curve" smooth="yes"/>
			<point x="310" y="238"/>
			<point x="354" y="203"/>
			<point x="354" y="136" type="curve" smooth="yes"/>
			<point x="354" y="55"/>
			<point x="287" y="7"/>
		</contour>
	</outline>
</glyph>
<glyph name="ghe" format="1">
	<unicode hex="0433"/>
	<advance width="394"/>
	<outline>
		<contour>
			<point x="178" y="-13" type="curve" smooth="yes"/>
			<point x="254" y="-13"/>
			<point x="319" y="19"/>
			<point x="366" y="92" type="curve"/>
			<point x="355" y="100" type="line"/>
			<point x="308" y="36"/>
			<point x="252" y="12"/>
			<point x="185" y="12" type="curve" smooth="yes"/>
			<point x="120" y="12"/>
			<point x="84" y="42"/>
			<point x="84" y="88" type="curve" smooth="yes"/>
			<point x="84" y="147"/>
			<point x="108" y="174"/>
			<point x="243" y="245" type="curve" smooth="yes"/>
			<point x="365" y="309"/>
			<point x="395" y="336"/>
			<point x="395" y="391" type="curve" smooth="yes"/>
			<point x="395" y="447"/>
			<point x="349" y="483"/>
			<point x="275" y="483" type="curve" smooth="yes"/>
			<point x="202" y="483"/>
			<point x="144" y="450"/>
			<point x="98" y="378" type="curve"/>
			<point x="109" y="370" type="line"/>
			<point x="154" y="431"/>
			<point x="206" y="463"/>
			<point x="268" y="463" type="curve" smooth="yes"/>
			<point x="333" y="463"/>
			<point x="371" y="436"/>
			<point x="371" y="388" type="curve" smooth="yes"/>
			<point x="371" y="348"/>
			<point x="352" y="322"/>
			<point x="235" y="260" type="curve" smooth="yes"/>
			<point x="99" y="189"/>
			<point x="58" y="153"/>
			<point x="58" y="91" type="curve" smooth="yes"/>
			<point x="58" y="27"/>
			<point x="103" y="-13"/>
		</contour>
	</outline>
</glyph>
<glyph name="che" format="1">
	<unicode hex="0447"/>
	<advance width="542"/>
	<outline>
		<contour>
			<point x="214" y="198" type="curve" smooth="yes"/>
			<point x="258" y="198"/>
			<point x="302" y="211"/>
			<point x="419" y="245" type="curve"/>
			<point x="422" y="260" type="line"/>
			<point x="299" y="230"/>
			<point x="258" y="225"/>
			<point x="221" y="225" type="curve" smooth="yes"/>
			<point x="186" y="225"/>
			<point x="167" y="245"/>
			<point x="167" y="272" type="curve" smooth="yes"/>
			<point x="167" y="303"/>
			<point x="180" y="356"/>
			<point x="204" y="473" type="curve"/>
			<point x="191" y="483" type="line"/>
			<point x="53" y="468" type="line"/>
			<point x="50" y="454" type="line"/>
			<point x="179" y="452" type="line"/>
			<point x="175" y="459" type="line"/>
			<point x="152" y="347"/>
			<point x="140" y="305"/>
			<point x="140" y="266" type="curve" smooth="yes"/>
			<point x="140" y="223"/>
			<point x="171" y="198"/>
		</contour>
		<contour>
			<point x="359" y="33" type="curve" smooth="yes"/>
			<point x="359" y="4"/>
			<point x="377" y="-13"/>
			<point x="404" y="-13" type="curve" smooth="yes"/>
			<point x="456" y="-13"/>
			<point x="500" y="32"/>
			<point x="542" y="92" type="curve"/>
			<point x="532" y="100" type="line"/>
			<point x="490" y="47"/>
			<point x="449" y="13"/>
			<point x="415" y="13" type="curve" smooth="yes"/>
			<point x="396" y="13"/>
			<point x="385" y="20"/>
			<point x="385" y="39" type="curve" smooth="yes"/>
			<point x="385" y="55"/>
			<point x="392" y="80"/>
			<point x="396" y="99" type="curve" smooth="yes"/>
			<point x="476" y="477" type="line"/>
			<point x="468" y="483" type="line"/>
			<point x="447" y="469" type="line"/>
			<point x="435" y="405"/>
			<point x="422" y="340"/>
			<point x="408" y="276" type="curve" smooth="yes"/>
			<point x="370" y="99" type="line" smooth="yes"/>
			<point x="363" y="68"/>
			<point x="359" y="54"/>
		</contour>
	</outline>
</glyph>
<glyph name="sha" format="1">
	<unicode hex="0448"/>
	<advance width="749"/>
	<outline>
		<contour>
			<point x="155" y="-13" type="curve" smooth="yes"/>
			<point x="226" y="-13"/>
			<point x="274" y="23"/>
			<point x="354" y="91" type="curve"/>
			<point x="353" y="111" type="line"/>
			<point x="267" y="38"/>
			<point x="209" y="14"/>
			<point x="165" y="14" type="curve" smooth="yes"/>
			<point x="132" y="14"/>
			<point x="120" y="32"/>
			<point x="120" y="59" type="curve" smooth="yes"/>
			<point x="120" y="90"/>
			<point x="135" y="165"/>
			<point x="144" y="205" type="curve" smooth="yes"/>
			<point x="205" y="474" type="line"/>
			<point x="192" y="484" type="line"/>
			<point x="66" y="469" type="line"/>
			<point x="63" y="455" type="line"/>
			<point x="177" y="453" type="line"/>
			<point x="175" y="460" type="line"/>
			<point x="114" y="186" type="line" smooth="yes"/>
			<point x="105" y="146"/>
			<point x="93" y="94"/>
			<point x="93" y="55" type="curve" smooth="yes"/>
			<point x="93" y="8"/>
			<point x="116" y="-13"/>
		</contour>
		<contour>
			<point x="391" y="-13" type="curve" smooth="yes"/>
			<point x="463" y="-13"/>
			<point x="513" y="22"/>
			<point x="594" y="91" type="curve"/>
			<point x="593" y="111" type="line"/>
			<point x="512" y="39"/>
			<point x="447" y="14"/>
			<point x="395" y="14" type="curve" smooth="yes"/>
			<point x="366" y="14"/>
			<point x="356" y="31"/>
			<point x="356" y="52" type="curve" smooth="yes"/>
			<point x="356" y="68"/>
			<point x="360" y="85"/>
			<point x="363" y="99" type="curve" smooth="yes"/>
			<point x="443" y="477" type="line"/>
			<point x="435" y="483" type="line"/>
			<point x="414" y="469" type="line"/>
			<point x="402" y="405"/>
			<point x="389" y="340"/>
			<point x="375" y="276" type="curve" smooth="yes"/>
			<point x="337" y="99" type="line" smooth="yes"/>
			<point x="332" y="78"/>
			<point x="330" y="65"/>
			<point x="330" y="52" type="curve" smooth="yes"/>
			<point x="330" y="8"/>
			<point x="352" y="-13"/>
		</contour>
		<contour>
			<point x="611" y="-13" type="curve" smooth="yes"/>
			<point x="663" y="-13"/>
			<point x="707" y="32"/>
			<point x="749" y="92" type="curve"/>
			<point x="739" y="100" type="line"/>
			<point x="697" y="47"/>
			<point x="656" y="13"/>
			<point x="622" y="13" type="curve" smooth="yes"/>
			<point x="603" y="13"/>
			<point x="592" y="20"/>
			<point x="592" y="39" type="curve" smooth="yes"/>
			<point x="592" y="55"/>
			<point x="599" y="80"/>
			<point x="603" y="99" type="curve" smooth="yes"/>
			<point x="683" y="477" type="line"/>
			<point x="675" y="483" type="line"/>
			<point x="654" y="469" type="line"/>
			<point x="642" y="405"/>
			<point x="629" y="340"/>
			<point x="615" y="276" type="curve" smooth="yes"/>
			<point x="577" y="99" type="line" smooth="yes"/>
			<point x="570" y="68"/>
			<point x="566" y="54"/>
			<point x="566" y="33" type="curve" smooth="yes"/>
			<point x="566" y="4"/>
			<point x="584" y="-13"/>
		</contour>
	</outline>
</glyph>
<glyph name="shcha" format="1">
	<unicode hex="0449"/>
	<advance width="749"/>
	<outline>
		<contour>
			<point x="735" y="90" type="line"/>
			<point x="718" y="40"/>
			<point x="709" y="8"/>
			<point x="684" y="-39" type="curve" smooth="yes"/>
			<point x="655" y="-94"/>
			<point x="628" y="-105"/>
			<point x="509" y="-116" type="curve" smooth="yes"/>
			<point x="429" y="-123"/>
			<point x="401" y="-131"/>
			<point x="372" y="-176" type="curve" smooth="yes"/>
			<point x="360" y="-194"/>
			<point x="354" y="-211"/>
			<point x="346" y="-230" type="curve"/>
			<point x="362" y="-236" type="line"/>
			<point x="375" y="-211" type="line" smooth="yes"/>
			<point x="402" y="-159"/>
			<point x="427" y="-147"/>
			<point x="510" y="-141" type="curve" smooth="yes"/>
			<point x="652" y="-130"/>
			<point x="668" y="-109"/>
			<point x="699" y="-44" type="curve" smooth="yes"/>
			<point x="723" y="9"/>
			<point x="735" y="41"/>
			<point x="749" y="92" type="curve"/>
		</contour>
		<component base="sha"/>
	</outline>
</glyph>
<glyph name="hard" format="1">
	<unicode hex="044A"/>
	<advance width="513"/>
	<outline>
		<contour>
			<point x="94" y="354" type="line"/>
			<point x="108" y="352" type="line"/>
			<point x="133" y="471" type="line"/>
			<point x="118" y="455" type="line"/>
			<point x="194" y="452"/>
			<point x="319" y="448"/>
			<point x="386" y="443" type="curve"/>
			<point x="415" y="461" type="line"/>
			<point x="339" y="471"/>
			<point x="209" y="477"/>
			<point x="132" y="483" type="curve"/>
			<point x="106" y="461" type="line"/>
		</contour>
		<contour>
			<point x="295" y="-13" type="curve" smooth="yes"/>
			<point x="399" y="-13"/>
			<point x="476" y="62"/>
			<point x="476" y="157" type="curve" smooth="yes"/>
			<point x="476" y="234"/>
			<point x="427" y="276"/>
			<point x="329" y="276" type="curve" smooth="yes"/>
			<point x="288" y="276"/>
			<point x="243" y="264"/>
			<point x="204" y="247" type="curve"/>
			<point x="202" y="233" type="line"/>
			<point x="234" y="245"/>
			<point x="284" y="255"/>
			<point x="327" y="255" type="curve" smooth="yes"/>
			<point x="403" y="255"/>
			<point x="448" y="224"/>
			<point x="448" y="156" type="curve" smooth="yes"/>
			<point x="448" y="61"/>
			<point x="380" y="7"/>
			<point x="301" y="7" type="curve" smooth="yes"/>
			<point x="231" y="7"/>
			<point x="183" y="33"/>
			<point x="183" y="119" type="curve" smooth="yes"/>
			<point x="183" y="224"/>
			<point x="250" y="319"/>
			<point x="437" y="469" type="curve"/>
			<point x="427" y="483" type="line"/>
			<point x="233" y="334"/>
			<point x="157" y="225"/>
			<point x="157" y="114" type="curve" smooth="yes"/>
			<point x="157" y="10"/>
			<point x="220" y="-13"/>
		</contour>
	</outline>
</glyph>
<glyph name="soft" format="1">
	<unicode hex="044C"/>
	<advance width="462"/>
	<outline>
		<contour>
			<point x="109" y="131" type="curve" smooth="yes"/>
			<point x="95" y="18"/>
			<point x="154" y="-13"/>
			<point x="240" y="-13" type="curve" smooth="yes"/>
			<point x="352" y="-13"/>
			<point x="427" y="71"/>
			<point x="427" y="155" type="curve" smooth="yes"/>
			<point x="427" y="236"/>
			<point x="380" y="276"/>
			<point x="280" y="276" type="curve" smooth="yes"/>
			<point x="241" y="276"/>
			<point x="194" y="265"/>
			<point x="144" y="240" type="curve"/>
			<point x="140" y="226" type="line"/>
			<point x="190" y="248"/>
			<point x="232" y="255"/>
			<point x="278" y="255" type="curve" smooth="yes"/>
			<point x="355" y="255"/>
			<point x="399" y="223"/>
			<point x="399" y="153" type="curve" smooth="yes"/>
			<point x="399" y="66"/>
			<point x="332" y="7"/>
			<point x="245" y="7" type="curve" smooth="yes"/>
			<point x="164" y="7"/>
			<point x="122" y="40"/>
			<point x="135" y="136" type="curve" smooth="yes"/>
			<point x="142" y="187"/>
			<point x="178" y="357"/>
			<point x="206" y="473" type="curve"/>
			<point x="193" y="483" type="line"/>
			<point x="53" y="468" type="line"/>
			<point x="50" y="454" type="line"/>
			<point x="177" y="452" type="line"/>
			<point x="176" y="459" type="line"/>
			<point x="153" y="358"/>
			<point x="116" y="188"/>
		</contour>
	</outline>
</glyph>
<glyph name="yu" format="1">
	<unicode hex="044E"/>
	<advance width="661"/>
	<outline>
		<contour>
			<point x="88" y="0" type="line"/>
			<point x="94" y="-5" type="line"/>
			<point x="115" y="0" type="line"/>
			<point x="129" y="69"/>
			<point x="142" y="138"/>
			<point x="158" y="207" type="curve" smooth="yes"/>
			<point x="190" y="351" type="line"/>
			<point x="214" y="473" type="line"/>
			<point x="201" y="483" type="line"/>
			<point x="63" y="468" type="line"/>
			<point x="60" y="454" type="line"/>
			<point x="189" y="452" type="line"/>
			<point x="185" y="459" type="line"/>
		</contour>
		<contour>
			<point x="155" y="244" type="line"/>
			<point x="289" y="244" type="line"/>
			<point x="292" y="262" type="line"/>
			<point x="158" y="262" type="line"/>
		</contour>
		<contour>
			<point x="403" y="-13" type="curve" smooth="yes"/>
			<point x="530" y="-13"/>
			<point x="637" y="144"/>
			<point x="637" y="312" type="curve" smooth="yes"/>
			<point x="637" y="436"/>
			<point x="575" y="484"/>
			<point x="500" y="484" type="curve" smooth="yes"/>
			<point x="368" y="484"/>
			<point x="266" y="310"/>
			<point x="266" y="156" type="curve" smooth="yes"/>
			<point x="266" y="29"/>
			<point x="339" y="-13"/>
		</contour>
		<contour>
			<point x="407" y="8" type="curve" smooth="yes"/>
			<point x="342" y="8"/>
			<point x="294" y="55"/>
			<point x="294" y="160" type="curve" smooth="yes"/>
			<point x="294" y="295"/>
			<point x="380" y="464"/>
			<point x="499" y="464" type="curve" smooth="yes"/>
			<point x="568" y="464"/>
			<point x="611" y="416"/>
			<point x="611" y="304" type="curve" smooth="yes"/>
			<point x="611" y="169"/>
			<point x="519" y="8"/>
		</contour>
	</outline>
</glyph>
<glyph name="quoteleft" format="1">
	<unicode hex="2018"/>
	<advance width="209"/>
	<outline>
		<contour>
			<point x="190" y="522" type="curve" smooth="yes"/>
			<point x="203" y="522"/>
			<point x="218" y="536"/>
			<point x="218" y="552" type="curve" smooth="yes"/>
			<point x="218" y="563"/>
			<point x="213" y="572"/>
			<point x="200" y="585" type="curve" smooth="yes"/>
			<point x="176" y="610" type="line"/>
			<point x="179" y="596" type="line"/>
			<point x="193" y="659"/>
			<point x="229" y="696"/>
			<point x="288" y="732" type="curve"/>
			<point x="281" y="743" type="line"/>
			<point x="211" y="708"/>
			<point x="158" y="643"/>
			<point x="158" y="577" type="curve" smooth="yes"/>
			<point x="158" y="562"/>
			<point x="162" y="540"/>
			<point x="171" y="527" type="curve"/>
			<point x="177" y="524"/>
			<point x="184" y="522"/>
		</contour>
	</outline>
</glyph>
<glyph name="dagger" format="1">
	<unicode hex="2020"/>
	<advance width="500"/>
	<outline>
		<contour>
			<point x="40" y="478" type="curve" smooth="yes"/>
			<point x="40" y="464"/>
			<point x="49" y="456"/>
			<point x="67" y="456" type="curve" smooth="yes"/>
			<point x="84" y="456"/>
			<point x="135" y="461"/>
			<point x="164" y="464" type="curve" smooth="yes"/>
			<point x="250" y="471" type="line"/>
			<point x="250" y="485" type="line"/>
			<point x="164" y="492" type="line" smooth="yes"/>
			<point x="135" y="495"/>
			<point x="84" y="500"/>
			<point x="67" y="500" type="curve" smooth="yes"/>
			<point x="49" y="500"/>
			<point x="40" y="491"/>
		</contour>
		<contour>
			<point x="232" y="325" type="curve" smooth="yes"/>
			<point x="232" y="268"/>
			<point x="239" y="213"/>
			<point x="243" y="-38" type="curve"/>
			<point x="257" y="-38" type="line"/>
			<point x="261" y="213"/>
			<point x="268" y="268"/>
			<point x="268" y="325" type="curve" smooth="yes"/>
			<point x="268" y="345"/>
			<point x="262" y="413"/>
			<point x="257" y="478" type="curve"/>
			<point x="243" y="478" type="line"/>
			<point x="238" y="413"/>
			<point x="232" y="345"/>
		</contour>
		<contour>
			<point x="250" y="698" type="curve" smooth="yes"/>
			<point x="236" y="698"/>
			<point x="228" y="689"/>
			<point x="228" y="671" type="curve" smooth="yes"/>
			<point x="228" y="654"/>
			<point x="233" y="603"/>
			<point x="236" y="574" type="curve" smooth="yes"/>
			<point x="243" y="478" type="line"/>
			<point x="257" y="478" type="line"/>
			<point x="264" y="574" type="line" smooth="yes"/>
			<point x="267" y="603"/>
			<point x="272" y="654"/>
			<point x="272" y="671" type="curve" smooth="yes"/>
			<point x="272" y="689"/>
			<point x="263" y="698"/>
		</contour>
		<contour>
			<point x="460" y="478" type="curve" smooth="yes"/>
			<point x="460" y="492"/>
			<point x="451" y="500"/>
			<point x="433" y="500" type="curve" smooth="yes"/>
			<point x="416" y="500"/>
			<point x="365" y="495"/>
			<point x="336" y="492" type="curve" smooth="yes"/>
			<point x="250" y="485" type="line"/>
			<point x="250" y="471" type="line"/>
			<point x="336" y="464" type="line" smooth="yes"/>
			<point x="365" y="461"/>
			<point x="416" y="456"/>
			<point x="433" y="456" type="curve" smooth="yes"/>
			<point x="451" y="456"/>
			<point x="460" y="465"/>
		</contour>
	</outline>
</glyph>
<glyph name="daggerdbl" format="1">
	<unicode hex="2021"/>
	<advance width="500"/>
	<outline>
		<contour>
			<point x="40" y="145" type="curve" smooth="yes"/>
			<point x="40" y="132"/>
			<point x="49" y="123"/>
			<point x="67" y="123" type="curve" smooth="yes"/>
			<point x="84" y="123"/>
			<point x="135" y="128"/>
			<point x="164" y="131" type="curve" smooth="yes"/>
			<point x="250" y="138" type="line"/>
			<point x="250" y="152" type="line"/>
			<point x="164" y="159" type="line" smooth="yes"/>
			<point x="135" y="162"/>
			<point x="84" y="167"/>
			<point x="67" y="167" type="curve" smooth="yes"/>
			<point x="49" y="167"/>
			<point x="40" y="159"/>
		</contour>
		<contour>
			<point x="460" y="145" type="curve" smooth="yes"/>
			<point x="460" y="158"/>
			<point x="451" y="167"/>
			<point x="433" y="167" type="curve" smooth="yes"/>
			<point x="416" y="167"/>
			<point x="365" y="162"/>
			<point x="336" y="159" type="curve" smooth="yes"/>
			<point x="250" y="152" type="line"/>
			<point x="250" y="138" type="line"/>
			<point x="336" y="131" type="line" smooth="yes"/>
			<point x="365" y="128"/>
			<point x="416" y="123"/>
			<point x="433" y="123" type="curve" smooth="yes"/>
			<point x="451" y="123"/>
			<point x="460" y="131"/>
		</contour>
		<contour>
			<point x="250" y="-75" type="curve" smooth="yes"/>
			<point x="263" y="-75"/>
			<point x="272" y="-66"/>
			<point x="272" y="-48" type="curve" smooth="yes"/>
			<point x="272" y="-31"/>
			<point x="267" y="20"/>
			<point x="264" y="49" type="curve" smooth="yes"/>
			<point x="257" y="145" type="line"/>
			<point x="243" y="145" type="line"/>
			<point x="236" y="49" type="line" smooth="yes"/>
			<point x="233" y="20"/>
			<point x="228" y="-31"/>
			<point x="228" y="-48" type="curve" smooth="yes"/>
			<point x="228" y="-66"/>
			<point x="236" y="-75"/>
		</contour>
		<contour>
			<point x="460" y="478" type="curve" smooth="yes"/>
			<point x="460" y="492"/>
			<point x="451" y="500"/>
			<point x="433" y="500" type="curve" smooth="yes"/>
			<point x="416" y="500"/>
			<point x="365" y="495"/>
			<point x="336" y="492" type="curve" smooth="yes"/>
			<point x="250" y="485" type="line"/>
			<point x="250" y="471" type="line"/>
			<point x="336" y="464" type="line" smooth="yes"/>
			<point x="365" y="461"/>
			<point x="416" y="456"/>
			<point x="433" y="456" type="curve" smooth="yes"/>
			<point x="451" y="456"/>
			<point x="460" y="465"/>
		</contour>
		<contour>
			<point x="250" y="698" type="curve" smooth="yes"/>
			<point x="236" y="698"/>
			<point x="228" y="689"/>
			<point x="228" y="671" type="curve" smooth="yes"/>
			<point x="228" y="654"/>
			<point x="233" y="603"/>
			<point x="236" y="574" type="curve" smooth="yes"/>
			<point x="243" y="478" type="line"/>
			<point x="257" y="478" type="line"/>
			<point x="264" y="574" type="line" smooth="yes"/>
			<point x="267" y="603"/>
			<point x="272" y="654"/>
			<point x="272" y="671" type="curve" smooth="yes"/>
			<point x="272" y="689"/>
			<point x="263" y="698"/>
		</contour>
		<contour>
			<point x="40" y="478" type="curve" smooth="yes"/>
			<point x="40" y="464"/>
			<point x="49" y="456"/>
			<point x="67" y="456" type="curve" smooth="yes"/>
			<point x="84" y="456"/>
			<point x="135" y="461"/>
			<point x="164" y="464" type="curve" smooth="yes"/>
			<point x="250" y="471" type="line"/>
			<point x="250" y="485" type="line"/>
			<point x="164" y="492" type="line" smooth="yes"/>
			<point x="135" y="495"/>
			<point x="84" y="500"/>
			<point x="67" y="500" type="curve" smooth="yes"/>
			<point x="49" y="500"/>
			<point x="40" y="491"/>
		</contour>
		<contour>
			<point x="266" y="311" type="curve" smooth="yes"/>
			<point x="266" y="341"/>
			<point x="262" y="403"/>
			<point x="257" y="478" type="curve"/>
			<point x="243" y="478" type="line"/>
			<point x="238" y="403"/>
			<point x="234" y="341"/>
			<point x="234" y="311" type="curve" smooth="yes"/>
			<point x="234" y="281"/>
			<point x="238" y="220"/>
			<point x="243" y="145" type="curve"/>
			<point x="257" y="145" type="line"/>
			<point x="262" y="220"/>
			<point x="266" y="281"/>
		</contour>
	</outline>
</glyph>
<glyph name="guilsinglleft" format="1">
	<unicode hex="2039"/>
	<advance width="304"/>
	<outline>
		<contour>
			<point x="232" y="48" type="line"/>
			<point x="246" y="61" type="line"/>
			<point x="74" y="262" type="line"/>
			<point x="71" y="243" type="line"/>
			<point x="303" y="442" type="line"/>
			<point x="292" y="457" type="line"/>
			<point x="44" y="260" type="line"/>
			<point x="41" y="245" type="line"/>
		</contour>
	</outline>
</glyph>
<glyph name="fraction" format="1">
	<unicode hex="2044"/>
	<advance width="140"/>
	<outline>
		<contour>
			<point x="-161" y="-22" type="line"/>
			<point x="316" y="664" type="line"/>
			<point x="299" y="675" type="line"/>
			<point x="-178" y="-11" type="line"/>
		</contour>
	</outline>
</glyph>
<glyph name="litre" format="1">
	<unicode hex="2113"/>
	<advance width="425"/>
	<outline>
		<contour>
			<point x="251" y="-13" type="curve" smooth="yes"/>
			<point x="315" y="-13"/>
			<point x="355" y="18"/>
			<point x="393" y="63" type="curve"/>
			<point x="383" y="73" type="line"/>
			<point x="343" y="30"/>
			<point x="304" y="7"/>
			<point x="255" y="7" type="curve" smooth="yes"/>
			<point x="183" y="7"/>
			<point x="126" y="81"/>
			<point x="126" y="377" type="curve" smooth="yes"/>
			<point x="126" y="638"/>
			<point x="179" y="738"/>
			<point x="252" y="738" type="curve" smooth="yes"/>
			<point x="305" y="738"/>
			<point x="332" y="689"/>
			<point x="332" y="604" type="curve" smooth="yes"/>
			<point x="332" y="430"/>
			<point x="246" y="255"/>
			<point x="20" y="53" type="curve"/>
			<point x="31" y="39" type="line"/>
			<point x="264" y="242"/>
			<point x="360" y="427"/>
			<point x="360" y="603" type="curve" smooth="yes"/>
			<point x="360" y="697"/>
			<point x="322" y="758"/>
			<point x="253" y="758" type="curve" smooth="yes"/>
			<point x="161" y="758"/>
			<point x="94" y="649"/>
			<point x="94" y="374" type="curve" smooth="yes"/>
			<point x="94" y="84"/>
			<point x="158" y="-13"/>
		</contour>
	</outline>
</glyph>
<glyph name="soundcopyright" format="1">
	<unicode hex="2117"/>
	<advance width="759"/>
	<outline>
		<contour>
			<point x="380" y="-13" type="curve" smooth="yes"/>
			<point x="570" y="-13"/>
			<point x="729" y="121"/>
			<point x="729" y="340" type="curve" smooth="yes"/>
			<point x="729" y="559"/>
			<point x="570" y="690"/>
			<point x="380" y="690" type="curve" smooth="yes"/>
			<point x="190" y="690"/>
			<point x="30" y="559"/>
			<point x="30" y="340" type="curve" smooth="yes"/>
			<point x="30" y="121"/>
			<point x="190" y="-13"/>
		</contour>
		<contour>
			<point x="380" y="8" type="curve" smooth="yes"/>
			<point x="198" y="8"/>
			<point x="56" y="133"/>
			<point x="56" y="340" type="curve" smooth="yes"/>
			<point x="56" y="543"/>
			<point x="198" y="668"/>
			<point x="380" y="668" type="curve" smooth="yes"/>
			<point x="562" y="668"/>
			<point x="704" y="542"/>
			<point x="704" y="340" type="curve" smooth="yes"/>
			<point x="704" y="138"/>
			<point x="563" y="8"/>
		</contour>
		<contour>
			<point x="255" y="137" type="line"/>
			<point x="410" y="137" type="line"/>
			<point x="410" y="154" type="line"/>
			<point x="334" y="159" type="line"/>
			<point x="326" y="159" type="line"/>
			<point x="255" y="154" type="line"/>
		</contour>
		<contour>
			<point x="255" y="527" type="line"/>
			<point x="326" y="522" type="line"/>
			<point x="330" y="522" type="line"/>
			<point x="330" y="544" type="line"/>
			<point x="255" y="544" type="line"/>
		</contour>
		<contour>
			<point x="315" y="137" type="line"/>
			<point x="345" y="137" type="line"/>
			<point x="345" y="544" type="line"/>
			<point x="315" y="544" type="line"/>
		</contour>
		<contour>
			<point x="330" y="307" type="line"/>
			<point x="381" y="307" type="line" smooth="yes"/>
			<point x="486" y="307"/>
			<point x="539" y="357"/>
			<point x="539" y="428" type="curve" smooth="yes"/>
			<point x="539" y="500"/>
			<point x="495" y="544"/>
			<point x="407" y="544" type="curve" smooth="yes"/>
			<point x="330" y="544" type="line"/>
			<point x="330" y="525" type="line"/>
			<point x="404" y="525" type="line" smooth="yes"/>
			<point x="478" y="525"/>
			<point x="509" y="492"/>
			<point x="509" y="430" type="curve" smooth="yes"/>
			<point x="509" y="365"/>
			<point x="472" y="325"/>
			<point x="374" y="325" type="curve" smooth="yes"/>
			<point x="330" y="325" type="line"/>
		</contour>
	</outline>
</glyph>
<glyph name="trademark" format="1">
	<unicode hex="2122"/>
	<advance width="710"/>
	<outline>
		<contour>
			<point x="438" y="677" type="line"/>
			<point x="438" y="382" type="line"/>
			<point x="454" y="382" type="line"/>
			<point x="454" y="677" type="line"/>
		</contour>
		<contour>
			<point x="396" y="677" type="line"/>
			<point x="396" y="660" type="line"/>
			<point x="453" y="653" type="line"/>
			<point x="438" y="671" type="line"/>
			<point x="560" y="382" type="line"/>
			<point x="571" y="382" type="line"/>
			<point x="696" y="677" type="line"/>
			<point x="680" y="677" type="line"/>
			<point x="568" y="421" type="line"/>
			<point x="575" y="421" type="line"/>
			<point x="465" y="677" type="line"/>
		</contour>
		<contour>
			<point x="688" y="654" type="line"/>
			<point x="692" y="654" type="line"/>
			<point x="745" y="660" type="line"/>
			<point x="745" y="677" type="line"/>
			<point x="688" y="677" type="line"/>
		</contour>
		<contour>
			<point x="675" y="382" type="line"/>
			<point x="702" y="382" type="line"/>
			<point x="702" y="677" type="line"/>
			<point x="685" y="677" type="line"/>
			<point x="675" y="643" type="line"/>
		</contour>
		<contour>
			<point x="684" y="405" type="line"/>
			<point x="635" y="399" type="line"/>
			<point x="635" y="382" type="line"/>
			<point x="745" y="382" type="line"/>
			<point x="745" y="399" type="line"/>
			<point x="692" y="405" type="line"/>
		</contour>
		<contour>
			<point x="442" y="405" type="line"/>
			<point x="398" y="399" type="line"/>
			<point x="398" y="382" type="line"/>
			<point x="493" y="382" type="line"/>
			<point x="493" y="399" type="line"/>
			<point x="449" y="405" type="line"/>
		</contour>
		<contour>
			<point x="233" y="405" type="line"/>
			<point x="175" y="399" type="line"/>
			<point x="175" y="382" type="line"/>
			<point x="298" y="382" type="line"/>
			<point x="298" y="399" type="line"/>
			<point x="240" y="405" type="line"/>
		</contour>
		<contour>
			<point x="223" y="382" type="line"/>
			<point x="250" y="382" type="line"/>
			<point x="250" y="677" type="line"/>
			<point x="223" y="677" type="line"/>
		</contour>
		<contour>
			<point x="341" y="656" type="line"/>
			<point x="328" y="677" type="line"/>
			<point x="339" y="599" type="line"/>
			<point x="357" y="599" type="line"/>
			<point x="353" y="677" type="line"/>
			<point x="120" y="677" type="line"/>
			<point x="117" y="599" type="line"/>
			<point x="134" y="599" type="line"/>
			<point x="146" y="677" type="line"/>
			<point x="132" y="656" type="line"/>
		</contour>
	</outline>
</glyph>
<glyph name="partialdiff" format="1">
	<unicode hex="2202"/>
	<advance width="520"/>
	<outline>
		<contour>
			<point x="55" y="175" type="curve" smooth="yes"/>
			<point x="55" y="61"/>
			<point x="129" y="-13"/>
			<point x="231" y="-13" type="curve" smooth="yes"/>
			<point x="366" y="-13"/>
			<point x="467" y="132"/>
			<point x="467" y="365" type="curve" smooth="yes"/>
			<point x="467" y="567"/>
			<point x="410" y="667"/>
			<point x="299" y="667" type="curve" smooth="yes"/>
			<point x="247" y="667"/>
			<point x="200" y="652"/>
			<point x="161" y="613" type="curve"/>
			<point x="171" y="602" type="line"/>
			<point x="212" y="633"/>
			<point x="243" y="647"/>
			<point x="292" y="647" type="curve" smooth="yes"/>
			<point x="386" y="647"/>
			<point x="435" y="571"/>
			<point x="435" y="354" type="curve" smooth="yes"/>
			<point x="435" y="136"/>
			<point x="338" y="7"/>
			<point x="234" y="7" type="curve" smooth="yes"/>
			<point x="144" y="7"/>
			<point x="87" y="70"/>
			<point x="87" y="175" type="curve" smooth="yes"/>
			<point x="87" y="312"/>
			<point x="179" y="376"/>
			<point x="275" y="376" type="curve" smooth="yes"/>
			<point x="342" y="376"/>
			<point x="395" y="353"/>
			<point x="445" y="290" type="curve"/>
			<point x="450" y="312" type="line"/>
			<point x="401" y="372"/>
			<point x="351" y="396"/>
			<point x="276" y="396" type="curve" smooth="yes"/>
			<point x="177" y="396"/>
			<point x="55" y="331"/>
		</contour>
	</outline>
</glyph>
<glyph name="product" format="1">
	<unicode hex="220F"/>
	<advance width="769"/>
	<outline>
		<contour>
			<point x="596" y="655" type="line"/>
			<point x="596" y="677" type="line"/>
			<point x="175" y="677" type="line"/>
			<point x="175" y="655" type="line"/>
		</contour>
		<contour>
			<point x="168" y="-103" type="line"/>
			<point x="51" y="-110" type="line"/>
			<point x="51" y="-130" type="line"/>
			<point x="299" y="-130" type="line"/>
			<point x="299" y="-110" type="line"/>
			<point x="182" y="-103" type="line"/>
		</contour>
		<contour>
			<point x="160" y="180" type="line" smooth="yes"/>
			<point x="160" y="76"/>
			<point x="160" y="-28"/>
			<point x="158" y="-130" type="curve"/>
			<point x="192" y="-130" type="line"/>
			<point x="190" y="-28"/>
			<point x="190" y="76"/>
			<point x="190" y="180" type="curve" smooth="yes"/>
			<point x="190" y="367" type="line" smooth="yes"/>
			<point x="190" y="471"/>
			<point x="190" y="575"/>
			<point x="192" y="677" type="curve"/>
			<point x="158" y="677" type="line"/>
			<point x="160" y="575"/>
			<point x="160" y="471"/>
			<point x="160" y="367" type="curve" smooth="yes"/>
		</contour>
		<contour>
			<point x="596" y="650" type="line"/>
			<point x="603" y="650" type="line"/>
			<point x="720" y="657" type="line"/>
			<point x="720" y="677" type="line"/>
			<point x="596" y="677" type="line"/>
		</contour>
		<contour>
			<point x="580" y="180" type="line" smooth="yes"/>
			<point x="580" y="76"/>
			<point x="580" y="-28"/>
			<point x="578" y="-130" type="curve"/>
			<point x="612" y="-130" type="line"/>
			<point x="610" y="-28"/>
			<point x="610" y="76"/>
			<point x="610" y="180" type="curve" smooth="yes"/>
			<point x="610" y="367" type="line" smooth="yes"/>
			<point x="610" y="471"/>
			<point x="610" y="575"/>
			<point x="612" y="677" type="curve"/>
			<point x="578" y="677" type="line"/>
			<point x="580" y="575"/>
			<point x="580" y="471"/>
			<point x="580" y="367" type="curve" smooth="yes"/>
		</contour>
		<contour>
			<point x="589" y="-103" type="line"/>
			<point x="472" y="-110" type="line"/>
			<point x="472" y="-130" type="line"/>
			<point x="720" y="-130" type="line"/>
			<point x="720" y="-110" type="line"/>
			<point x="603" y="-103" type="line"/>
		</contour>
		<contour>
			<point x="168" y="650" type="line"/>
			<point x="175" y="650" type="line"/>
			<point x="175" y="677" type="line"/>
			<point x="50" y="677" type="line"/>
			<point x="50" y="657" type="line"/>
		</contour>
	</outline>
</glyph>
<glyph name="summation" format="1">
	<unicode hex="2211"/>
	<advance width="551"/>
	<outline>
		<contour>
			<point x="481" y="514" type="line"/>
			<point x="503" y="514" type="line"/>
			<point x="495" y="677" type="line"/>
			<point x="41" y="677" type="line"/>
			<point x="41" y="655" type="line"/>
			<point x="475" y="655" type="line"/>
			<point x="459" y="677" type="line"/>
		</contour>
		<contour>
			<point x="18" y="-130" type="line"/>
			<point x="503" y="-130" type="line"/>
			<point x="513" y="33" type="line"/>
			<point x="491" y="33" type="line"/>
			<point x="467" y="-130" type="line"/>
			<point x="483" y="-104" type="line"/>
			<point x="35" y="-104" type="line"/>
			<point x="43" y="-117" type="line"/>
			<point x="318" y="284" type="line"/>
			<point x="58" y="677" type="line"/>
			<point x="35" y="677" type="line"/>
			<point x="35" y="657" type="line"/>
			<point x="299" y="262" type="line"/>
			<point x="302" y="304" type="line"/>
			<point x="18" y="-110" type="line"/>
		</contour>
	</outline>
</glyph>
<glyph name="minus" format="1">
	<unicode hex="2212"/>
	<advance width="530"/>
	<outline>
		<contour>
			<point x="490" y="323" type="line"/>
			<point x="490" y="349" type="line"/>
			<point x="40" y="349" type="line"/>
			<point x="40" y="323" type="line"/>
		</contour>
	</outline>
</glyph>
<glyph name="radical" format="1">
	<unicode hex="221A"/>
	<advance width="531"/>
	<outline>
		<contour>
			<point x="139" y="339" type="line"/>
			<point x="296" y="-94" type="line"/>
			<point x="308" y="-94" type="line"/>
			<point x="521" y="798" type="line"/>
			<point x="491" y="798" type="line"/>
			<point x="301" y="-54" type="line"/>
			<point x="305" y="-54" type="line"/>
			<point x="159" y="349" type="line"/>
			<point x="40" y="349" type="line"/>
			<point x="40" y="323" type="line"/>
			<point x="168" y="323" type="line"/>
		</contour>
	</outline>
</glyph>
<glyph name="infinity" format="1">
	<unicode hex="221E"/>
	<advance width="780"/>
	<outline>
		<contour>
			<point x="383" y="318" type="curve" smooth="yes"/>
			<point x="451" y="227"/>
			<point x="511" y="182"/>
			<point x="584" y="182" type="curve" smooth="yes"/>
			<point x="665" y="182"/>
			<point x="737" y="236"/>
			<point x="737" y="336" type="curve" smooth="yes"/>
			<point x="737" y="436"/>
			<point x="665" y="484"/>
			<point x="585" y="484" type="curve" smooth="yes"/>
			<point x="510" y="484"/>
			<point x="452" y="445"/>
			<point x="390" y="346" type="curve"/>
			<point x="394" y="326" type="line"/>
			<point x="468" y="432"/>
			<point x="526" y="460"/>
			<point x="585" y="460" type="curve" smooth="yes"/>
			<point x="667" y="460"/>
			<point x="714" y="400"/>
			<point x="714" y="335" type="curve" smooth="yes"/>
			<point x="714" y="263"/>
			<point x="657" y="210"/>
			<point x="588" y="210" type="curve" smooth="yes"/>
			<point x="510" y="210"/>
			<point x="452" y="277"/>
			<point x="398" y="349" type="curve" smooth="yes"/>
			<point x="330" y="440"/>
			<point x="270" y="485"/>
			<point x="197" y="485" type="curve" smooth="yes"/>
			<point x="116" y="485"/>
			<point x="44" y="431"/>
			<point x="44" y="331" type="curve" smooth="yes"/>
			<point x="44" y="231"/>
			<point x="116" y="183"/>
			<point x="196" y="183" type="curve" smooth="yes"/>
			<point x="271" y="183"/>
			<point x="329" y="222"/>
			<point x="391" y="321" type="curve"/>
			<point x="387" y="341" type="line"/>
			<point x="313" y="235"/>
			<point x="255" y="207"/>
			<point x="196" y="207" type="curve" smooth="yes"/>
			<point x="114" y="207"/>
			<point x="67" y="267"/>
			<point x="67" y="332" type="curve" smooth="yes"/>
			<point x="67" y="404"/>
			<point x="124" y="457"/>
			<point x="193" y="457" type="curve" smooth="yes"/>
			<point x="271" y="457"/>
			<point x="329" y="390"/>
		</contour>
	</outline>
</glyph>
<glyph name="integral" format="1">
	<unicode hex="222B"/>
	<advance width="322"/>
	<outline>
		<contour>
			<point x="145" y="288" type="curve" smooth="yes"/>
			<point x="150" y="130"/>
			<point x="149" y="83"/>
			<point x="149" y="54" type="curve" smooth="yes"/>
			<point x="149" y="-17"/>
			<point x="138" y="-78"/>
			<point x="102" y="-119" type="curve" smooth="yes"/>
			<point x="77" y="-147"/>
			<point x="47" y="-167"/>
			<point x="0" y="-169" type="curve"/>
			<point x="41" y="-180" type="line"/>
			<point x="10" y="-162" type="line" smooth="yes"/>
			<point x="-19" y="-145"/>
			<point x="-41" y="-132"/>
			<point x="-59" y="-131" type="curve" smooth="yes"/>
			<point x="-73" y="-132"/>
			<point x="-79" y="-144"/>
			<point x="-80" y="-154" type="curve"/>
			<point x="-55" y="-173"/>
			<point x="-26" y="-186"/>
			<point x="8" y="-186" type="curve" smooth="yes"/>
			<point x="47" y="-186"/>
			<point x="78" y="-173"/>
			<point x="114" y="-137" type="curve" smooth="yes"/>
			<point x="159" y="-92"/>
			<point x="178" y="-20"/>
			<point x="178" y="87" type="curve" smooth="yes"/>
			<point x="178" y="117"/>
			<point x="178" y="154"/>
			<point x="173" y="298" type="curve" smooth="yes"/>
			<point x="168" y="455"/>
			<point x="169" y="498"/>
			<point x="169" y="535" type="curve" smooth="yes"/>
			<point x="169" y="609"/>
			<point x="190" y="670"/>
			<point x="225" y="711" type="curve" smooth="yes"/>
			<point x="242" y="731"/>
			<point x="274" y="753"/>
			<point x="317" y="756" type="curve"/>
			<point x="278" y="763" type="line"/>
			<point x="309" y="747" type="line" smooth="yes"/>
			<point x="340" y="731"/>
			<point x="363" y="719"/>
			<point x="381" y="719" type="curve" smooth="yes"/>
			<point x="396" y="719"/>
			<point x="402" y="731"/>
			<point x="402" y="742" type="curve"/>
			<point x="378" y="760"/>
			<point x="349" y="774"/>
			<point x="313" y="774" type="curve" smooth="yes"/>
			<point x="280" y="774"/>
			<point x="246" y="763"/>
			<point x="210" y="726" type="curve" smooth="yes"/>
			<point x="167" y="680"/>
			<point x="140" y="611"/>
			<point x="140" y="502" type="curve" smooth="yes"/>
			<point x="140" y="481"/>
			<point x="140" y="431"/>
		</contour>
	</outline>
</glyph>
<glyph name="notequal" format="1">
	<unicode hex="2260"/>
	<advance width="530"/>
	<outline>
		<contour>
			<point x="114" y="62" type="line"/>
			<point x="417" y="586" type="line"/>
			<point x="398" y="597" type="line"/>
			<point x="95" y="73" type="line"/>
		</contour>
		<component base="equal"/>
	</outline>
</glyph>
<glyph name="lessequal" format="1">
	<unicode hex="2264"/>
	<advance width="530"/>
	<outline>
		<contour>
			<point x="490" y="0" type="line"/>
			<point x="490" y="26" type="line"/>
			<point x="40" y="26" type="line"/>
			<point x="40" y="0" type="line"/>
		</contour>
		<contour>
			<point x="51" y="303" type="line"/>
			<point x="457" y="93" type="line"/>
			<point x="469" y="114" type="line"/>
			<point x="64" y="324" type="line"/>
			<point x="64" y="301" type="line"/>
			<point x="469" y="510" type="line"/>
			<point x="457" y="530" type="line"/>
			<point x="51" y="322" type="line"/>
		</contour>
	</outline>
</glyph>
<glyph name="greaterequal" format="1">
	<unicode hex="2265"/>
	<advance width="530"/>
	<outline>
		<contour>
			<point x="40" y="0" type="line"/>
			<point x="490" y="0" type="line"/>
			<point x="490" y="26" type="line"/>
			<point x="40" y="26" type="line"/>
		</contour>
		<contour>
			<point x="479" y="303" type="line"/>
			<point x="479" y="322" type="line"/>
			<point x="73" y="530" type="line"/>
			<point x="61" y="510" type="line"/>
			<point x="466" y="301" type="line"/>
			<point x="466" y="324" type="line"/>
			<point x="61" y="114" type="line"/>
			<point x="73" y="93" type="line"/>
		</contour>
	</outline>
</glyph>
<glyph name="lozenge" format="1">
	<unicode hex="25CA"/>
	<advance width="560"/>
	<outline>
		<contour>
			<point x="481" y="323" type="line"/>
			<point x="312" y="-11" type="line"/>
			<point x="143" y="323" type="line"/>
			<point x="312" y="657" type="line"/>
		</contour>
		<contour>
			<point x="507" y="323" type="line"/>
			<point x="316" y="701" type="line"/>
			<point x="308" y="701" type="line"/>
			<point x="117" y="323" type="line"/>
			<point x="308" y="-55" type="line"/>
			<point x="316" y="-55" type="line"/>
		</contour>
	</outline>
</glyph>
<glyph name="Delta.math" format="1">
	<advance width="565"/>
	<outline>
		<contour>
			<point x="488" y="46" type="line"/>
			<point x="57" y="46" type="line"/>
			<point x="48" y="0" type="line"/>
			<point x="479" y="0" type="line"/>
		</contour>
		<contour>
			<point x="376" y="670" type="line"/>
			<point x="35" y="35" type="line"/>
			<point x="28" y="0" type="line"/>
			<point x="28" y="0"/>
			<point x="62" y="0"/>
			<point x="62" y="0" type="curve"/>
			<point x="419" y="670" type="line"/>
		</contour>
		<contour>
			<point x="383" y="670" type="curve"/>
			<point x="355" y="619" type="line"/>
			<point x="461" y="0" type="line"/>
			<point x="461" y="0"/>
			<point x="538" y="0"/>
			<point x="538" y="0" type="curve"/>
			<point x="545" y="35" type="line"/>
			<point x="434" y="670" type="line"/>
			<point x="434" y="670"/>
			<point x="383" y="670"/>
		</contour>
	</outline>
</glyph>
<glyph name="Ze" format="1">
	<advance width="511"/>
	<outline>
		<contour>
			<point x="106" y="57" type="curve"/>
			<point x="119" y="33" type="line"/>
			<point x="104" y="109" type="line" smooth="yes"/>
			<point x="102" y="120"/>
			<point x="96" y="125"/>
			<point x="87" y="125" type="curve" smooth="yes"/>
			<point x="76" y="125"/>
			<point x="67" y="117"/>
			<point x="65" y="106" type="curve"/>
			<point x="76" y="38"/>
			<point x="111" y="-13"/>
			<point x="235" y="-13" type="curve" smooth="yes"/>
			<point x="398" y="-13"/>
			<point x="509" y="82"/>
			<point x="509" y="198" type="curve" smooth="yes"/>
			<point x="509" y="287"/>
			<point x="452" y="355"/>
			<point x="308" y="357" type="curve"/>
			<point x="307" y="349" type="line"/>
			<point x="451" y="361"/>
			<point x="520" y="453"/>
			<point x="520" y="547" type="curve" smooth="yes"/>
			<point x="520" y="635"/>
			<point x="468" y="690"/>
			<point x="337" y="690" type="curve" smooth="yes"/>
			<point x="272" y="690"/>
			<point x="223" y="673"/>
			<point x="166" y="642" type="curve"/>
			<point x="145" y="522" type="line"/>
			<point x="166" y="522" type="line"/>
			<point x="200" y="647" type="line"/>
			<point x="185" y="641" type="line"/>
			<point x="183" y="629" type="line"/>
			<point x="227" y="655"/>
			<point x="275" y="668"/>
			<point x="330" y="668" type="curve" smooth="yes"/>
			<point x="452" y="668"/>
			<point x="494" y="617"/>
			<point x="494" y="544" type="curve" smooth="yes"/>
			<point x="494" y="435"/>
			<point x="410" y="363"/>
			<point x="272" y="363" type="curve" smooth="yes"/>
			<point x="256" y="363" type="line"/>
			<point x="252" y="343" type="line"/>
			<point x="280" y="343" type="line" smooth="yes"/>
			<point x="424" y="343"/>
			<point x="481" y="287"/>
			<point x="481" y="201" type="curve" smooth="yes"/>
			<point x="481" y="84"/>
			<point x="371" y="9"/>
			<point x="238" y="9" type="curve" smooth="yes"/>
			<point x="170" y="9"/>
			<point x="133" y="21"/>
		</contour>
	</outline>
</glyph>
<glyph name=".notdef" format="1">
	<advance width="640"/>
	<outline>
		<contour>
			<point x="80" y="0" type="line"/>
			<point x="105" y="0" type="line"/>
			<point x="560" y="677" type="line"/>
			<point x="535" y="677" type="line"/>
		</contour>
		<contour>
			<point x="560" y="0" type="line"/>
			<point x="105" y="677" type="line"/>
			<point x="80" y="677" type="line"/>
			<point x="535" y="0" type="line"/>
		</contour>
		<contour>
			<point x="105" y="22" type="line"/>
			<point x="105" y="655" type="line"/>
			<point x="535" y="655" type="line"/>
			<point x="535" y="22" type="line"/>
		</contour>
		<contour>
			<point x="80" y="0" type="line"/>
			<point x="560" y="0" type="line"/>
			<point x="560" y="677" type="line"/>
			<point x="80" y="677" type="line"/>
		</contour>
	</outline>
</glyph>
